<svg width="23" height="25" viewBox="0 0 23 25" fill="none" xmlns="http://www.w3.org/2000/svg">
<path opacity="0.5" fill-rule="evenodd" clip-rule="evenodd" d="M20.5259 22.6223C20.5569 22.4069 20.549 22.186 20.5407 21.9547C20.5366 21.8449 20.5326 21.7328 20.5326 21.6179C21.8529 21.4462 22.4979 20.7681 22.5022 19.5784C22.5092 17.6101 22.5125 15.6418 22.5004 13.6734C22.4942 12.648 21.8937 11.9572 20.8942 11.7703C20.787 11.7505 20.6798 11.7315 20.5562 11.7089C20.5562 11.1665 20.5548 10.6262 20.5535 10.0873C20.5502 8.7932 20.547 7.50765 20.5626 6.22232C20.5742 5.26764 20.2506 4.49219 19.5651 3.83058C18.5938 2.89264 17.6406 1.9355 16.6995 0.967197C16.0477 0.296436 15.2787 -0.00512374 14.3439 3.2098e-06C12.2272 0.0114015 10.1105 0.00975358 7.99379 0.00810563C7.00258 0.00734269 6.01137 0.00657975 5.02028 0.00714432C3.12453 0.00804459 2.00392 1.1384 2.00331 3.04956L2.00307 5.7237C2.00307 7.54892 2.00295 9.37418 2.00063 11.1993C2.00038 11.3719 2.0464 11.5522 1.96156 11.7165C0.702408 11.9422 0.0706943 12.5509 0.0609287 13.6237C0.0421298 15.6569 0.0421298 17.6904 0.0612949 19.7237C0.0709384 20.7382 0.768082 21.4601 1.7748 21.5777C1.78969 21.5794 1.80519 21.5796 1.82106 21.5797C1.88442 21.5803 1.95277 21.5809 2.00356 21.6835C2.00356 21.844 2.00038 22.0382 2.00392 22.2324C2.03236 23.7877 3.21046 24.9882 4.76173 24.9922C9.10646 25.0034 13.4511 25.002 17.7957 24.9926C19.1941 24.9897 20.3269 23.9982 20.5259 22.6223ZM19.0573 6.05872V11.7214H3.52028C3.44984 11.6089 3.45778 11.4953 3.46559 11.3853C3.46718 11.3635 3.46877 11.3418 3.46962 11.3202C3.47011 11.3076 3.47047 11.2951 3.47047 11.2826C3.46754 8.53438 3.46754 5.7864 3.46877 3.03818C3.46913 1.94733 3.94777 1.47188 5.04482 1.47144C6.49965 1.4709 7.95448 1.47078 9.40932 1.4708L14.1701 1.471H14.6499C14.6499 2.37479 14.6475 3.24666 14.6507 4.1183C14.6555 5.44867 15.2633 6.05693 16.5857 6.05849C17.0302 6.0591 17.4745 6.05912 17.9243 6.05899L19.0573 6.05872ZM13.5391 20.1195L11.2587 20.1194C8.25063 20.1194 5.24232 20.1199 2.23451 20.119C1.57167 20.1188 1.52028 20.0659 1.52004 19.388C1.51942 17.5511 1.51869 15.7143 1.52052 13.8775C1.52089 13.3007 1.61916 13.2022 2.20314 13.202C8.25197 13.2009 14.3007 13.2009 20.3495 13.202C20.9401 13.202 21.0383 13.298 21.0391 13.8705C21.0408 15.7397 21.041 17.6092 21.0388 19.4786C21.0381 20.0393 20.9557 20.1185 20.3808 20.1188L17.3452 20.1195H13.5391ZM5.18056 23.5491C3.8633 23.5643 3.27834 22.7808 3.51064 21.6047H19.0469C19.2841 22.7681 18.7029 23.5645 17.3819 23.5491C13.3151 23.5016 9.24733 23.5018 5.18056 23.5491ZM16.1571 2.60089L18.1526 4.57679H16.1571V2.60089ZM7.09706 15.1465C6.85426 15.1465 6.67116 15.2217 6.53725 15.3764C6.454 15.472 6.39577 15.6059 6.36342 15.7755C6.32948 15.9532 6.31227 16.2744 6.31227 16.7293C6.31227 17.1845 6.32973 17.5055 6.36342 17.6834C6.39552 17.8526 6.45375 17.9865 6.53688 18.0818C6.67079 18.2367 6.85402 18.3119 7.09682 18.3119C7.50465 18.3119 7.75295 18.1017 7.85561 17.6691C7.86452 17.6314 7.89809 17.6048 7.93678 17.6048H8.92445C8.97633 17.6048 9.01576 17.6516 9.00697 17.7028C8.91518 18.2296 8.69569 18.6398 8.35463 18.9222C8.01381 19.2043 7.59059 19.3476 7.09682 19.3476C6.54469 19.3476 6.07497 19.163 5.70107 18.7988C5.46071 18.5584 5.31032 18.2905 5.2538 18.0021C5.19936 17.7253 5.17165 17.2972 5.17165 16.7291C5.17165 16.1613 5.19936 15.7331 5.2538 15.4563C5.31032 15.1682 5.46046 14.9003 5.70046 14.6606C6.07497 14.2954 6.54469 14.1108 7.09682 14.1108C7.59059 14.1108 8.01381 14.2539 8.35463 14.5363C8.69557 14.8189 8.91493 15.2291 9.00697 15.7557C9.01051 15.7762 9.00636 15.796 8.99672 15.8124C8.98232 15.8368 8.9557 15.8537 8.92458 15.8537H7.93007C7.91164 15.8537 7.89442 15.8477 7.88039 15.8373C7.86501 15.8259 7.85353 15.8092 7.84889 15.7894C7.74623 15.3568 7.50026 15.1465 7.09706 15.1465ZM12.1071 16.2252L11.5112 16.1342C11.3331 16.1089 11.195 16.0522 11.1017 15.9672C11.0252 15.8946 10.9878 15.7978 10.9878 15.671C10.9878 15.5123 11.043 15.3848 11.1566 15.2813C11.2706 15.1772 11.4425 15.1246 11.6675 15.1246C12.0907 15.1246 12.4148 15.2319 12.6309 15.4437C12.6636 15.4758 12.716 15.4757 12.7486 15.4435L13.3648 14.8344C13.3982 14.8013 13.398 14.7472 13.3642 14.7145C12.9484 14.3132 12.3867 14.1098 11.6954 14.1098C11.1445 14.1098 10.6992 14.2571 10.3725 14.5478C10.0425 14.8406 9.87514 15.2306 9.87514 15.706C9.87514 16.1475 10.0037 16.4973 10.2579 16.7466C10.4939 16.973 10.8345 17.1194 11.2693 17.1821L11.8662 17.2732C12.0575 17.2987 12.1925 17.3478 12.266 17.4174C12.3534 17.5047 12.3959 17.6203 12.3959 17.7712C12.3959 17.9446 12.3329 18.0734 12.2035 18.1652C12.0673 18.2618 11.8611 18.3107 11.5902 18.3107C11.0974 18.3107 10.7146 18.1777 10.4522 17.9152C10.4194 17.8825 10.3665 17.8825 10.3338 17.9152L9.70351 18.5455C9.67079 18.5782 9.67079 18.6312 9.70351 18.6638C9.94899 18.9098 10.2257 19.0871 10.5265 19.1915C10.8234 19.2944 11.1787 19.3467 11.5834 19.3467C12.1411 19.3467 12.6061 19.2051 12.9651 18.9263C13.3302 18.6424 13.5155 18.2466 13.5155 17.7502C13.5155 17.2663 13.3768 16.8922 13.1044 16.6393C12.8829 16.4279 12.547 16.2884 12.1071 16.2252ZM16.2454 17.2L17.115 14.3788C17.1568 14.244 17.2813 14.1518 17.4226 14.1518H17.9321C18.1516 14.1518 18.3065 14.3665 18.2376 14.5748L16.8034 18.9018C16.7236 19.1424 16.4989 19.3047 16.2455 19.3047C15.992 19.3047 15.767 19.142 15.6875 18.9011L14.2594 14.5743C14.1907 14.3663 14.3458 14.1518 14.565 14.1518H15.0681C15.2094 14.1518 15.3341 14.244 15.3757 14.3788L16.2454 17.2Z" fill="#0C1928"/>
</svg>
