<svg width="27" height="25" viewBox="0 0 27 25" fill="none" xmlns="http://www.w3.org/2000/svg">
<path opacity="0.5" fill-rule="evenodd" clip-rule="evenodd" d="M13.7099 0.0139674C13.9471 -0.0310321 14.1925 0.0339695 14.3777 0.19064C14.5646 0.34898 14.6719 0.583989 14.6719 0.832335V3.33244H25.2344C25.6829 3.33244 26.0469 3.70579 26.0469 4.16581V20.8332C26.0469 21.2932 25.6829 21.6665 25.2344 21.6665H14.6719V24.1666C14.6719 24.4133 14.5646 24.65 14.3777 24.8083C14.2315 24.9333 14.0462 25 13.8594 25C13.8106 25 13.7586 24.995 13.7099 24.985L0.709877 22.4849C0.324749 22.4116 0.046875 22.0665 0.046875 21.6665V3.33244C0.046875 2.93075 0.324749 2.58741 0.709877 2.51407L13.7099 0.0139674ZM24.4219 19.9998V4.99917H14.6719V6.66591H17.1094C17.5579 6.66591 17.9219 7.03926 17.9219 7.49928C17.9219 7.9593 17.5579 8.33265 17.1094 8.33265H14.6719V9.99938H17.1094C17.5579 9.99938 17.9219 10.3727 17.9219 10.8327C17.9219 11.2928 17.5579 11.6661 17.1094 11.6661H14.6719V13.3329H17.1094C17.5579 13.3329 17.9219 13.7062 17.9219 14.1662C17.9219 14.6262 17.5579 14.9996 17.1094 14.9996H14.6719V16.6663H17.1094C17.5579 16.6663 17.9219 17.0397 17.9219 17.4997C17.9219 17.9597 17.5579 18.3331 17.1094 18.3331H14.6719V19.9998H24.4219ZM13.0469 17.4997V14.1662V10.8327V7.49928V4.16581V1.83737L1.67188 4.02413V20.9748L13.0469 23.1616V20.8332V17.4997ZM21.9844 6.66591H20.3594C19.9109 6.66591 19.5469 7.03926 19.5469 7.49928C19.5469 7.9593 19.9109 8.33265 20.3594 8.33265H21.9844C22.4329 8.33265 22.7969 7.9593 22.7969 7.49928C22.7969 7.03926 22.4329 6.66591 21.9844 6.66591ZM20.3594 9.99938H21.9844C22.4329 9.99938 22.7969 10.3727 22.7969 10.8327C22.7969 11.2928 22.4329 11.6661 21.9844 11.6661H20.3594C19.9109 11.6661 19.5469 11.2928 19.5469 10.8327C19.5469 10.3727 19.9109 9.99938 20.3594 9.99938ZM21.9844 13.3329H20.3594C19.9109 13.3329 19.5469 13.7062 19.5469 14.1662C19.5469 14.6262 19.9109 14.9996 20.3594 14.9996H21.9844C22.4329 14.9996 22.7969 14.6262 22.7969 14.1662C22.7969 13.7062 22.4329 13.3329 21.9844 13.3329ZM20.3594 16.6663H21.9844C22.4329 16.6663 22.7969 17.0397 22.7969 17.4997C22.7969 17.9597 22.4329 18.3331 21.9844 18.3331H20.3594C19.9109 18.3331 19.5469 17.9597 19.5469 17.4997C19.5469 17.0397 19.9109 16.6663 20.3594 16.6663ZM7.56157 10.9938L5.53448 8.61766C5.23548 8.26931 4.72362 8.23597 4.38725 8.53932C4.04924 8.84266 4.01509 9.36935 4.31086 9.71437L6.54545 12.3338L4.28005 15.3213C4.0054 15.6846 4.06877 16.2096 4.42304 16.4913C4.57254 16.6096 4.74803 16.6663 4.92188 16.6663C5.16237 16.6663 5.40293 16.5563 5.56217 16.3463L7.63572 13.6118L9.99836 16.3813C10.1592 16.5696 10.3835 16.6663 10.6094 16.6663C10.7995 16.6663 10.9896 16.598 11.1456 16.4597C11.4836 16.1563 11.5177 15.6313 11.222 15.2846L8.65183 12.2718L11.2497 8.84599C11.5259 8.48098 11.4625 7.95763 11.1083 7.67595C10.754 7.39094 10.2438 7.45927 9.96755 7.82095L7.56157 10.9938Z" fill="#0C1928"/>
</svg>
