<svg width="17" height="18" viewBox="0 0 17 18" fill="none" xmlns="http://www.w3.org/2000/svg">
<path opacity="0.4" d="M16.9997 3.84757C16.9974 3.35891 16.7099 3.03148 16.2217 2.97914C13.5415 2.69258 11.1537 1.67628 8.95378 0.186265C8.58827 -0.0614695 8.4111 -0.0626326 8.04677 0.186044C6.44077 1.28271 4.71226 2.13093 2.81194 2.60646C2.15122 2.772 1.4702 2.86178 0.796176 2.97272C0.286922 3.05651 0.00410871 3.3578 0.000613717 3.86596C-0.00733458 4.96744 0.0618325 6.06434 0.213301 7.15547C0.395379 8.46703 0.678869 9.75566 1.13502 11.0044C1.67466 12.4808 2.41013 13.8473 3.47188 15.0319C4.63154 16.3258 6.04172 17.2314 7.69079 17.768C7.7997 17.8034 7.90979 17.8374 8.02079 17.8695C8.02614 17.8711 8.03178 17.8727 8.03713 17.8743L8.04108 17.8755L8.23156 17.9354L8.23624 17.9368C8.27665 17.9501 8.31707 17.9632 8.35755 17.976H8.36082C8.40614 17.9903 8.45309 17.9973 8.5 17.9976L8.49994 17.998C8.51448 18.0025 8.54549 17.9993 8.58895 17.9901C8.59391 17.9892 8.59887 17.988 8.60383 17.9869C8.60569 17.9864 8.60761 17.986 8.60947 17.9855C8.6168 17.9839 8.62418 17.9823 8.63145 17.9802C9.02199 17.8829 10.09 17.4578 10.09 17.4578L10.0895 17.4576C10.2299 17.4026 10.3691 17.3452 10.5063 17.2835C11.8394 16.6835 12.9388 15.779 13.8504 14.6548C15.0545 13.1703 15.8022 11.4681 16.2899 9.64727C16.799 7.74719 17.0088 5.80968 16.9997 3.84757Z" fill="#0C1928"/>
<path fill-rule="evenodd" clip-rule="evenodd" d="M6.03195 7C6.94976 7.00063 7.72548 7.60076 7.97758 8.42236L12.4143 8.4228C12.7376 8.4228 13 8.68106 13 8.99927V10.4235C13 10.7417 12.7376 11 12.4143 11C12.091 11 11.8286 10.7417 11.8286 10.4235V9.57574L10.791 9.57535L10.7914 10.4235C10.7914 10.7417 10.529 11 10.2057 11C9.88242 11 9.62003 10.7417 9.62003 10.4235L9.61964 9.57535L7.97793 9.57609C7.72598 10.3986 6.94905 10.9999 6.03195 10.9999C4.91133 10.9999 4 10.1022 4 8.99996C4 7.89698 4.91133 7 6.03195 7ZM6.03351 8.15294C5.55715 8.15294 5.17138 8.53264 5.17138 8.99996C5.17138 9.46729 5.55715 9.84699 6.03195 9.84699C6.50597 9.84699 6.89252 9.46729 6.89252 8.99996C6.89252 8.53341 6.50675 8.15371 6.03351 8.15294Z" fill="#0C1928"/>
</svg>
