<svg width="48" height="34" viewBox="0 0 48 34" fill="none" xmlns="http://www.w3.org/2000/svg">
<path d="M45.9418 14.2624C45.3598 13.5085 44.758 12.7305 44.3254 11.8334C43.6346 10.4051 42.9058 8.96569 42.2012 7.57287C41.6356 6.45377 41.0493 5.29669 40.4871 4.15169C40.1037 3.3685 39.5736 3.03001 38.7247 3.03001C38.7023 3.03001 38.679 3.03001 38.6565 3.03087C37.2551 3.06023 35.8294 3.05246 34.4513 3.04642C33.9686 3.04383 33.4876 3.04124 33.0058 3.04037C32.979 3.04037 32.9514 3.0421 32.9229 3.04469C32.8029 3.05332 32.6578 3.06369 32.5067 2.95402L32.4618 2.92121V1.85479C32.4609 0.468878 31.9972 0.000863497 30.6243 0L6.1476 0.000863846C5.94382 0.000863846 5.74435 0.00345423 5.5492 0.0250416C4.88258 0.101029 4.37053 0.63467 4.33167 1.29438C4.29022 2.0059 4.69866 2.58445 5.37391 2.76751C5.59928 2.82795 5.82638 2.82363 6.06903 2.82709H10.2907C16.5165 2.82709 22.7431 2.82709 28.969 2.83054C29.0035 2.834 29.0493 2.82709 29.0898 2.8245C29.2349 2.81327 29.4171 2.79859 29.595 2.92466L29.6408 2.95748V13.2167C29.6416 14.4869 30.1407 14.9817 31.4213 14.9817H33.3797C36.3985 14.9834 39.4173 14.9834 42.436 14.9739C42.4378 14.9739 42.4404 14.9739 42.4421 14.9739C42.7884 14.9739 43.0146 15.087 43.2201 15.3633C43.708 16.0205 44.2477 16.7164 44.9186 17.5532C45.1086 17.7898 45.1923 18.0359 45.1915 18.3467C45.1846 19.8449 45.1846 21.3439 45.1837 22.8412C45.1837 23.6659 45.1837 24.4896 45.1828 25.3134C45.1828 25.3419 45.1846 25.3704 45.1871 25.4006C45.1949 25.5155 45.2053 25.6588 45.1077 25.803L45.0758 25.8514H42.1304L42.0932 25.7313C42.0768 25.6804 42.063 25.6364 42.0483 25.5923C41.1572 22.9051 39.0261 21.2921 36.3458 21.2748C36.3337 21.2748 36.3216 21.2748 36.3095 21.2748C33.6681 21.2748 31.3272 23.0165 30.6087 25.5198C30.506 25.8799 30.2651 25.8764 30.0716 25.8704L30.006 25.8695L28.1063 25.8686C26.0227 25.8695 23.9434 25.866 21.8632 25.8773C21.8607 25.8773 21.8581 25.8773 21.8546 25.8773C21.5006 25.8773 21.3382 25.7564 21.2139 25.4032C20.4307 23.1737 18.9014 21.8249 16.6693 21.3974C14.489 20.9769 12.5962 21.6297 11.0488 23.3317C10.4729 23.9655 10.0489 24.7608 9.75443 25.7598L9.73716 25.8177L9.63527 25.8453C9.60936 25.854 9.59036 25.8591 9.56532 25.8591L8.57748 25.8626C7.69844 25.8652 6.81681 25.8678 5.94123 25.8678C5.19689 25.8678 4.7237 26.1294 4.45256 26.6898C4.24273 27.1233 4.26 27.5974 4.49919 27.9894C4.76428 28.4229 5.26252 28.6905 5.83156 28.7035C7.03787 28.7329 8.09738 28.7294 9.07227 28.6966C9.09644 28.6957 9.11976 28.6957 9.14221 28.6957C9.59296 28.6957 9.81487 28.8606 9.97462 29.3053C10.6084 31.0686 12.0133 32.3941 13.8293 32.9433C15.653 33.4933 17.5656 33.166 19.0776 32.0444C20.1768 31.2292 20.9108 30.1628 21.321 28.7855L21.3434 28.7087L23.9469 28.7095C25.9346 28.7087 27.9224 28.7113 29.9119 28.7018C29.9179 28.7018 29.924 28.7018 29.93 28.7018C30.3065 28.7018 30.544 28.7907 30.7115 29.2389C31.5499 31.4857 33.1457 32.793 35.4547 33.1263C37.73 33.457 39.6271 32.6695 41.0959 30.7897C41.5829 30.1645 41.8696 29.4245 42.0976 28.7803L42.1235 28.7087H42.1995C42.5854 28.7087 42.9697 28.7052 43.3505 28.7026C44.2623 28.694 45.1224 28.688 45.9997 28.7208C47.0091 28.757 47.636 28.4393 47.9996 27.6906V17.0981C47.7353 16.5584 47.3554 16.0835 46.9867 15.6232C46.8261 15.422 46.6655 15.2209 46.5126 15.0136C46.327 14.7597 46.1353 14.5111 45.9418 14.2624ZM32.4903 12.1416V5.8571H37.8068C37.9726 5.85105 38.179 5.84933 38.3103 6.11183C39.0572 7.61863 39.8119 9.12198 40.5804 10.6495L41.329 12.1425H32.4903V12.1416ZM15.5485 30.3726C15.5209 30.3726 15.4924 30.3726 15.4639 30.3718C14.6263 30.3502 13.8474 30.0013 13.2697 29.3882C12.6895 28.7734 12.3855 27.9712 12.4131 27.1285C12.4684 25.417 13.907 24.0665 15.6348 24.1097C16.4759 24.1321 17.2574 24.4819 17.835 25.0932C18.4058 25.6951 18.7063 26.4791 18.683 27.3012C18.6338 29.0385 17.2643 30.3726 15.5485 30.3726ZM36.332 30.3735C36.3242 30.3735 36.3164 30.3735 36.3095 30.3735C35.4763 30.3735 34.6896 30.0462 34.0921 29.4513C33.4937 28.8546 33.1647 28.068 33.1673 27.2373C33.1716 25.5232 34.5713 24.1183 36.288 24.1062C37.1255 24.108 37.9269 24.4266 38.5305 25.0267C39.128 25.6208 39.457 26.4083 39.4561 27.2399C39.4535 28.9556 38.0521 30.3605 36.332 30.3735Z" fill="#50CF15"/>
<path d="M13.155 15.0205C13.6066 15.0248 14.0711 15.0248 14.5236 14.9963C15.0995 14.9609 15.5097 14.6371 15.71 14.0603C15.8594 13.6312 15.8024 13.1796 15.5546 12.8212C15.2895 12.4395 14.8483 12.2133 14.3423 12.2021C13.6195 12.1857 12.8838 12.1891 12.1723 12.1926C11.8614 12.1943 11.5514 12.196 11.2406 12.196H8.84179C6.44386 12.1969 4.04506 12.1969 1.64627 12.1934C1.64454 12.1934 1.64195 12.1934 1.64022 12.1934C1.06859 12.1934 0.686924 12.3325 0.402833 12.6442C-0.0107817 13.101 -0.10663 13.6044 0.118743 14.1415C0.364839 14.7243 0.831128 15.0205 1.50466 15.0205L8.83142 15.0214C10.1362 15.0214 11.44 15.0223 12.7448 15.0205H13.155Z" fill="#50CF15"/>
<path d="M4.07145 9.05121C7.19299 9.05467 10.3137 9.0538 13.4335 9.05294H16.1086L16.3357 9.05467C16.5378 9.05726 16.7459 9.05985 16.9471 9.0443C17.7199 8.98731 18.2846 8.35955 18.2613 7.58413C18.238 6.79662 17.6318 6.24485 16.7873 6.24053C15.2701 6.23276 13.7521 6.23449 12.2358 6.23621L10.3931 6.23708L8.56595 6.23621C7.04274 6.23535 5.5204 6.23362 3.99892 6.23967C3.23991 6.24226 2.69418 6.64119 2.54047 7.30609C2.43772 7.74733 2.5232 8.16786 2.77966 8.4908C3.06116 8.8457 3.53263 9.05035 4.07145 9.05121Z" fill="#50CF15"/>
<path d="M7.39838 21.008H8.35168C9.14609 21.0071 9.94051 21.0071 10.7358 21.0088C10.7375 21.0088 10.7392 21.0088 10.741 21.0088C11.165 21.0088 11.4905 20.9069 11.7634 20.6885C12.2124 20.3293 12.3928 19.7602 12.2331 19.2033C12.0682 18.6282 11.6148 18.2474 11.0501 18.2102C10.6218 18.1818 10.1823 18.1861 9.75659 18.1843L9.41378 18.1852L8.46825 18.1843C7.77918 18.1835 7.09097 18.1826 6.4019 18.1826C5.61958 18.1826 4.83725 18.1835 4.05492 18.1869C3.25878 18.1913 2.72341 18.5522 2.54898 19.2041C2.43155 19.6428 2.51185 20.0892 2.76831 20.4303C3.03772 20.7869 3.47465 20.9959 3.96771 21.0045C4.76299 21.0192 5.57295 21.0157 6.35527 21.0114C6.70326 21.0097 7.05125 21.008 7.39838 21.008Z" fill="#50CF15"/>
</svg>
