<svg width="47" height="48" viewBox="0 0 47 48" fill="none" xmlns="http://www.w3.org/2000/svg">
<path d="M24.8355 1.50514V4.96457C24.8385 4.96586 24.8364 4.965 24.8398 4.96629C25.4304 4.32386 26.4285 4.326 27.0174 4.94871L27.0379 4.97057C27.6011 5.56586 27.5762 6.50443 26.9835 7.07014C26.6192 7.41771 26.2579 7.76229 25.8958 8.10643C25.3888 8.58857 24.8878 9.07757 24.3697 9.54729C23.7619 10.0984 22.9258 10.1374 22.3399 9.60386C21.4811 8.82129 20.6347 8.02543 19.7719 7.21414C19.1758 6.65357 19.1432 5.71671 19.6999 5.11629L19.7282 5.08586C20.2815 4.48929 21.2132 4.45243 21.8119 5.00357L21.8244 5.01514V1.50514C21.8244 0.673714 22.4985 0 23.3295 0C24.1618 0 24.8355 0.674143 24.8355 1.50514Z" fill="#FF10BC"/>
<path d="M46.6658 24.7984C45.4997 22.5094 44.3306 20.2209 43.173 17.9271C42.9304 17.4471 42.5683 17.151 42.0613 16.9873C36.6377 15.2421 31.218 13.4846 25.7884 11.7553C25.407 11.6336 24.9964 11.6284 24.6111 11.7394C18.6171 13.47 12.6308 15.225 6.64798 16.9911C6.3287 17.085 5.99613 17.2787 5.77027 17.52C3.98956 19.4383 2.22598 21.3724 0.470984 23.3164C-0.322302 24.195 -0.0895872 25.3114 0.989127 25.7979C5.97384 28.0479 10.9624 30.2889 15.9506 32.5277C16.6551 32.8444 17.4861 32.6327 17.9516 32.0169C18.6621 31.0796 19.3603 30.1337 20.0661 29.193C20.1416 29.0919 20.2294 29.0019 20.3511 28.8591V44.2461C20.2303 44.2071 20.145 44.1853 20.0636 44.1536C16.2818 42.696 12.501 41.2346 8.71456 39.7903C8.42098 39.678 8.4197 39.5027 8.42098 39.2661C8.42356 37.455 8.42227 35.6426 8.42227 33.8319V33.3724C8.42227 32.958 8.25513 32.5839 7.98341 32.3121C7.7117 32.0404 7.33756 31.8733 6.92313 31.8733C6.10884 31.8733 5.44584 32.523 5.42527 33.3334V33.855C5.4227 36.1183 5.42056 38.3816 5.42784 40.6449C5.43041 41.421 5.85084 41.9074 6.56741 42.1817C8.97813 43.1019 11.385 44.0306 13.7923 44.9619C16.3808 45.9639 18.9686 46.9714 21.5558 47.9773C21.747 47.9859 21.9227 47.9931 22.1138 48.0004C24.003 47.4446 25.8896 46.8827 27.78 46.3333C32.4883 44.9623 37.1961 43.5986 41.9031 42.2297C42.927 41.9323 43.2647 41.4776 43.2656 40.416V38.043C43.2656 37.6273 43.0976 37.2519 42.8254 36.9801C42.5537 36.7084 42.1783 36.54 41.7626 36.54C40.9337 36.54 40.26 37.2116 40.26 38.0404C40.26 38.4231 40.2626 38.8046 40.2698 39.1847C40.2746 39.4749 40.1966 39.6017 39.8991 39.6879C34.5038 41.2444 29.1133 42.8164 23.7201 44.3824C23.6224 44.4103 23.5178 44.4129 23.397 44.43V28.434C23.4724 28.4169 23.4578 28.4207 23.5337 28.4049C23.5766 28.5073 23.6031 28.6243 23.6713 28.7057C24.6047 29.8294 25.5446 30.9471 26.4853 32.0657C27.0167 32.6983 27.57 32.8603 28.3547 32.5946C34.089 30.6493 39.8207 28.6959 45.5576 26.7553C46.1571 26.553 46.5214 26.1531 46.7336 25.5814V24.8503C46.7108 24.8336 46.6778 24.8216 46.6658 24.7984ZM16.2038 29.3469C12.1513 27.5259 8.1257 25.7173 4.05041 23.8843C4.14427 23.7634 4.21498 23.6563 4.30027 23.5624C5.23241 22.5386 6.1697 21.5199 7.09627 20.4926C7.25613 20.3169 7.38384 20.2354 7.63841 20.3353C11.5264 21.849 15.4178 23.3529 19.308 24.8593C19.3483 24.8751 19.3834 24.9043 19.476 24.9617C18.3758 26.4377 17.2958 27.8841 16.2038 29.3469ZM22.4186 22.5339C22.0967 22.6277 21.8203 22.6144 21.5044 22.491C18.354 21.2576 15.1963 20.0426 12.042 18.8211C11.9434 18.7834 11.8457 18.7419 11.6276 18.654C12.8048 18.309 13.8651 17.9983 14.9254 17.6889C18.216 16.7259 21.5044 15.7607 24.7976 14.8089C25.0011 14.7493 25.2523 14.7347 25.4507 14.7977C29.0486 15.9446 32.6413 17.1073 36.2357 18.2687C36.321 18.2957 36.4016 18.3347 36.5794 18.4054C36.0836 18.5554 35.6764 18.6831 35.2667 18.8027C30.984 20.0464 26.7 21.2846 22.4186 22.5339ZM40.7558 25.2077C36.7328 26.5766 32.7086 27.939 28.689 29.3211C28.326 29.4454 28.1284 29.3807 27.8893 29.0871C26.8898 27.8597 25.8626 26.6559 24.846 25.443C24.7496 25.3286 24.6608 25.2064 24.5327 25.0419C30.0343 23.4463 35.493 21.8631 40.998 20.2667C41.7111 21.6596 42.3994 23.0079 43.1113 24.3981C42.2991 24.6776 41.5286 24.9446 40.7558 25.2077ZM42.8533 31.8613C42.6193 31.6273 42.2953 31.4824 41.9378 31.4824H41.5821C40.8681 31.4824 40.2891 32.0614 40.2891 32.7754C40.2891 33.1324 40.434 33.4556 40.668 33.6896C40.902 33.9236 41.2251 34.0684 41.5821 34.0684H41.9378C42.6518 34.0684 43.2321 33.4894 43.2321 32.7754C43.2326 32.418 43.0873 32.0953 42.8533 31.8613Z" fill="#FF10BC"/>
</svg>
