<svg width="38" height="48" viewBox="0 0 38 48" fill="none" xmlns="http://www.w3.org/2000/svg">
<path fill-rule="evenodd" clip-rule="evenodd" d="M18.9909 2.83744e-06C13.4529 0.00428674 8.77631 4.836 9.39174 10.7966C9.02459 10.7966 8.66166 10.7954 8.30159 10.7942C7.51338 10.7917 6.7389 10.7891 5.96402 10.7991C4.03031 10.8249 2.32545 12.0309 1.6106 13.8343C1.30952 14.5945 1.27436 15.3889 1.23914 16.1847C1.23615 16.2521 1.23317 16.3195 1.23003 16.3869C1.13955 18.3349 1.04993 20.2827 0.960308 22.2306C0.870785 24.1763 0.781262 26.122 0.690884 28.068C0.6189 29.6211 0.544411 31.1742 0.469921 32.7274C0.305805 36.1493 0.141674 39.5714 0.00431069 42.9943C-0.108833 45.7989 2.0186 47.988 4.81974 47.9914C14.2663 48.0034 23.712 48.0034 33.1586 47.9914C35.9623 47.988 38.0503 45.8083 37.98 42.996C37.9543 41.9696 37.9045 40.9443 37.8547 39.9193C37.8415 39.6465 37.8282 39.3738 37.8155 39.1011L37.8092 38.9689C37.5919 34.3381 37.3745 29.7065 37.1529 25.0749C37.1171 24.3283 37.082 23.5817 37.0468 22.8352C36.9261 20.2707 36.8054 17.7064 36.66 15.1431C36.5812 13.7563 35.9186 12.642 34.83 11.79C33.9772 11.1223 33.0017 10.794 31.9175 10.7957C31.1796 10.7963 30.4416 10.7961 29.7022 10.7959C29.3319 10.7958 28.9613 10.7957 28.59 10.7957C29.2106 4.85143 24.5297 -0.00428488 18.9909 2.83744e-06ZM23.0149 44.7963C21.6743 44.7961 20.3339 44.796 18.9935 44.796C14.3546 44.796 9.71488 44.796 5.07688 44.7977C3.75517 44.7977 3.14317 44.1712 3.20403 42.8631C3.42949 38.0307 3.65661 33.1985 3.88375 28.3663C4.02101 25.4461 4.15827 22.5258 4.29517 19.6054C4.31571 19.1677 4.33407 18.73 4.35243 18.2923C4.38922 17.4153 4.42599 16.5386 4.48031 15.6626C4.54803 14.5629 5.16003 14.0074 6.24774 14.0049C8.79781 13.9982 11.348 13.9921 13.8983 13.986C17.3004 13.9778 20.7027 13.9696 24.1046 13.9603C26.2714 13.9544 28.4388 13.9447 30.6058 13.9351C30.9659 13.9335 31.326 13.9319 31.686 13.9303C32.7926 13.9251 33.4415 14.4917 33.4997 15.6043C33.6202 17.9183 33.7277 20.2327 33.8351 22.5469C33.8759 23.4267 33.9168 24.3065 33.9583 25.1863C34.2137 30.5923 34.4692 35.9991 34.7229 41.406C34.7477 41.9383 34.7666 42.4706 34.7837 43.0037C34.8189 44.1137 34.1709 44.7943 33.06 44.7952C29.7119 44.797 26.3633 44.7966 23.0149 44.7963ZM22.1469 4.062C24.6995 5.52515 25.584 7.88743 25.3517 10.782H12.6343C12.4003 8.172 13.1057 5.94429 15.2983 4.40314C17.4797 2.87057 19.8386 2.73857 22.1469 4.062ZM17.1578 30.7316C17.0476 30.8671 16.8474 30.8633 16.736 30.7291L16.7341 30.7271C16.4828 30.4276 16.2326 30.1273 15.9823 29.8269C15.5494 29.3074 15.1165 28.7878 14.6784 28.2726C14.0632 27.5495 13.1683 27.4551 12.5187 28.0286C11.871 28.6008 11.8047 29.5037 12.3973 30.2262C13.5594 31.6436 14.7303 33.0538 15.92 34.4474C16.6108 35.2572 17.7542 35.1622 18.3218 34.2593C20.1015 31.4285 21.8757 28.5943 23.65 25.76C24.3251 24.6816 25.0001 23.6032 25.6756 22.5249C25.8289 22.2809 25.9359 22.0073 25.9766 21.7202C26.0079 21.5012 25.9978 21.272 25.8114 21.1236C25.5942 20.9515 25.3495 20.9727 25.1117 21.1037C24.8658 21.2392 24.6661 21.4293 24.4897 21.6477C24.0598 22.1808 23.63 22.714 23.2001 23.2473C21.7438 25.0538 20.2872 26.8606 18.8299 28.6669C18.3702 29.2367 17.9092 29.8051 17.4505 30.3707C17.3528 30.4911 17.2552 30.6115 17.1578 30.7316Z" fill="#17DA94"/>
</svg>
