<svg width="48" height="48" viewBox="0 0 48 48" fill="none" xmlns="http://www.w3.org/2000/svg">
<path d="M45.1668 24.9047C44.8737 24.5168 44.7013 23.9737 44.6927 23.4909C44.6754 19.0083 44.6754 14.5256 44.684 10.0429V6.45678C44.6754 2.66374 42.0289 0.00862053 38.2359 0H6.39164C2.69344 0.00862053 0.00383135 2.6896 0.00383135 6.39643C-0.00478918 16.2066 0.00383135 26.0254 0.00383135 35.8528C0.00383135 36.2838 0.0124519 36.6717 0.0727956 37.0338C0.624509 40.1544 3.1417 42.2665 6.32268 42.2665C11.2019 42.2751 16.0811 42.2665 20.969 42.2837C21.3569 42.2837 21.9431 42.4216 22.2879 42.8182C26.0292 47.0164 30.6757 48.6801 36.098 47.7491C40.9772 46.9129 45.0116 43.6113 46.8909 38.9131C48.796 34.1632 48.1495 28.9305 45.1668 24.9047ZM19.469 37.9131L19.6845 38.7407H6.52957C4.60719 38.7407 3.50377 37.6286 3.50377 35.6976V6.53436C3.50377 4.63785 4.62443 3.49994 6.50371 3.49994H38.1583C40.0376 3.49994 41.1496 4.61198 41.1496 6.4654L41.1582 20.9306L40.21 20.491C34.2015 17.7066 28.7792 18.241 24.0896 22.0944C19.2793 26.0512 17.7276 31.3701 19.469 37.9131ZM41.0289 40.913C38.9686 43.0078 36.2445 44.1716 33.3567 44.1888H33.2791C30.3567 44.1888 27.6068 43.0682 25.5292 41.0165C23.4603 38.9734 22.3138 36.2579 22.2965 33.3615C22.2534 27.2064 27.0551 22.3444 33.2274 22.2927H33.3049C39.2703 22.2927 44.1409 27.1547 44.1927 33.1632C44.2099 36.0683 43.0892 38.8182 41.0289 40.913Z" fill="#FF3434"/>
<path d="M34.3319 12.7756C34.9181 12.3963 35.1509 11.6118 34.8923 10.8704C34.6423 10.1291 34.0044 9.68941 33.1768 9.68941C30.5734 9.68079 27.9614 9.68079 25.358 9.68079H11.5738C10.4876 9.68941 9.69448 10.4135 9.68586 11.4221C9.67723 11.9049 9.84964 12.3445 10.1772 12.6721C10.5134 13.0083 10.9962 13.198 11.522 13.198C17.9185 13.2152 25.4873 13.2238 33.1251 13.1893C33.4871 13.1807 33.9613 13.0256 34.3319 12.7756Z" fill="#FF3434"/>
<path d="M38.0648 36.6717C37.3553 35.9571 36.6424 35.2467 35.9304 34.5364L35.7071 34.314L34.6381 33.2451C35.7924 32.0916 36.914 30.971 38.0372 29.852C38.2269 29.6632 38.3726 29.4546 38.401 29.1822C38.445 28.7641 38.2346 28.3753 37.87 28.1908C37.4777 27.9926 37.0502 28.0564 36.7191 28.3857C36.1398 28.9615 35.5614 29.5391 34.9847 30.1158C34.4778 30.6227 33.9718 31.1296 33.464 31.6356C33.4476 31.652 33.433 31.6692 33.4166 31.6865L33.4132 31.6908L33.3425 31.7615L33.3408 31.7632L33.2494 31.8546L33.2252 31.8304L31.9192 30.5244L31.9184 30.5253C31.2253 29.8313 30.5305 29.1374 29.8382 28.4417C29.5796 28.1814 29.2839 28.0296 28.915 28.096C28.5288 28.165 28.2589 28.3883 28.1357 28.7676C28.0046 29.1736 28.1262 29.5158 28.4176 29.8081C29.0701 30.4606 29.7227 31.1132 30.3762 31.7658L31.6503 33.0399C31.7106 33.102 31.7718 33.1683 31.852 33.2528L31.3003 33.8054V33.8063C31.2167 33.8864 31.1348 33.9683 31.0529 34.0494C30.1641 34.9347 29.2753 35.82 28.3917 36.7105C28.059 37.0467 27.9943 37.4648 28.19 37.8596C28.3788 38.2381 28.7658 38.4424 29.2046 38.3932C29.4796 38.3631 29.6805 38.2062 29.8684 38.0182C30.9822 36.9002 32.0994 35.7847 33.2476 34.6373L34.7149 36.1045C35.3649 36.7553 36.0157 37.4053 36.6674 38.0545C37.1148 38.501 37.7243 38.5191 38.1277 38.1096C38.5243 37.707 38.5027 37.1131 38.0648 36.6717Z" fill="#FF3434"/>
</svg>
