<svg width="48" height="46" viewBox="0 0 48 46" fill="none" xmlns="http://www.w3.org/2000/svg">
<path d="M47.7439 8.23003C47.5397 7.94839 47.1091 7.60991 46.2194 7.59957C46.1023 7.59785 45.9851 7.59871 45.868 7.59871H9.93735C9.93649 7.59182 9.93563 7.58493 9.93563 7.57804L9.73151 5.21126C9.6273 3.99859 9.52308 2.78677 9.418 1.57496C9.33532 0.622392 8.74707 0.0246671 7.88321 0.0169157C5.52074 -0.00633873 3.43387 -0.00547737 1.50289 0.0186383C1.04211 0.0246672 0.633008 0.215009 0.351371 0.555212C0.0602603 0.906612 -0.0577342 1.38031 0.0266706 1.85574C0.161029 2.61452 0.780286 3.08994 1.64156 3.09597C2.89816 3.10458 4.17543 3.10286 5.4105 3.10114L6.34326 3.09942C6.37685 3.09942 6.42077 3.09856 6.45608 3.10028C6.45522 3.10803 6.45608 3.11578 6.45694 3.12439C6.48881 3.66183 6.54652 4.20357 6.6025 4.72636C6.62662 4.94857 6.64987 5.17164 6.67226 5.39385C6.79112 6.60222 6.90911 7.81059 7.02711 9.01809C7.29152 11.7156 7.55507 14.4131 7.82551 17.1106C7.96331 18.4869 8.10715 19.8624 8.25098 21.2379C8.50505 23.6684 8.76774 26.1816 8.99081 28.6551C9.31638 32.2647 11.9338 34.6935 15.5055 34.697C18.625 34.7004 21.798 34.7022 25.0708 34.7022C28.3436 34.7022 31.7155 34.7004 35.233 34.697C38.2164 34.6935 40.5376 33.0003 41.4428 30.1658C42.4238 27.0954 43.4108 23.9715 44.3668 20.9502L45.3676 17.785C46.191 15.1831 47.0419 12.4933 47.873 9.84492C48.1323 9.01551 47.9463 8.50908 47.7439 8.23003ZM44.3461 10.72C44.3427 10.732 44.3384 10.7441 44.3349 10.7553C42.3971 16.8798 40.4583 23.0035 38.5179 29.1271C37.9925 30.7859 36.8978 31.593 35.1727 31.5947C28.1421 31.6016 21.7248 31.6016 15.5554 31.5947C13.5426 31.5921 12.3162 30.4983 12.1017 28.5139C11.6263 24.1119 11.1578 19.635 10.7047 15.3054C10.5446 13.7766 10.3852 12.2487 10.2242 10.7191H44.3461V10.72Z" fill="#03A9F4"/>
<path d="M16.7288 36.3911C14.3379 36.3911 12.3862 38.3264 12.375 40.7061C12.3647 43.097 14.3508 45.0762 16.7503 45.0641C19.1292 45.0521 21.0808 43.0867 21.0713 40.713C21.061 38.323 19.1197 36.3903 16.7288 36.3911ZM14.7479 40.7207C14.7496 39.6088 15.6436 38.7389 16.7675 38.7553C17.8579 38.7717 18.7063 39.6502 18.6942 40.7517C18.6822 41.8395 17.7968 42.7086 16.709 42.6991C15.6229 42.6888 14.747 41.8051 14.7479 40.7207Z" fill="#03A9F4"/>
<path d="M32.5803 36.3928C30.1885 36.3695 28.2257 38.2953 28.211 40.6776C28.1964 43.0978 30.1368 45.0615 32.545 45.0632C34.9341 45.065 36.8754 43.1305 36.8832 40.7414C36.8901 38.3384 34.9875 36.416 32.5803 36.3928ZM32.563 42.699C31.4658 42.7094 30.5434 41.7861 30.5614 40.6966C30.5795 39.6122 31.4658 38.7518 32.5596 38.7561C33.6482 38.7604 34.5293 39.6389 34.5302 40.7207C34.5319 41.7973 33.6457 42.6878 32.563 42.699Z" fill="#03A9F4"/>
<path d="M26.8308 13.3193C22.3858 13.1212 18.6255 16.4242 18.4635 20.6694C18.2904 25.2074 21.5917 28.7964 26.1082 28.9789C30.3681 29.1512 33.9777 25.7242 34.1585 21.336C34.3265 17.2294 30.9184 13.501 26.8308 13.3193ZM26.3166 15.6568C29.3216 15.6654 31.7668 18.1079 31.7814 21.1129C31.7961 24.1549 29.363 26.601 26.3158 26.6079C23.2815 26.6139 20.8062 24.1567 20.8079 21.1388C20.8096 18.1303 23.3048 15.6481 26.3166 15.6568Z" fill="#03A9F4"/>
<path d="M29.0851 21.9079C28.9016 21.7882 28.7078 21.672 28.5209 21.5583C28.2229 21.3783 27.9146 21.1931 27.6226 20.9812C27.378 20.8038 27.1868 20.4507 27.1679 20.1415C27.1481 19.8254 27.1584 19.511 27.1679 19.207C27.1756 18.9719 27.1825 18.7488 27.1773 18.5257C27.1661 18.0589 26.8354 17.7092 26.391 17.6946C25.969 17.6799 25.6382 17.9909 25.5857 18.4224L25.5831 18.4198L25.5823 18.4465C25.5814 18.4577 25.578 18.468 25.5771 18.4792C25.5693 18.5981 25.5668 18.7178 25.565 18.8375L25.5065 20.2061H25.4901V20.2095C25.491 20.492 25.4918 20.7745 25.4884 21.057C25.4841 21.4153 25.6184 21.6668 25.913 21.8502L26.3255 22.1069C26.9577 22.5014 27.6114 22.9087 28.2625 23.2903C28.7027 23.5478 29.1669 23.4582 29.4175 23.0672C29.669 22.6771 29.5321 22.1999 29.0851 21.9079Z" fill="#03A9F4"/>
</svg>
