<?xml version="1.0" encoding="utf-8"?>
<!-- Generator: Adobe Illustrator 26.0.2, SVG Export Plug-In . SVG Version: 6.00 Build 0)  -->
<svg version="1.1" id="Layer_1" xmlns="http://www.w3.org/2000/svg" xmlns:xlink="http://www.w3.org/1999/xlink" x="0px" y="0px"
	 viewBox="0 0 16 18" style="enable-background:new 0 0 16 18;" xml:space="preserve">
<style type="text/css">
	.st0{opacity:0.4;fill:#0C1928;enable-background:new    ;}
	.st1{fill:#0C1928;}
</style>
<path class="st0" d="M12.971,4.856V6.18c-0.32-0.089-0.659-0.134-1.006-0.134H11.37V4.856c0-1.816-1.509-3.291-3.365-3.291
	c-1.856,0-3.365,1.467-3.375,3.273v1.207H4.045c-0.357,0-0.695,0.045-1.015,0.143V4.856C3.039,2.173,5.261,0,7.986,0
	C10.748,0,12.971,2.173,12.971,4.856z"/>
<path class="st1" d="M11.81,6.04H4.19c-2.12,0-3.84,1.68-3.84,3.76v4.44c0,2.08,1.72,3.76,3.84,3.76h7.62
	c2.12,0,3.84-1.68,3.84-3.76V9.8C15.65,7.72,13.93,6.04,11.81,6.04z M5.26,11.9c0.51,0.46,0.41,1.18-0.2,1.41
	c-0.32,0.13-0.61,0.04-0.87-0.18C4.13,13.08,4.07,13.02,4,12.95c-0.24,0.26-0.49,0.46-0.86,0.41c-0.2-0.03-0.36-0.11-0.49-0.25
	c-0.19-0.19-0.24-0.43-0.21-0.7c0.02-0.26,0.22-0.42,0.39-0.61c-0.08-0.1-0.16-0.19-0.23-0.28c-0.26-0.35-0.21-0.82,0.09-1.1
	c0.32-0.28,0.79-0.28,1.11,0.01c0.07,0.06,0.12,0.14,0.21,0.17c0.08-0.03,0.13-0.1,0.19-0.16c0.35-0.33,0.86-0.32,1.19,0.05
	c0.3,0.34,0.26,0.88-0.12,1.17C5.15,11.76,5.15,11.79,5.26,11.9z M9.25,11.9c0.51,0.46,0.41,1.18-0.2,1.41
	c-0.32,0.13-0.61,0.04-0.87-0.18c-0.06-0.05-0.12-0.11-0.19-0.18c-0.24,0.26-0.49,0.46-0.86,0.41c-0.2-0.03-0.36-0.11-0.49-0.25
	c-0.19-0.19-0.24-0.43-0.21-0.7c0.02-0.26,0.22-0.42,0.39-0.61c-0.08-0.1-0.16-0.19-0.23-0.28c-0.26-0.35-0.21-0.82,0.09-1.1
	c0.32-0.28,0.79-0.28,1.11,0.01C7.86,10.49,7.91,10.57,8,10.6c0.08-0.03,0.13-0.1,0.19-0.16c0.35-0.33,0.86-0.32,1.19,0.05
	c0.3,0.34,0.26,0.88-0.11,1.17C9.14,11.76,9.14,11.79,9.25,11.9z M13.25,11.9c0.5,0.46,0.4,1.18-0.21,1.41
	c-0.32,0.13-0.61,0.04-0.87-0.18c-0.06-0.05-0.12-0.11-0.19-0.18c-0.24,0.26-0.49,0.46-0.86,0.41c-0.19-0.03-0.36-0.11-0.49-0.25
	c-0.19-0.19-0.24-0.43-0.21-0.7c0.02-0.26,0.22-0.42,0.4-0.61c-0.09-0.1-0.17-0.19-0.24-0.28c-0.25-0.35-0.21-0.82,0.09-1.1
	c0.32-0.28,0.79-0.28,1.11,0.01c0.07,0.06,0.12,0.14,0.21,0.17c0.08-0.03,0.13-0.1,0.19-0.16c0.35-0.33,0.86-0.32,1.19,0.05
	c0.3,0.34,0.26,0.88-0.11,1.17C13.13,11.76,13.13,11.79,13.25,11.9z"/>
</svg>
