<svg width="48" height="48" viewBox="0 0 48 48" fill="none" xmlns="http://www.w3.org/2000/svg">
<path d="M45.1692 24.899C44.8813 24.5111 44.7011 23.9697 44.6985 23.486C44.683 19.003 44.683 14.5208 44.6839 10.0394V6.45473C44.683 2.65707 42.0311 0.00258636 38.2352 0.000862114L27.2319 0L22.3419 0.000862114L17.3054 0L6.39343 0.000862114C2.69147 0.00344849 0.00422116 2.69069 0.00249691 6.39007C-0.00181371 16.2088 -8.94835e-05 26.0276 0.00422114 35.848C0.00422114 36.2843 0.00939392 36.6748 0.0723291 37.0326C0.625813 40.1578 3.13805 42.2622 6.32274 42.2683C11.2032 42.2769 16.0854 42.2648 20.9677 42.2838C21.3616 42.2847 21.9462 42.4243 22.291 42.8149C26.0283 47.0177 30.6761 48.679 36.1014 47.7497C40.9776 46.9151 45.0132 43.6106 46.8978 38.9129C48.8031 34.1652 48.1565 28.926 45.1692 24.899ZM19.4667 37.9085L19.6891 38.743H14.1724H6.52965C4.60366 38.7422 3.49928 37.63 3.49928 35.6937V6.52801C3.49928 4.6322 4.62176 3.50023 6.5012 3.49937C17.0545 3.49764 27.6086 3.49764 38.1636 3.49937C40.037 3.50023 41.156 4.60806 41.1569 6.46335L41.1578 20.9298L40.2155 20.4919C34.2013 17.7003 28.7785 18.2383 24.0937 22.0945C19.2831 26.0526 17.7261 31.3736 19.4667 37.9085ZM41.0293 40.9165C38.9706 43.0071 36.2471 44.1701 33.359 44.1917C33.3323 44.1917 33.3055 44.1917 33.2788 44.1917C30.3553 44.1917 27.6069 43.0666 25.5309 41.0173C23.4609 38.9741 22.3108 36.2541 22.2936 33.3599C22.2565 27.2018 27.0586 22.342 33.2262 22.2946C33.2538 22.2946 33.2823 22.2937 33.3107 22.2937C39.2689 22.2937 44.1424 27.1526 44.1933 33.1642C44.2174 36.0661 43.0941 38.8189 41.0293 40.9165ZM34.897 10.8697C35.1496 11.6077 34.9186 12.3896 34.3366 12.7732C33.9616 13.0198 33.4866 13.181 33.1262 13.1828C25.4895 13.2181 17.92 13.2103 11.5248 13.1991C10.9911 13.1974 10.5101 13.0095 10.1721 12.6672C9.85141 12.343 9.67813 11.8991 9.68244 11.418C9.69192 10.4136 10.4877 9.68339 11.5748 9.68167C13.0792 9.67908 14.5836 9.67822 16.088 9.67822C17.1321 9.67822 18.1761 9.67908 19.2201 9.67908L22.3488 9.67994L25.3585 9.67908C27.9647 9.67822 30.5717 9.67736 33.1805 9.68253C34.0013 9.68339 34.6427 10.1274 34.897 10.8697ZM31.477 33.1522C31.483 32.6116 31.4813 32.0719 31.4804 31.5322L31.4778 30.0752C31.4761 29.5493 31.4752 29.0217 31.4796 28.4967C31.489 27.4389 32.2167 26.6535 33.2098 26.6293C33.2254 26.6285 33.24 26.6285 33.2547 26.6285C34.2047 26.6285 34.966 27.4087 34.9962 28.4243C35.0134 28.9864 35.0108 29.5502 35.0082 30.1132C35.0056 30.6848 35.0031 31.2572 35.0194 31.8271C35.0306 32.2237 35.2108 32.6659 35.4893 32.9806C35.7548 33.2806 36.0428 33.56 36.3316 33.8393C36.5126 34.0134 36.6937 34.1884 36.8678 34.3686C37.5989 35.1264 37.6162 36.1912 36.9084 36.9007C36.1997 37.6154 35.1358 37.6033 34.3789 36.8748C33.684 36.2058 33.0072 35.5196 32.3305 34.8333L32.021 34.5204C31.6485 34.1445 31.4701 33.6962 31.477 33.1522Z" fill="#FFD034"/>
</svg>
