<svg width="47" height="43" viewBox="0 0 47 43" fill="none" xmlns="http://www.w3.org/2000/svg">
<path d="M46.9937 33.8194V33.7925C46.9932 31.4281 46.9926 28.983 46.9801 26.579C46.9731 25.1906 46.594 23.9696 45.8533 22.9499C43.749 20.0525 41.8545 17.5225 40.0615 15.2156C39.2696 14.1968 38.1365 13.6178 36.6937 13.4947C35.809 13.4192 34.8975 13.4326 34.0165 13.446C33.6582 13.4513 33.2546 13.4571 32.8511 13.4562C32.6553 13.4557 32.4067 13.4305 32.2211 13.2397C32.0358 13.049 32.0154 12.8017 32.0185 12.6076C32.0381 11.325 32.0386 10.1881 32.0199 9.13165C31.9812 6.9357 30.6125 5.03991 28.5326 4.30198C27.6833 4.00065 26.8042 4.00582 25.8719 4.01125C25.6811 4.01215 25.484 4.01332 25.2902 4.01151L25.2818 4.01138L25.2683 4.02727C25.2504 4.04898 25.2322 4.07056 25.2138 4.09123C24.4954 4.89415 23.6425 5.84799 22.7642 6.83453L22.7367 6.86554L22.7778 6.86541C22.9664 6.86515 23.1531 6.86502 23.3393 6.86489L23.8739 6.86438C24.8057 6.86321 25.77 6.86205 26.7189 6.87045C28.2152 6.88376 29.1824 7.86124 29.1829 9.36062C29.1841 12.1893 29.1843 15.0179 29.1848 17.8465L29.185 19.0587C29.1855 24.1362 29.1861 29.8912 29.1911 35.5451C29.1912 35.6721 29.1915 35.9693 28.9821 36.1802C28.7972 36.366 28.5527 36.3902 28.3604 36.3903C24.9547 36.3787 21.416 36.3785 17.8424 36.3899H17.8374C17.2572 36.39 17.0264 36.052 16.8902 35.7578C15.9635 33.7567 14.4225 32.7085 12.31 32.6426C12.2392 32.6404 12.1694 32.6393 12.0999 32.6393C10.1732 32.6393 8.70422 33.4945 7.84339 35.1214C7.25187 36.2398 6.50181 36.44 5.48155 36.3983C3.72954 36.3275 2.84117 35.4252 2.84105 33.7165L2.84079 30.9062C2.84002 26.569 2.83938 22.0842 2.84963 17.6742C2.85001 17.4594 2.80301 17.353 2.64024 17.2003C2.04463 16.6414 1.44735 16.0663 0.869922 15.5102L0.86544 15.5061C0.587546 15.2385 0.309525 14.9707 0.0309909 14.7039L0 14.6743V34.7762L0.00320155 34.7808C0.112054 34.9443 0.13216 35.1192 0.144582 35.2251C0.148167 35.2562 0.151497 35.2828 0.154314 35.2945C0.658877 37.1461 1.78364 38.3595 3.59277 39.004C4.36075 39.2777 5.16856 39.2636 6.02261 39.2486C6.18038 39.2459 6.33789 39.2432 6.49528 39.2423H6.50463C6.96207 39.2423 7.25571 39.4356 7.45664 39.8691C8.41685 41.9387 9.99764 42.9921 12.1556 43H12.1797C14.3438 43 15.9315 41.9467 16.8987 39.8695C17.1003 39.4362 17.3947 39.243 17.8531 39.243H17.8578C21.3704 39.253 25.0035 39.2531 28.6612 39.2434C29.1299 39.2434 29.4268 39.4339 29.6238 39.8608C30.5846 41.9438 32.1769 42.9999 34.3574 42.9999C34.3583 42.9999 34.3594 42.9999 34.3601 42.9999C36.5193 42.9977 38.1014 41.9472 39.0625 39.8776C39.2688 39.433 39.5659 39.2432 40.0559 39.2432H40.0656C41.3237 39.2496 42.6407 39.2499 43.8024 39.2501C44.8445 39.2504 45.9221 39.2507 46.9817 39.2547L47 39.2548V39.2362C46.9946 37.4294 46.9941 35.5941 46.9937 33.8194ZM44.1586 35.546C44.1596 35.7444 44.1364 35.9962 43.9469 36.1851C43.7617 36.3696 43.5201 36.3909 43.3543 36.3909C43.342 36.3909 43.3301 36.3908 43.3182 36.3906C42.7746 36.381 42.2248 36.3761 41.673 36.3761C41.1212 36.3761 40.5673 36.381 40.0154 36.3906C40.0066 36.3907 39.9977 36.3908 39.989 36.3908C39.4293 36.3908 39.2045 36.0702 39.0588 35.7554C38.1305 33.748 36.6001 32.7247 34.3804 32.6266C33.8503 32.6036 33.3974 32.6663 32.9967 32.8191C32.8787 32.8641 32.565 32.984 32.29 32.7892C32.01 32.591 32.0156 32.2327 32.0174 32.1148C32.037 30.8012 32.0374 29.4479 32.0182 27.9773C32.0159 27.8071 32.0343 27.5591 32.2204 27.3702C32.4251 27.1624 32.7095 27.1629 32.848 27.1635C34.1663 27.1719 35.5003 27.171 36.7905 27.1699C37.6597 27.1692 38.5294 27.1694 39.3989 27.1701C40.6077 27.1712 41.9779 27.1728 43.3144 27.1628C43.4398 27.1619 43.7379 27.1607 43.9488 27.373C44.1395 27.5651 44.1602 27.8255 44.1592 28.0046C44.1456 30.4358 44.1454 32.9026 44.1586 35.546ZM32.0201 17.141C32.0194 17.0036 32.0179 16.7179 32.2273 16.5094C32.4162 16.3209 32.6611 16.3029 32.8326 16.3077C33.6551 16.3228 34.5094 16.3198 35.2628 16.3171C35.525 16.3162 35.7873 16.3153 36.0533 16.3151C36.9374 16.3151 37.6515 16.6731 38.176 17.3791C39.0748 18.5885 39.9931 19.8162 40.8812 21.0034L40.936 21.0765C41.478 21.8009 42.0199 22.5254 42.561 23.2504L42.5775 23.2725C42.6901 23.4214 42.8995 23.6989 42.7418 24.0008C42.6124 24.2484 42.3757 24.3505 42.042 24.3036L42.0333 24.3023C42.0229 24.3007 42.0129 24.2992 42.0019 24.2985C40.8775 24.3023 39.7276 24.302 38.6153 24.302L37.4262 24.3019C37.0318 24.3019 36.6374 24.3014 36.2428 24.3007H36.2191C35.1289 24.2992 34.0021 24.2978 32.8956 24.3087C32.7378 24.3096 32.4439 24.3138 32.2295 24.0979C32.0359 23.9025 32.0155 23.6379 32.0171 23.4558C32.0363 21.2108 32.0295 19.0037 32.0201 17.141ZM34.3478 40.1522C33.7269 40.1522 33.1436 39.9089 32.705 39.4672C32.2672 39.0262 32.0267 38.4408 32.0279 37.8187C32.0291 37.1957 32.2769 36.6065 32.726 36.1597C33.166 35.722 33.7351 35.4823 34.3324 35.4823C34.3442 35.4823 34.356 35.4825 34.3676 35.4826C35.6215 35.4981 36.6525 36.5368 36.6658 37.7979C36.6723 38.421 36.4366 39.0094 36.0019 39.4543C35.5647 39.9019 34.9807 40.1497 34.3574 40.1522H34.3478ZM13.8285 39.458C13.3901 39.9046 12.8053 40.1511 12.178 40.152C11.5555 40.152 10.971 39.9074 10.532 39.4631C10.095 39.0208 9.85574 38.4344 9.85869 37.8121C9.86151 37.1883 10.1115 36.5992 10.5629 36.1535C11.0016 35.7198 11.5724 35.4822 12.1733 35.4822C12.1839 35.4822 12.1947 35.4823 12.2054 35.4825C13.4589 35.5033 14.4867 36.5448 14.4966 37.8043C14.5016 38.4268 14.2643 39.0142 13.8285 39.458ZM0.231407 8.41143L0.217192 8.39786L0.231535 8.38442C0.392637 8.23299 0.53581 8.06902 0.674244 7.91034L0.677446 7.90686C0.785145 7.78333 0.896431 7.65567 1.01066 7.54274C1.41943 7.13934 1.80375 6.73168 2.15284 6.33099L2.16539 6.31652L2.17935 6.32996C3.02904 7.15458 3.91074 8.00196 4.68846 8.7497C5.5329 9.56115 6.48977 10.4809 7.41489 11.3802C7.59354 11.5537 7.79447 11.713 8.07428 11.7017C8.35755 11.691 8.55771 11.5044 8.70063 11.3431C10.2868 9.55107 11.8947 7.74327 13.4498 5.99517L13.4593 5.98444C15.1936 4.03477 16.9869 2.0188 18.7448 0.0302352L18.7719 0L18.8032 0.0298478C19.4687 0.675777 20.1639 1.29212 20.8771 1.91944L20.8912 1.93184L20.8788 1.9458C16.5128 6.8353 12.2687 11.6058 8.26445 16.1249L8.2519 16.1391L8.23833 16.1259C5.50934 13.4913 2.82619 10.9088 0.231407 8.41143ZM24.0387 21.651H11.4935C10.9746 21.651 10.5539 21.2265 10.5539 20.703V20.4259C10.5539 19.9024 10.9746 19.4779 11.4935 19.4779H24.0387C24.5576 19.4779 24.9783 19.9024 24.9783 20.4259V20.703C24.9783 21.2265 24.5576 21.651 24.0387 21.651ZM15.496 26.5205H9.13937C8.62046 26.5205 8.19978 26.096 8.19978 25.5724V25.2954C8.19978 24.7718 8.62046 24.3474 9.13937 24.3474H15.496C16.0149 24.3474 16.4355 24.7718 16.4355 25.2954V25.5724C16.4355 26.096 16.0149 26.5205 15.496 26.5205ZM24.0387 26.5205H19.1538C18.6349 26.5205 18.2142 26.096 18.2142 25.5724V25.2954C18.2142 24.7718 18.6349 24.3474 19.1538 24.3474H24.0387C24.5576 24.3474 24.9783 24.7718 24.9783 25.2954V25.5724C24.9783 26.096 24.5576 26.5205 24.0387 26.5205Z" fill="#17DA94"/>
</svg>
