<svg xmlns="http://www.w3.org/2000/svg" width="106.554" height="104.324" viewBox="0 0 106.554 104.324">
  <path id="Path_18143" data-name="Path 18143" d="M5862.389,1060.433l-.58.017c-.378.013-.739.033-1.069.074a3.72,3.72,0,0,0-.468.083,2.85,2.85,0,0,0-.408.146,3.406,3.406,0,0,1-.888-.05l-.887.109c-.3.038-.591.1-.888.152l-.892.161-.447.081c-.149.026-.3.053-.448.09l-1.806.41c-.305.06-.607.151-.914.23l-.923.24c-2.476.66-5.062,1.427-7.929,2.309-.5.037-.988.067-1.481.1-.249.01-.488.043-.732.067l-.735.08-.745.085-.378.046c-.125.018-.25.042-.376.064-.5.09-1.019.19-1.554.305-.473.03-.924.086-1.392.146s-.949.134-1.462.237a13.828,13.828,0,0,0-1.626.485c-.292.106-.6.221-.916.359s-.637.311-.979.494q-.485.4-.915.788c-.281.269-.539.545-.784.811a14.254,14.254,0,0,0-1.279,1.562c-.361.513-.673,1-.953,1.451s-.5.9-.71,1.3a5.107,5.107,0,0,0-.5.591,2.5,2.5,0,0,0-.284.5,3.393,3.393,0,0,0-.2.722l-.643.775-.313.375-.292.384c-.385.509-.766,1-1.147,1.49-.359.509-.723,1.015-1.1,1.53-.094.13-.193.256-.285.391l-.274.409-.572.838-.3.42-.148.2c-.045.07-.092.139-.138.208q-.275.412-.554.8t-.56.747c-.1.119-.181.244-.269.366l-.264.362c-.35.478-.714.929-1.062,1.381s-.67.911-1.009,1.364-.652.919-.967,1.4l-.469.726-.233.372c-.073.127-.142.257-.213.388-.279.523-.554,1.067-.821,1.641a4.781,4.781,0,0,0-.186.442l-.172.458q-.169.464-.329.955a2.719,2.719,0,0,0-.4.62c.111.214-.109.716-.308,1.227s-.374,1.026-.163,1.243a9.324,9.324,0,0,0,1-1.817c.158-.383.347-.778.514-1.18s.322-.808.452-1.2a2.731,2.731,0,0,0,.586-.939c.171-.393.334-.841.551-1.251a5.138,5.138,0,0,1,.464-.716c.166-.224.335-.437.5-.644.28-.343.538-.673.784-1a46.317,46.317,0,0,0-5.569,12.564.651.651,0,0,0-.774-.286,7.592,7.592,0,0,1-.4.673c-.135.208-.289.408-.414.63a7.953,7.953,0,0,0-.791,1.758c-.053-.355-.133-.039-.269-.035-.036.192-.082.409-.1.63s-.047.443-.076.642c-.056.4-.129.708-.256.737.235-1.954-.107-2.26.03-3.765a3.08,3.08,0,0,0-.277-.949,1.833,1.833,0,0,0-.4-.5,1.592,1.592,0,0,1-.66-1.134c.083-.241.141-.378.184-.528a2.3,2.3,0,0,0,.057-.248c.02-.094.039-.206.058-.35-.274-.4-.561.29-.545-.732a1.445,1.445,0,0,0-.334.59,8.722,8.722,0,0,0-.231.9,3.71,3.71,0,0,0-.963,1.6,12.416,12.416,0,0,0-.41,1.24c-.129.436-.26.881-.385,1.307l-.071.479q-.028.237-.054.471-.057.466-.111.914t-.119.88c-.021.144-.041.287-.061.428s-.032.284-.047.424c-.059.56-.122,1.1-.186,1.639-.03.267-.066.531-.092.794s-.04.524-.06.783c-.039.519-.076,1.034-.108,1.549-.008.129-.018.258-.022.386l0,.386q0,.387,0,.777c0,.52.013,1.045.042,1.58.047.533.106,1.076.18,1.633-.162.081-.192.533-.148,1.071a9.3,9.3,0,0,0,.342,1.578c-.076.392-.406.209-.357.891.236.536.2-.223.344-.268.106.364.289.965.424,1.55a6.534,6.534,0,0,1,.223,1.447,21.563,21.563,0,0,1,.882,2.582c.167.492.345.992.524,1.468.09.238.182.469.274.69a5.712,5.712,0,0,0,.294.621,6.253,6.253,0,0,0,.167,1.251,10.38,10.38,0,0,0,.54,1.738c.188-.049.416.192.637.4.223.431.42.842.6,1.237s.374.76.538,1.124.319.716.465,1.064c.037.087.073.173.11.26s.079.169.117.253q.119.253.234.5c.156.335.311.669.474,1.007s.328.682.53,1.018.408.687.639,1.044q.174.267.362.543l.195.278.216.275a15.585,15.585,0,0,0,.925,1.656c.188.314.414.625.646.946l.723.983c.123.231.245.472.386.71s.295.475.452.718c.316.486.653.991,1.019,1.5a32.122,32.122,0,0,0,2.559,3,35.142,35.142,0,0,0,3.034,2.807,33.473,33.473,0,0,0,3.285,2.328,4.661,4.661,0,0,0,.811.948,10.656,10.656,0,0,0,1.132.849c.407.275.831.543,1.241.813.422.252.832.5,1.2.766q.437.312.87.633l.217.161.222.151.446.3c.6.4,1.189.815,1.806,1.193s1.26.711,1.915,1.03c.165.078.328.16.5.23s.34.134.512.2c.343.127.692.245,1.046.351.314.13.164-.1.442.008.246.107.5.226.769.327s.55.2.835.3c.571.2,1.169.4,1.776.6l1.854.516.915.259.9.22c.419.106.832.223,1.242.343l.614.184.62.156c.413.1.829.2,1.247.29.21.044.42.085.632.123.106.018.212.037.319.053l.324.033a21.072,21.072,0,0,0,2.679.1,9.512,9.512,0,0,0,2.086-.346,5.879,5.879,0,0,0,.588.033c.2-.006.4-.019.606-.035.409-.034.823-.085,1.237-.128a9.2,9.2,0,0,1,2.433-.029c.3-.066.234-.227.8-.223a1.74,1.74,0,0,1,.608.093c-.025-.2-.229-.143-.012-.326-.278.046-.522.056-.744.075l-.62.048a10.383,10.383,0,0,0-1.241.175c-.136-.008-.232-.026-.346-.042a2.436,2.436,0,0,0-.457-.032c-1.1.117-2.3.272-3.59.292l-.989.025-.508.007-.515-.02c-.692-.03-1.407-.073-2.145-.132-.707-.078-1.413-.206-2.109-.334l-.519-.1c-.172-.033-.343-.067-.511-.111l-.992-.248-.954-.233c-.31-.075-.615-.135-.9-.215a13.782,13.782,0,0,0-1.62-.327c-.443-.157-.2-.287-.5-.439a3.122,3.122,0,0,1-.392-.069c-.125-.033-.248-.071-.37-.113-.244-.083-.481-.182-.723-.287a16.309,16.309,0,0,0-1.59-.631c-.837-.3-1.635-.349-2.581-.73-.941-.426-1.676-.842-2.442-1.276-.378-.227-.757-.474-1.177-.726s-.876-.516-1.393-.811a8.2,8.2,0,0,0-1.622-1.278l-.428-.293c-.131-.094-.245-.191-.342-.276-.192-.172-.307-.313-.287-.408a2.3,2.3,0,0,1,.793.547,2.311,2.311,0,0,0,.917.545c-.315-.257-.688-.531-.749-.713a15.531,15.531,0,0,0,2.51.7c.4.076.811.16,1.267.291.229.065.469.141.725.233q.192.069.4.15c.137.054.277.115.429.169.475.241.921.457,1.343.65q.316.145.614.274l.294.125c.1.039.2.072.291.106.765.27,1.44.468,2.055.619a42.456,42.456,0,0,0,11.124,3.234,45.288,45.288,0,0,0,6.033.491l1.449.007c.239.006.476-.015.709-.024l.7-.036,1.354-.077c.442-.041.873-.094,1.292-.142.417.016.818.024,1.216.023.2,0,.4-.014.595-.027s.4-.03.6-.049c.4-.037.818-.085,1.256-.144l.333-.046.341-.067.716-.15a5.673,5.673,0,0,0,1.039.04c.193-.01.4-.017.6-.046s.422-.064.643-.1a21.914,21.914,0,0,0,2.8-.687l1.405-.431c.455-.155.894-.312,1.31-.447s.809-.255,1.167-.348a7.374,7.374,0,0,1,.954-.23,3.129,3.129,0,0,1,.944-.632c.206-.1.438-.191.67-.3s.48-.2.729-.3c.5-.188,1-.354,1.458-.482a8.962,8.962,0,0,1,1.1-.3,2.075,2.075,0,0,1,1.026-.754c.258-.113.525-.248.794-.359s.529-.218.757-.305c.042.068-.649.542.077.144.349-.168.308-.248.467-.373.186-.032.392-.082.58-.119a1.033,1.033,0,0,1,.465-.032c.649-.342.68-.513,1.327-.855a1.532,1.532,0,0,1-.537.638,4.749,4.749,0,0,1-1.624.75c.087.107.417-.031-.068.283-.4-.172-1.084.674-1.674.646a2.115,2.115,0,0,0,.647-.468c-.331.2-.686.436-1.05.629l-1,.569c.189-.092.466-.192.2-.035a36.365,36.365,0,0,0,8.847-4.785,49.99,49.99,0,0,0,7.423-6.722,8.772,8.772,0,0,0,1.376-1.172c.078-.1.156-.193.23-.29l.211-.288.4-.54c.251-.344.473-.659.656-.947.09-.144.173-.279.24-.412a3.368,3.368,0,0,0,.159-.384,1.391,1.391,0,0,0,.08-.654l-.521.7c-.171.23-.355.447-.531.672l-1.106,1.388a42.84,42.84,0,0,1-3.139,3.343c-.657.462-1.256.714-1.592.6.132-.136.267-.271.4-.4l.205-.2.2-.208c.268-.276.542-.549.818-.82l.84-.808.814-.834.812-.831c.137-.135.26-.284.386-.427l.374-.433q.371-.433.721-.867c.115-.146.232-.288.341-.437s.208-.3.308-.452c.231-.347.271-.528.5-.844l.507-.684c.163-.212.3-.424.438-.618.276-.39.53-.736.773-1.06l.358-.473c.119-.154.222-.314.332-.47.218-.314.436-.63.664-.972l.331-.5c.109-.168.222-.336.319-.513q.3-.525.6-1.061t.6-1.078l.537-1.114.535-1.115c.093-.184.166-.376.248-.564s.16-.377.24-.565c.316-.753.66-1.488.936-2.234.129-.326.313-.63.47-.952a3.594,3.594,0,0,0,.207-.5,1.8,1.8,0,0,0,.1-.556c-.076.2-.173.4-.261.6l-.264.609c-.173.406-.339.813-.494,1.207l-.115.293-.122.283c-.08.187-.155.37-.227.546-.142.354-.266.686-.365.985-.109.2-.224.413-.342.644s-.265.467-.4.719c-.277.5-.571,1.05-.863,1.608l-.944,1.639c-.156.267-.3.536-.453.785s-.305.489-.448.718c-.326.426-.632.843-.924,1.254s-.608.794-.9,1.189l-.429.591c-.14.2-.277.4-.43.585l-.886,1.164-.448.6c-.152.2-.319.39-.482.589l-1.015,1.215c-.172.212-.363.413-.557.618l-.6.627c-.41.423-.829.871-1.316,1.3-.391-.021-.791.452-1.427,1.023-.175-.272-.734.06-1.467.664-.341.414.4-.055.037.332-.474.292-.926.554-1.144.425.2-.154.391-.347.574-.5a2.458,2.458,0,0,1,.461-.337c-.3-.078-1.145.717-1.351.464.179-.15.34-.319.506-.48l.488-.486c.321-.324.638-.644.944-.968l.875-1,.432-.5c.144-.166.291-.326.424-.5.273-.342.546-.68.823-1.017l.418-.5c.07-.084.142-.165.21-.251l.2-.26q.405-.517.833-1.029.215-.256.436-.51c.148-.17.285-.351.431-.525a10.258,10.258,0,0,0,1.18-.751c.053-.448-.866.554-1.154.536.13-.243.291-.509.465-.784.088-.137.177-.277.27-.419s.185-.282.268-.429a13.232,13.232,0,0,0,.841-1.6,1.407,1.407,0,0,1,.256-.112.827.827,0,0,0,.332-.389q.36-.542.678-1.052l.312-.5c.1-.166.2-.327.285-.5.349-.665.66-1.3.953-1.908.077-.151.139-.308.2-.463s.127-.309.189-.462l.371-.913.185-.455.093-.227.083-.233c.111-.311.224-.623.343-.939l.272-.713c.089-.237.191-.467.267-.707.163-.474.329-.943.5-1.41l.255-.7c.083-.234.15-.472.227-.708q.226-.71.452-1.425l.113-.359c.038-.12.065-.243.1-.365q.1-.367.19-.738c.126-.5.256-1,.375-1.508q.148-.775.286-1.579.066-.4.135-.814c.039-.276.061-.556.09-.839.082-.284.257.083.295-.513.059-.337.116-.692.173-1.059s.08-.75.122-1.135c.073-.771.171-1.556.214-2.308.03-.375.065-.741.108-1.09s.1-.682.135-.992a5.028,5.028,0,0,1,.417-1.53c-.017-.294-.007-.533-.007-.739a5.153,5.153,0,0,1,.032-.539c.035-.32.088-.592.1-.979-.03-.173-.061-.344-.093-.525s-.057-.373-.089-.59a2.93,2.93,0,0,0,0-1.115c-.031-.242-.062-.5-.093-.758-.015-.129-.03-.258-.044-.384s-.035-.249-.048-.367a12.071,12.071,0,0,1-.05-1.5c0-.245.011-.493,0-.747s-.038-.513-.074-.787a10.77,10.77,0,0,0-.457-2.139c-.177-.522-.351-.909-.518-1.32-.051-.127-.1-.262-.156-.4s-.117-.283-.177-.429c-.122-.292-.247-.594-.374-.881a4.356,4.356,0,0,0-.8-1.358c.011.165.032.332.037.5s.007.327,0,.472c.274.548.617,1.126.945,1.775a12.4,12.4,0,0,1,.786,2.2,8.06,8.06,0,0,1,.126,1.4,5.438,5.438,0,0,0,.218,1.4l-.16.028c.135.7.239,1.365.318,1.993.009.078.018.157.027.234s.01.156.015.232q.012.231.024.456c.014.3.022.593.027.88s.006.568,0,.843-.032.549-.051.817c-.04.537-.087,1.059-.136,1.577s-.143,1.035-.207,1.557-.118,1.054-.207,1.6-.143,1.12-.193,1.722c-.006.075-.012.151-.018.227s-.018.153-.027.23c-.017.154-.034.311-.05.47-.032.318-.058.646-.08.986-.048.172-.1.342-.145.511-.024.085-.048.168-.073.251l-.085.246q-.172.489-.349.948a12.985,12.985,0,0,1-.746,1.684c.05-.229.1-.438.126-.637s.045-.383.061-.558c.03-.35.042-.661.053-.97s.026-.615.041-.957.032-.718.085-1.166c-.046-.575-.054-1.171-.1-1.786s-.039-1.247-.052-1.893c-.033-.647-.052-1.307-.062-1.977l0-.252c0-.084-.011-.168-.015-.252-.01-.169-.019-.337-.029-.507-.017-.339-.034-.68-.05-1.021a36.578,36.578,0,0,0-1.239-8,20.786,20.786,0,0,0-.638-2.7c-.132-.43-.269-.855-.409-1.276s-.322-.824-.486-1.233l-.25-.611c-.085-.2-.162-.409-.261-.607l-.566-1.2-.283-.608c-.093-.2-.205-.4-.307-.6q-.311-.605-.618-1.231a3.551,3.551,0,0,0-.475-1.448c-.142-.3-.3-.618-.456-.933s-.332-.609-.47-.889c-.215-.294-.262.1-.551-.5-.169-.287-.3-.554-.418-.789a6.852,6.852,0,0,1-.3-.652,6.751,6.751,0,0,1-.32-1.08c-.038-.165-.067-.328-.106-.489s-.087-.319-.144-.485a5.444,5.444,0,0,0-.519-1.113,4.268,4.268,0,0,0-.417-.536c-.178-.19-.368-.389-.515-.574-.209-.265-.5-.67-.778-1.062-.136-.2-.288-.38-.42-.543s-.254-.3-.348-.4c-.344-.356-.691-.7-1.05-1.023s-.748-.621-1.125-.931l-.565-.472c-.188-.16-.392-.307-.587-.467-.394-.316-.788-.648-1.179-1.011a51.551,51.551,0,0,0-7.949-5.849,21.906,21.906,0,0,0-1.949-1.227c-.368-.195-.76-.379-1.157-.572s-.805-.389-1.225-.574l-1.284-.529c-.432-.174-.856-.374-1.3-.528s-.868-.333-1.292-.508q-.317-.131-.628-.266l-.624-.246c-.343-.058-.706-.137-1.084-.229s-.77-.209-1.183-.3-.83-.2-1.256-.308l-.641-.163c-.213-.059-.434-.092-.65-.138-.434-.086-.869-.17-1.295-.246l-.634-.108c-.209-.026-.418-.045-.623-.063-.409-.036-.8-.059-1.176-.066a5.816,5.816,0,0,0-1.051.053c-.471-.028-.118-.223-.7-.23-.392.03-.793.035-1.191.031C5862.784,1060.419,5862.585,1060.428,5862.389,1060.433ZM5820.82,1082.5l.276-.457c.047-.078.093-.156.14-.235l.156-.237c.213-.322.45-.677.729-1.1.146-.213.285-.431.434-.641l.46-.618.9-1.222c.312-.387.615-.77.905-1.146l.423-.557c.14-.181.286-.351.421-.524a10.349,10.349,0,0,0,2.1-3.447,4.026,4.026,0,0,0,1.136-1.466c.119-.242.226-.489.362-.736a4.173,4.173,0,0,1,.539-.733c.361-.284.608-.491.8-.659s.32-.3.462-.413a10.025,10.025,0,0,1,1.34-.933c.231-.06.455-.122.682-.169s.455-.086.677-.125c.446-.077.878-.144,1.307-.206s.858-.1,1.286-.141l1.285-.125.323-.035.331-.024.67-.056c.45-.041.908-.092,1.38-.158.479-.048.974-.1,1.486-.181q.385-.057.784-.128c.269-.041.548-.077.831-.123.493-.2.979-.4,1.425-.532a4.184,4.184,0,0,1,1.187-.176c-.54.277-1.16.528-1.814.838q-.494.222-1.029.44l-.269.109c-.09.037-.179.081-.269.121l-.548.246c-.37.164-.751.328-1.14.491s-.768.365-1.162.547l-.594.276-.3.138-.294.153-1.184.616a29.55,29.55,0,0,0-6.381,4.405,46.83,46.83,0,0,0-11.49,10.855C5820.1,1083.608,5820.483,1083.054,5820.82,1082.5Zm-2.88,4.1c.217-.321.451-.592.692-.892.042-.049.085-.1.128-.15q-.5.714-.98,1.448C5817.856,1086.833,5817.9,1086.663,5817.94,1086.6Zm-7.583,16.869a.925.925,0,0,1,.211-.422c.168-.176.353-.123.389.268-.024.11-.054.152-.079.143s-.043-.067-.03-.156c-.072.02-.082.318-.11.527-.053-.03-.05-.2-.046-.366s.021-.335-.033-.367a5.019,5.019,0,0,0-.333,1.052A1.964,1.964,0,0,1,5810.357,1103.471Zm-1.72,10.31c-.037-.172-.071-.35-.1-.525s-.037-.349-.051-.509a7.186,7.186,0,0,1-.029-.736c.023-.589.222-1.577.438-.953a7.273,7.273,0,0,1,.117,1.795,10.072,10.072,0,0,0,.06,1.122,5.06,5.06,0,0,0,.176.958C5809,1115.048,5808.787,1114.468,5808.637,1113.781Zm2.706,9.153c-.017-.079-.035-.156-.051-.231s-.024-.151-.037-.225c-.023-.147-.045-.291-.069-.437-.046-.291-.094-.588-.159-.932s-.158-.732-.237-1.219a.172.172,0,0,1,.083-.036q.308,1.9.767,3.753a1.6,1.6,0,0,1-.027.418C5811.5,1123.6,5811.414,1123.25,5811.343,1122.934Zm.219,2.857c.094-.175.229.311.332.278-.02.266.155.8.06.964C5811.692,1126.441,5811.785,1126.333,5811.562,1125.791Zm.582,1.766.152-.059c.343.694.958,1.943.707,2.12A8.424,8.424,0,0,1,5812.143,1127.557Zm.78,2.3c.107.112.2.131.279.081C5813.582,1130.662,5813.21,1130.637,5812.923,1129.854Zm9.726,19.442a10.658,10.658,0,0,1-1.354-.642,12,12,0,0,1-1.361-.989c-.237-.2-.482-.413-.735-.651s-.494-.516-.756-.81-.536-.613-.82-.959c-.071-.087-.144-.174-.215-.266l-.209-.286-.433-.6a11.718,11.718,0,0,1-.681-1.139c-.109-.193-.2-.4-.305-.592s-.207-.386-.32-.568a16.662,16.662,0,0,1-2.093-3.418,1.677,1.677,0,0,1,.878.608c.172.181.354.392.543.623s.377.484.591.729c.418.5.846,1.016,1.246,1.463.1.112.2.22.3.319s.2.188.294.273a3.881,3.881,0,0,0,.525.4c.416.489.228.548.452.9.1.123.2.24.29.351l.257.309c.158.2.292.376.414.548.246.345.443.66.7,1.012.082.1.167.21.265.316l.315.33c.221.226.463.467.717.715l.791.762.844.744a20.086,20.086,0,0,1,2.6,2.528C5824.5,1150.41,5823.529,1150.329,5822.649,1149.3Zm6.54,2.553a3.876,3.876,0,0,0-.773-.282c-.214-.034-.375.019-.434.229q-.71-.488-1.364-.969l-.163-.12-.157-.127-.307-.252-.6-.5-.583-.493-.286-.244c-.094-.082-.182-.169-.272-.253l-1.062-1-.521-.485c-.171-.163-.333-.333-.5-.5-.332-.33-.667-.654-1.008-.971-.167-.161-.348-.312-.512-.478s-.336-.325-.507-.486q-.515-.482-1.069-.949c-.228-.244-.422-.508-.622-.759s-.39-.506-.58-.757-.377-.5-.56-.758l-.523-.791-.533-.809-.274-.415c-.094-.138-.176-.287-.268-.433-.357-.588-.741-1.2-1.163-1.856-.407-.694-.812-1.387-1.183-2.056-.352-.681-.655-1.346-.907-1.957-.063-.153-.121-.3-.176-.449s-.092-.295-.132-.437a7.267,7.267,0,0,1-.181-.8,2.482,2.482,0,0,1,.042-1.229c-.065.294.378.852.522,1.229a6.759,6.759,0,0,1,.274.979,4.757,4.757,0,0,0,.293.874,7.055,7.055,0,0,0,.794,1.273,10.217,10.217,0,0,1,1,1.451c.256.418.33.158.525.349a66.977,66.977,0,0,0,6.766,8.108,78.029,78.029,0,0,0,8.5,7.562C5830.391,1152.428,5829.767,1152.1,5829.189,1151.85Zm31.8,7.124q-1.66.026-3.305-.041,2.287-.041,4.516-.3C5861.773,1158.753,5861.354,1158.867,5860.986,1158.973Zm28.29-10.886a10.658,10.658,0,0,1-1.151,1.136l-.392.337c-.136.114-.285.219-.433.331-.3.221-.612.446-.931.669a19.8,19.8,0,0,1-1.951,1.2l-.462.252c-.149.08-.293.157-.438.219-.286.129-.55.239-.781.326a13.67,13.67,0,0,1-3.422,1.627c-.016.069.055.07.161.035s.246-.1.375-.163a4.022,4.022,0,0,1-1.161.525c-.413.126-.844.219-1.278.309-.215.049-.438.08-.659.117s-.44.076-.658.123a6.975,6.975,0,0,0-1.272.387c-.156.031-.17-.035-.2-.094q1.148-.475,2.265-1.007l.055-.023.26-.125c.244-.121.479-.24.709-.356l.2-.1c.345-.175.68-.343,1.014-.5.575-.289,1.229-.423,1.994-.764.5-.243,1.036-.615,1.519-.9a5.722,5.722,0,0,1,.671-.347.93.93,0,0,1,.52-.1,5.035,5.035,0,0,1,.737-.552c.144-.093.3-.185.452-.279l.239-.14.234-.152a9.911,9.911,0,0,0,1.672-1.25c.115.25-1.243,1.409-.163,1.022a.964.964,0,0,0,.253-.455,1.2,1.2,0,0,1,.209-.45C5888.353,1148.276,5889.007,1147.922,5889.276,1148.087Zm.523-.2c-.461.228-.372-.056-.268-.343.309-.21.521-.275.8-.437Q5890.385,1147.362,5889.8,1147.884Zm7.44-66.169c.142.128.283.254.422.374s.278.234.4.347a2.642,2.642,0,0,0,1.386.776q.182.27.364.535l.336.543.666,1.074c.228.353.414.729.61,1.1s.38.752.562,1.139c.247.565.377.961.577,1.431.1.237.209.493.355.8s.288.689.494,1.15c.092.208.19.411.29.61.051.1.1.2.151.3s.093.2.139.3c.183.4.361.788.511,1.185a41.735,41.735,0,0,1,1.638,6.614c.047.232.1.463.151.693s.088.462.134.69c.086.458.172.91.255,1.348q.027.165.057.327c.015.109.024.217.037.324.021.214.04.425.052.631a8.158,8.158,0,0,1,0,1.173c.033.188.049.379.063.574s.028.391.043.59c.026.4.047.8.066,1.213.015.2,0,.411,0,.618s0,.414-.006.621c0,.415-.005.829-.008,1.24-.04.822-.074,1.63-.068,2.4a15.665,15.665,0,0,0,.033,2.168c-.046.267-.116.533-.165.8s-.1.539-.137.81-.076.543-.107.814l-.023.2-.032.2c-.021.134-.041.267-.062.4-.075.534-.148,1.059-.219,1.564-.03.255-.087.5-.136.739s-.1.473-.157.7c-.115.194-.234.4-.354.608l-.182.324c-.059.111-.122.223-.191.335-.271.452-.542.942-.8,1.477s-.547,1.1-.809,1.724c-.132.311-.26.634-.381.973s-.271.678-.4,1.041c-.1.293-.19.576-.263.852-.036.138-.07.274-.1.408s-.068.262-.1.389c-.127.511-.214,1-.292,1.479-.042.238-.069.479-.119.708s-.1.459-.153.688a11.118,11.118,0,0,1-.412,1.385c-.085.106-.169.207-.248.309s-.146.2-.211.307a6.717,6.717,0,0,0-.342.628c-.1.214-.205.433-.319.66-.058.113-.115.229-.185.343s-.147.228-.231.344c-.252.352-.531.7-.825,1.066-.15.18-.291.371-.458.551l-.5.56c-.339.381-.674.795-1.029,1.229s-.732.887-1.093,1.4c-.207-.633-.532-.906-.522-1.581a3.923,3.923,0,0,0-.691.45q.916-1.28,1.749-2.622l.179-.254c.364-.491.671-1.019.995-1.526.161-.254.32-.507.479-.759s.294-.515.442-.769q.311-.547.657-1.125c.12-.19.221-.394.331-.6l.332-.612.34-.622.172-.313c.058-.1.105-.215.16-.323.209-.433.42-.87.632-1.308l.157-.328c.054-.109.105-.219.149-.332.092-.224.183-.448.275-.672.181-.447.359-.891.53-1.329.146-.448.286-.89.415-1.322.063-.216.125-.43.186-.641.028-.105.061-.209.085-.314s.043-.211.065-.315c.122-.292.274-.677.434-1.108.08-.215.161-.442.241-.674s.136-.475.2-.713c.124-.479.229-.953.295-1.37.017-.1.031-.2.042-.3s.01-.19.012-.278a2.434,2.434,0,0,0-.034-.458c.075-.312.143-.624.206-.936.031-.156.06-.312.09-.468l.042-.234.027-.236c.071-.628.125-1.253.171-1.868.014-.154.016-.308.018-.462s0-.307.006-.459c0-.3.006-.607.008-.907.021-.6-.016-1.187-.027-1.762.036-.388.069-.78.088-1.177q0-.6-.009-1.2c0-.2-.009-.406-.013-.611s-.007-.41-.028-.615q-.051-.616-.1-1.243c-.016-.208-.032-.417-.049-.627s-.049-.419-.072-.629q-.076-.63-.139-1.268c-.03-.426-.1-.849-.148-1.277s-.089-.858-.119-1.293c-.09-.776.031-1.4-.061-2.206-.111-.693-.391-1.506-.53-2.293-.126-.56-.207-1.125-.287-1.689-.021-.141-.042-.282-.062-.422s-.056-.277-.085-.415c-.06-.275-.126-.549-.2-.819-.071-.248-.183-.526-.292-.8s-.242-.542-.316-.783c-.1-.319-.045-.571-.125-.869-.065-.23-.142-.47-.233-.708s-.207-.471-.309-.7a7.329,7.329,0,0,1-.476-1.32c-.364-.605-.71-1.2-1.048-1.8-.081-.151-.176-.3-.267-.441l-.273-.439-.549-.889c-.177-.3-.388-.593-.591-.893l-.628-.914c-.208-.316-.452-.617-.694-.931l-.757-.963Zm-1.981-.529c.158.148.3.311.448.475s.294.333.441.506l.456.544.228.279c.074.1.144.2.215.293q.425.593.852,1.215l.212.312.2.325.39.657c.256.443.531.879.753,1.346s.463.923.695,1.385c.06.114.111.232.161.351l.153.354.3.705q.152.351.3.7c.092.235.176.473.264.707l.514,1.384c-.074.047-.184.048-.04.372.251.91.509,1.8.67,2.715.087.454.187.9.263,1.358s.135.911.2,1.369q.053.341.1.683t.077.691c.054.462.112.923.178,1.387.044.467.087.937.144,1.41.028.236.058.474.091.712s.043.48.07.723c.048.472.141.927.212,1.38a5.247,5.247,0,0,1,.014,1.378c.058.245.111.506.163.78s.073.559.107.851.06.592.089.892.065.6.071.9c-.061.56-.107,1.2-.135,1.886-.063.68-.116,1.4-.144,2.106,0,.178-.026.353-.039.528s-.025.349-.039.52c-.022.343-.04.678-.049,1-.008.161,0,.32-.015.471s-.018.3-.023.444c-.011.287-.015.554-.007.8a7.8,7.8,0,0,0-.234.936c-.073.307-.136.612-.189.919s-.106.618-.16.933c-.029.157-.058.316-.088.476s-.082.318-.129.478q-.195.67-.4,1.365-.051.174-.1.349c-.034.117-.079.23-.118.347l-.245.7-.248.708c-.085.237-.16.48-.263.713l-.588,1.43c-.174.456-.4.895-.607,1.342a46.586,46.586,0,0,0-65.472-57.529c.41-.266.828-.528,1.265-.772l.681-.4c.114-.067.227-.138.344-.2l.355-.188,1.434-.768c.49-.245.993-.478,1.495-.725s1.021-.47,1.545-.7q.467-.2.92-.425l.921-.409q.457-.209.917-.427l.23-.109.235-.1.471-.195a20.3,20.3,0,0,1,1.958-.738q.51-.16,1.04-.308c.178-.047.355-.1.539-.137s.368-.072.554-.1c.438-.077.853-.141,1.259-.2.1-.014.2-.031.3-.041l.3-.026.61-.053c.408-.036.824-.078,1.261-.13.44-.03.9-.071,1.4-.131.079.078.523-.008.351.182.146-.022.29-.039.432-.054s.287-.009.428-.01c.283,0,.562.014.837.034s.545.047.812.075c.134.011.267.033.4.056l.395.064a12.356,12.356,0,0,0,1.555.169,5.809,5.809,0,0,0,1.575-.068c-.1.107-.5.085-.175.21l.53.074c.177.023.356.047.535.083.356.064.714.123,1.07.17q.267.035.533.06c.176.019.353.022.527.044a7.875,7.875,0,0,0,1.026.041c.371.078.754.15,1.142.241l1.175.313.6.156.3.078c.1.028.2.062.3.092q.6.189,1.2.368l.6.175c.2.055.4.132.6.195q.6.2,1.188.372c.2.06.4.109.588.172s.383.126.574.185q.571.178,1.13.32c.118.069.241.131.366.192s.248.13.375.19c.256.121.523.231.792.338s.541.213.807.323a7.731,7.731,0,0,1,.753.395c2.278,1.334,4.583,2.645,6.853,4.058a67.206,67.206,0,0,1,6.538,4.6l.406.411c.137.135.259.285.389.427.294.271.6.535.9.8.153.133.313.26.462.4l.45.42C5894.643,1080.6,5894.949,1080.885,5895.259,1081.186Zm-34.936-16.953c-.127-.215.8-.172.659.031C5860.532,1064.239,5860.649,1064.34,5860.323,1064.234Zm5.057-2.031c.3.005.614.017.983.045.185.014.382.032.6.054s.443.045.689.1l1.163.23.6.12c.2.039.414.079.628.136a48.606,48.606,0,0,1,5.094,1.767c.381.13.809.167,1.179.311.109.042.221.089.333.139s.222.113.336.174c.225.123.455.255.688.388s.468.266.7.391.476.24.708.36c.142.07.674.2.825.277a6.189,6.189,0,0,1,.662.432l.321.229c.1.079.207.155.309.221.349.227.716.457,1.1.689l.584.351.586.385q.6.387,1.225.781c.412.272.819.568,1.24.854l.633.434c.108.071.209.148.312.228l.309.235,1.242.943c.406.327.8.67,1.194,1l.589.5c.189.173.371.353.556.528.6.576,1.085,1.151,1.658,1.733.2.191.42.374.643.561a4.484,4.484,0,0,1,.625.593,15.022,15.022,0,0,1,.943,1.32c.073.11.152.215.226.327s.149.222.23.33a4.764,4.764,0,0,0,.554.628c-.134.038-.329-.081-.4.107a2.879,2.879,0,0,0-.384-.579,3.331,3.331,0,0,0-.509-.5c-.371-.3-.762-.561-1.071-.79a17.422,17.422,0,0,0-1.286-1.242l-.628-.562-.155-.138-.162-.13-.324-.257-1.295-1.038c-.456-.334-.918-.683-1.4-1.065-.088-.1-.166-.188-.239-.277l-.213-.253c-.138-.165-.271-.329-.436-.506q-.509-.391-1.011-.79l-1.034-.742-.511-.37-.254-.183c-.085-.061-.174-.113-.26-.17l-1.035-.658c-.185-.116-.373-.231-.562-.344s-.389-.208-.583-.312l-1.183-.6c-.387-.207-.795-.365-1.184-.544s-.773-.351-1.141-.531c-.413-.19-.827-.383-1.231-.593l-.6-.313c-.2-.1-.4-.21-.6-.294-.406-.177-.809-.341-1.208-.472a4.372,4.372,0,0,0-1.19-.25c-.429-.151-.9-.33-1.379-.519l-.366-.143c-.123-.049-.249-.085-.375-.128l-.756-.246c-.252-.081-.5-.159-.748-.233a6.889,6.889,0,0,0-.726-.191,10.631,10.631,0,0,0-1.311-.2c-.179-.073-.376-.143-.588-.211s-.439-.114-.677-.17c-.475-.1-.994-.2-1.529-.3l-.2-.038-.2-.027-.409-.054-.82-.116c-.271-.041-.54-.084-.8-.13s-.522-.071-.772-.114c-.491,0-.958.018-1.408.037-.225,0-.445.037-.663.058l-.643.072c-.422.051-.834.094-1.241.151s-.809.136-1.214.2l-.61.087-.308.039-.31.052c-.416.069-.841.13-1.284.18-.221.025-.447.045-.678.067s-.464.06-.706.084c-.483.051-.99.086-1.532.111a8.378,8.378,0,0,1,1.2-.344c.217-.049.44-.094.664-.137l.335-.065.336-.046c.447-.062.88-.125,1.27-.206.194-.041.377-.085.545-.137a4.019,4.019,0,0,0,.458-.154,9.657,9.657,0,0,0,1.19-.078c.386-.048.759-.12,1.119-.165.719-.105,1.381-.245,1.954-.307.491-.033,1.05-.035,1.617-.036l.426,0,.212,0,.21.007c.279.01.554.015.815.012.319,0,.6-.017.884-.031l.42-.022C5865.09,1062.2,5865.231,1062.2,5865.38,1062.2Z" transform="translate(-5804.033 -1060.394)" fill="#fd4a36"/>
</svg>
