<svg xmlns="http://www.w3.org/2000/svg" width="65.144" height="45.163" viewBox="0 0 65.144 45.163">
  <g id="Group_7654" data-name="Group 7654" transform="translate(-477.049 -1861)">
    <g id="Group_7481" data-name="Group 7481" transform="translate(519.132 1865.106)">
      <g id="Group_7480" data-name="Group 7480">
        <path id="Path_18164" data-name="Path 18164" d="M343.4,111.92a2.054,2.054,0,0,0-1.835-1.13H330.756V114.9H340.3l5.59,11.118,3.669-1.845Z" transform="translate(-330.756 -110.79)" fill="#fd4a36"/>
      </g>
    </g>
    <g id="Group_7603" data-name="Group 7603">
      <g id="Group_7477" data-name="Group 7477" transform="translate(518.038 1889.74)">
        <g id="Group_7476" data-name="Group 7476">
          <path id="Path_18162" data-name="Path 18162" d="M330.362,304.4a8.211,8.211,0,1,0,8.211,8.211A8.221,8.221,0,0,0,330.362,304.4Zm0,12.317a4.106,4.106,0,1,1,4.106-4.106A4.11,4.11,0,0,1,330.362,316.72Z" transform="translate(-322.151 -304.403)" fill="#c40e0e"/>
        </g>
      </g>
      <g id="Group_7479" data-name="Group 7479" transform="translate(489.982 1889.74)">
        <g id="Group_7478" data-name="Group 7478">
          <path id="Path_18163" data-name="Path 18163" d="M109.858,304.4a8.211,8.211,0,1,0,8.211,8.211A8.221,8.221,0,0,0,109.858,304.4Zm0,12.317a4.106,4.106,0,1,1,4.106-4.106A4.11,4.11,0,0,1,109.858,316.72Z" transform="translate(-101.647 -304.403)" fill="#c40e0e"/>
        </g>
      </g>
      <g id="Group_7483" data-name="Group 7483" transform="translate(504.557 1895.967)">
        <g id="Group_7482" data-name="Group 7482">
          <rect id="Rectangle_6290" data-name="Rectangle 6290" width="15.533" height="4.106" fill="#c40e0e"/>
        </g>
      </g>
      <g id="Group_7485" data-name="Group 7485" transform="translate(482.865 1895.967)">
        <g id="Group_7484" data-name="Group 7484">
          <path id="Path_18165" data-name="Path 18165" d="M54.884,353.345H47.768a2.053,2.053,0,1,0,0,4.106h7.117a2.053,2.053,0,1,0,0-4.106Z" transform="translate(-45.715 -353.345)" fill="#c40e0e"/>
        </g>
      </g>
      <g id="Group_7487" data-name="Group 7487" transform="translate(482.865 1861)">
        <g id="Group_7486" data-name="Group 7486">
          <path id="Path_18166" data-name="Path 18166" d="M104.611,100.938l-4.038-5.2a2.05,2.05,0,0,0-1.621-.794H84.035V80.574a2.053,2.053,0,0,0-2.053-2.053H47.768a2.053,2.053,0,0,0,0,4.106H79.929V97a2.053,2.053,0,0,0,2.053,2.053H97.947l2.99,3.851v10.587h-5.68a2.053,2.053,0,1,0,0,4.106h7.732a2.053,2.053,0,0,0,2.053-2.053V102.2A2.056,2.056,0,0,0,104.611,100.938Z" transform="translate(-45.715 -78.521)" fill="#c40e0e"/>
        </g>
      </g>
      <g id="Group_7489" data-name="Group 7489" transform="translate(480.402 1885.566)">
        <g id="Group_7488" data-name="Group 7488">
          <path id="Path_18167" data-name="Path 18167" d="M37.849,271.6H28.406a2.053,2.053,0,1,0,0,4.106h9.443a2.053,2.053,0,0,0,0-4.106Z" transform="translate(-26.353 -271.597)" fill="#c40e0e"/>
        </g>
      </g>
      <g id="Group_7491" data-name="Group 7491" transform="translate(477.049 1877.491)">
        <g id="Group_7490" data-name="Group 7490">
          <path id="Path_18168" data-name="Path 18168" d="M19.571,208.134H2.053a2.053,2.053,0,0,0,0,4.106H19.571a2.053,2.053,0,0,0,0-4.106Z" transform="translate(0 -208.134)" fill="#c40e0e"/>
        </g>
      </g>
      <g id="Group_7493" data-name="Group 7493" transform="translate(480.402 1869.417)">
        <g id="Group_7492" data-name="Group 7492">
          <path id="Path_18169" data-name="Path 18169" d="M45.924,144.672H28.406a2.053,2.053,0,1,0,0,4.106H45.924a2.053,2.053,0,1,0,0-4.106Z" transform="translate(-26.353 -144.672)" fill="#c40e0e"/>
        </g>
      </g>
    </g>
  </g>
</svg>
