<svg xmlns="http://www.w3.org/2000/svg" width="19.336" height="22" viewBox="0 0 19.336 22">
  <g id="location" transform="translate(-31)">
    <g id="Group_371" data-name="Group 371" transform="translate(31)">
      <g id="Group_370" data-name="Group 370">
        <path id="Path_4825" data-name="Path 4825" d="M44.341,14.536c2.341-3.674,2.047-3.215,2.114-3.311a7.037,7.037,0,0,0,1.3-4.092,7.09,7.09,0,1,0-12.839,4.144L37,14.536c-2.22.341-6,1.358-6,3.6,0,.816.533,1.979,3.071,2.886a20.343,20.343,0,0,0,6.6.981c4.642,0,9.668-1.309,9.668-3.867C50.336,15.893,46.566,14.878,44.341,14.536ZM36,10.568l-.022-.033a5.8,5.8,0,1,1,9.437-.065c-.062.082.262-.421-4.742,7.43Zm4.673,10.143c-5.07,0-8.379-1.49-8.379-2.578,0-.731,1.7-1.933,5.468-2.4l2.368,3.715a.645.645,0,0,0,1.087,0l2.368-3.715c3.768.469,5.468,1.671,5.468,2.4C49.047,19.211,45.768,20.711,40.668,20.711Z" transform="translate(-31)" fill="#e8004f"/>
      </g>
    </g>
    <g id="Group_373" data-name="Group 373" transform="translate(37.445 3.91)">
      <g id="Group_372" data-name="Group 372">
        <path id="Path_4826" data-name="Path 4826" d="M184.223,91a3.223,3.223,0,1,0,3.223,3.223A3.226,3.226,0,0,0,184.223,91Zm0,5.156a1.934,1.934,0,1,1,1.934-1.934A1.936,1.936,0,0,1,184.223,96.156Z" transform="translate(-181 -91)" fill="#e8004f"/>
      </g>
    </g>
  </g>
</svg>
