<svg xmlns="http://www.w3.org/2000/svg" width="19.911" height="14" viewBox="0 0 19.911 14">
  <g id="mail" transform="translate(0 -76)">
    <g id="Group_375" data-name="Group 375" transform="translate(13.697 77)">
      <g id="Group_374" data-name="Group 374" transform="translate(0 0)">
        <path id="Path_4827" data-name="Path 4827" d="M358.25,101.721l-6.039,6,6.039,6a1.73,1.73,0,0,0,.175-.75v-10.5A1.73,1.73,0,0,0,358.25,101.721Z" transform="translate(-352.211 -101.721)" fill="#e8004f"/>
      </g>
    </g>
    <g id="Group_377" data-name="Group 377" transform="translate(1 76)">
      <g id="Group_376" data-name="Group 376" transform="translate(0 0)">
        <path id="Path_4828" data-name="Path 4828" d="M42.882,76H26.471a1.73,1.73,0,0,0-.75.175l7.718,7.679a1.751,1.751,0,0,0,2.475,0l7.718-7.679A1.73,1.73,0,0,0,42.882,76Z" transform="translate(-25.721 -76)" fill="#e8004f"/>
      </g>
    </g>
    <g id="Group_379" data-name="Group 379" transform="translate(0 77)">
      <g id="Group_378" data-name="Group 378" transform="translate(0 0)">
        <path id="Path_4829" data-name="Path 4829" d="M.175,101.721a1.73,1.73,0,0,0-.175.75v10.5a1.73,1.73,0,0,0,.175.75l6.039-6Z" transform="translate(0 -101.721)" fill="#e8004f"/>
      </g>
    </g>
    <g id="Group_381" data-name="Group 381" transform="translate(1 83.825)">
      <g id="Group_380" data-name="Group 380" transform="translate(0 0)">
        <path id="Path_4830" data-name="Path 4830" d="M37.593,277.211l-.855.854a2.92,2.92,0,0,1-4.124,0l-.854-.854-6.039,6a1.73,1.73,0,0,0,.75.175H42.882a1.73,1.73,0,0,0,.75-.175Z" transform="translate(-25.721 -277.211)" fill="#e8004f"/>
      </g>
    </g>
  </g>
</svg>
