<svg xmlns="http://www.w3.org/2000/svg" width="69.353" height="82.006" viewBox="0 0 69.353 82.006">
  <g id="nylon-jacket" transform="translate(-31.027)">
    <g id="Group_61" data-name="Group 61" transform="translate(31.027)">
      <g id="Group_58" data-name="Group 58" transform="translate(15.38 42.646)">
        <path id="Path_39" data-name="Path 39" d="M107.263,226.26a1.025,1.025,0,0,1-.784-1.21l3.224-15.1a1.02,1.02,0,0,1,1.994.426l-3.224,15.1A.974.974,0,0,1,107.263,226.26Z" transform="translate(-106.456 -209.145)" fill="#0a0b2e"/>
      </g>
      <g id="Group_60" data-name="Group 60">
        <g id="Group_59" data-name="Group 59" transform="translate(48.71 42.646)">
          <path id="Path_40" data-name="Path 40" d="M273.157,225.476l-3.224-15.1a1.02,1.02,0,0,1,1.994-.426l3.224,15.1a1.02,1.02,0,1,1-1.994.426Z" transform="translate(-269.911 -209.145)" fill="#0a0b2e"/>
        </g>
        <path id="Path_41" data-name="Path 41" d="M96.856,31.059a79.1,79.1,0,0,0-6.818-17.584,16.051,16.051,0,0,0-7.429-4.33C82.176,3.65,75.493,0,65.7,0S49.231,3.65,48.8,9.145a16.051,16.051,0,0,0-7.429,4.33,79.106,79.106,0,0,0-6.818,17.584,103.936,103.936,0,0,0-2.039,44.332c0,.011.849,5.744.849,5.744a1.019,1.019,0,0,0,1.009.871h6.955a1.019,1.019,0,0,0,1.01-.877l.793-5.623.858-1.783.239,1.045a1.02,1.02,0,0,0,.994.792H86.189a1.019,1.019,0,0,0,.994-.792l.239-1.045.858,1.783.793,5.623a1.02,1.02,0,0,0,1.01.877h6.955a1.019,1.019,0,0,0,1.009-.871s.847-5.733.849-5.744A103.933,103.933,0,0,0,96.856,31.059Zm-14.42-19.84a14.669,14.669,0,0,1,5.719,3.25L85.88,24.495H66.723V20.454l2.1-4.33c2.219.171,8.862.416,12.032-2.406A5.126,5.126,0,0,0,82.436,11.219ZM45.5,26.534h19.18V67.583H44.723C44.027,63.345,41.2,43.667,45.5,26.534Zm-.364,43.088H64.684v.93H45.352ZM65.7,17.882l-1.549-3.2a1,1,0,0,0-.182-.311c-.477-.55-.962-1.137-1.43-1.731h6.321c-.468.594-.953,1.181-1.43,1.731a1.008,1.008,0,0,0-.182.311Zm-4.679-7.277A9.054,9.054,0,0,1,59.3,7.355c0-1.145,2.633-1.944,6.4-1.944s6.4.8,6.4,1.944a9.05,9.05,0,0,1-1.725,3.25ZM65.7,2.039c8.767,0,14.89,3.157,14.89,7.678A3.145,3.145,0,0,1,79.5,12.193c-2,1.785-6.367,2.06-9.233,1.969,1.628-2.026,3.88-5.131,3.88-6.807,0-2.569-3-3.983-8.443-3.983S57.26,4.786,57.26,7.355c0,1.676,2.253,4.782,3.88,6.807-2.867.09-7.229-.184-9.233-1.969a3.145,3.145,0,0,1-1.094-2.476C50.813,5.2,56.936,2.039,65.7,2.039Zm-16.733,9.18a5.126,5.126,0,0,0,1.583,2.5c3.17,2.822,9.813,2.577,12.032,2.406l2.1,4.33v4.041H45.527L43.252,14.467A14.522,14.522,0,0,1,48.971,11.219ZM40.439,79.967H35.25l-.124-.845h5.432Zm.407-2.884H34.826l-.124-.845h6.263Zm.647-2.884H34.38A101.893,101.893,0,0,1,36.5,31.664a87.124,87.124,0,0,1,5.263-14.542l1.9,8.375c-5,19.166-1.107,41.6-.817,43.206,0,.043.409,1.831.409,1.831Zm4.538-.678-.213-.93H64.684v.93Zm39.346,0H66.723v-.93H85.589Zm.679-2.969H66.723v-.93H86.268Zm.628-2.969H66.723V26.534H85.9C90.209,43.667,87.38,63.345,86.684,67.583Zm9.473,12.384H90.968l-.119-.845h5.432Zm.424-2.884H90.562l-.119-.845h6.263Zm.446-2.884H89.914l-1.763-3.666s.405-1.788.409-1.831c.29-1.607,4.178-24.04-.817-43.206l1.9-8.377A86.973,86.973,0,0,1,94.888,31.59,101.9,101.9,0,0,1,97.027,74.2Z" transform="translate(-31.027)" fill="#0a0b2e"/>
      </g>
    </g>
  </g>
</svg>
