<svg xmlns="http://www.w3.org/2000/svg" width="73.994" height="73.998" viewBox="0 0 73.994 73.998">
  <g id="outline" transform="translate(-16 -15.998)">
    <path id="Path_51" data-name="Path 51" d="M362.624,102.434V76.657l.508-2.538a101.1,101.1,0,0,0,1.958-19.542l3.824-9.561a4.646,4.646,0,0,0-1.729-5.565l-.088-.058a16.913,16.913,0,0,0-18.813,0l-.088.058a4.646,4.646,0,0,0-1.729,5.565l3.824,9.561a101.1,101.1,0,0,0,1.958,19.542l.508,2.539v25.777a4.933,4.933,0,0,0,9.866,0ZM352.359,53.1l-3.6-9a2.168,2.168,0,0,1,.807-2.6l.088-.058a14.454,14.454,0,0,1,16.077,0l.088.058a2.168,2.168,0,0,1,.807,2.6l-3.6,9h-2.594l.938-4.691a1.233,1.233,0,1,0-2.419-.484L357.913,53.1h-.444l-1.036-5.175a1.233,1.233,0,1,0-2.419.484l.939,4.691Zm7.8,49.332a2.467,2.467,0,1,1-4.933,0V77.768h4.933ZM360.38,75.3H355l-.333-1.667a98.649,98.649,0,0,1-1.9-18.066h9.851q-.046,3.7-.374,7.4h-3.317a1.233,1.233,0,1,0,0,2.467h3.069q-.468,4.128-1.281,8.2Z" transform="translate(-279.246 -17.37)" fill="#0a0b2e"/>
    <path id="Path_52" data-name="Path 52" d="M295.3,252.825l-2.419-.806a2.775,2.775,0,0,0-3.652,2.632v12.661A1.233,1.233,0,0,0,288,268.545v19.733a1.233,1.233,0,0,0,1.233,1.233H299.1a1.233,1.233,0,0,0,1.233-1.233V268.545a1.233,1.233,0,0,0-1.233-1.233V258.09A5.543,5.543,0,0,0,295.3,252.825Zm-3.6,1.826a.308.308,0,0,1,.406-.293l2.419.806a3.08,3.08,0,0,1,2.108,2.926v9.222H291.7Zm6.167,32.394h-7.4V274.711h7.4Zm0-14.8h-7.4v-2.467h7.4Z" transform="translate(-230.068 -199.514)" fill="#0a0b2e"/>
    <path id="Path_53" data-name="Path 53" d="M16,281.912v.617a10.5,10.5,0,0,0,10.483,10.483h18.5a10.5,10.5,0,0,0,10.483-10.483v-.617a1.233,1.233,0,0,0-1.233-1.233h-2.9a17.266,17.266,0,1,0-31.2,0h-2.9A1.233,1.233,0,0,0,16,281.912Zm19.733-23.433a14.8,14.8,0,0,1,12.818,22.2H45.6a12.335,12.335,0,1,0-19.737,0H22.915a14.8,14.8,0,0,1,12.818-22.2Zm1.733,5.089a9.791,9.791,0,0,1,2.917,1.012l-12,15.274a9.868,9.868,0,0,1-1.485-2.193Zm-11.484,11.2A9.85,9.85,0,0,1,34.433,263.5ZM42.4,266.01a9.91,9.91,0,0,1,2.37,3.307s-8.862,11.293-8.9,11.362h-5ZM32.033,283.145h7.4a1.233,1.233,0,0,1,0,2.467h-7.4a1.233,1.233,0,0,1,0-2.467Zm6.942-2.467,6.576-8.369c.031.319.048.642.048.97a9.82,9.82,0,0,1-3.343,7.4Zm-10.43,2.467a3.7,3.7,0,0,0,3.488,4.933h7.4a3.7,3.7,0,0,0,3.488-4.932H52.976a8.027,8.027,0,0,1-7.993,7.4h-18.5a8.027,8.027,0,0,1-7.993-7.4Z" transform="translate(0 -203.015)" fill="#0a0b2e"/>
    <path id="Path_54" data-name="Path 54" d="M240.549,95.189l1.977,1.318a6.578,6.578,0,0,1,2.231,2.528l.307.614a1.233,1.233,0,0,0,2.206,0l.307-.614a6.578,6.578,0,0,1,2.231-2.528l1.977-1.318a1.233,1.233,0,0,0-.294-2.2,6.6,6.6,0,0,1-4.153-4.153,1.233,1.233,0,0,0-2.34,0,6.6,6.6,0,0,1-4.153,4.153,1.233,1.233,0,0,0-.294,2.2Zm5.617-3.251a9.123,9.123,0,0,0,2.465,2.388l-.193.128a9.044,9.044,0,0,0-2.273,2.173,9.042,9.042,0,0,0-2.273-2.174l-.193-.128A9.122,9.122,0,0,0,246.166,91.937Z" transform="translate(-189.467 -60.898)" fill="#0a0b2e"/>
    <path id="Path_55" data-name="Path 55" d="M163.489,140.995a6.6,6.6,0,0,1-4.153-4.153,1.233,1.233,0,0,0-2.34,0,6.6,6.6,0,0,1-4.153,4.153,1.233,1.233,0,0,0-.294,2.2l1.977,1.318a6.578,6.578,0,0,1,2.231,2.528l.307.614a1.233,1.233,0,0,0,2.206,0l.307-.614a6.578,6.578,0,0,1,2.231-2.528l1.977-1.318a1.233,1.233,0,0,0-.294-2.2Zm-3.051,1.462a9.044,9.044,0,0,0-2.273,2.173,9.041,9.041,0,0,0-2.273-2.174l-.193-.128a9.122,9.122,0,0,0,2.465-2.388,9.122,9.122,0,0,0,2.465,2.388Z" transform="translate(-115.033 -101.5)" fill="#0a0b2e"/>
    <path id="Path_56" data-name="Path 56" d="M193.807,24.508l1.977-1.318a1.233,1.233,0,0,0-.294-2.2,6.6,6.6,0,0,1-4.153-4.153,1.233,1.233,0,0,0-2.34,0,6.6,6.6,0,0,1-4.153,4.153,1.233,1.233,0,0,0-.294,2.2l1.977,1.317a6.578,6.578,0,0,1,2.231,2.528l.307.614a1.233,1.233,0,0,0,2.206,0l.307-.614A6.578,6.578,0,0,1,193.807,24.508Zm-3.641.121a9.042,9.042,0,0,0-2.273-2.174l-.193-.128a9.122,9.122,0,0,0,2.465-2.388,9.122,9.122,0,0,0,2.465,2.388l-.193.128a9.044,9.044,0,0,0-2.273,2.173Z" transform="translate(-142.1)" fill="#0a0b2e"/>
  </g>
</svg>
