<svg xmlns="http://www.w3.org/2000/svg" width="25.803" height="25.84" viewBox="0 0 25.803 25.84">
  <g id="phone-call" transform="translate(-0.344 0)">
    <g id="Group_19" data-name="Group 19" transform="translate(0.344 0)">
      <path id="Path_28" data-name="Path 28" d="M20.748,41.918a2.542,2.542,0,0,0-1.843-.845,2.628,2.628,0,0,0-1.865.84l-1.723,1.718c-.142-.076-.284-.147-.42-.218-.2-.1-.382-.191-.54-.289a18.731,18.731,0,0,1-4.488-4.09A11.051,11.051,0,0,1,8.395,36.71c.447-.409.862-.834,1.265-1.243.153-.153.305-.311.458-.464a2.5,2.5,0,0,0,0-3.774L8.629,29.74c-.169-.169-.344-.344-.507-.518-.327-.338-.671-.687-1.025-1.014a2.582,2.582,0,0,0-1.827-.8,2.671,2.671,0,0,0-1.854.8l-.011.011L1.55,30.089A3.99,3.99,0,0,0,.367,32.625a9.561,9.561,0,0,0,.7,4.047,23.482,23.482,0,0,0,4.172,6.959,25.665,25.665,0,0,0,8.546,6.692,13.315,13.315,0,0,0,4.8,1.418c.115.005.235.011.344.011A4.11,4.11,0,0,0,22.073,50.4c.005-.011.016-.016.022-.027a12.4,12.4,0,0,1,.954-.987c.235-.224.474-.458.709-.7a2.721,2.721,0,0,0,.824-1.887,2.621,2.621,0,0,0-.84-1.871ZM22.7,47.661c-.005,0-.005.005,0,0-.213.229-.431.436-.665.665a14.341,14.341,0,0,0-1.053,1.091,2.629,2.629,0,0,1-2.051.867c-.082,0-.169,0-.251-.005A11.829,11.829,0,0,1,14.427,49a24.226,24.226,0,0,1-8.05-6.3A22.141,22.141,0,0,1,2.45,36.159a7.787,7.787,0,0,1-.611-3.414,2.5,2.5,0,0,1,.753-1.62l1.86-1.86a1.24,1.24,0,0,1,.829-.387,1.167,1.167,0,0,1,.8.382l.016.016c.333.311.649.633.982.976.169.175.344.349.518.529l1.489,1.489a1.041,1.041,0,0,1,0,1.691c-.158.158-.311.316-.469.469-.458.469-.894.905-1.369,1.331-.011.011-.022.016-.027.027a1.112,1.112,0,0,0-.284,1.238l.016.049A11.953,11.953,0,0,0,8.711,39.95l.005.005a20.017,20.017,0,0,0,4.843,4.407,7.447,7.447,0,0,0,.671.365c.2.1.382.191.54.289.022.011.044.027.065.038a1.182,1.182,0,0,0,.54.136,1.166,1.166,0,0,0,.829-.376l1.865-1.865a1.234,1.234,0,0,1,.824-.409,1.111,1.111,0,0,1,.785.4l.011.011,3.005,3.005A1.078,1.078,0,0,1,22.7,47.661Z" transform="translate(-0.344 -25.911)" fill="#fff"/>
      <path id="Path_29" data-name="Path 29" d="M245.55,87.386a7.019,7.019,0,0,1,5.716,5.716.732.732,0,0,0,.725.611.975.975,0,0,0,.125-.011.737.737,0,0,0,.605-.851,8.487,8.487,0,0,0-6.915-6.915.74.74,0,0,0-.851.6A.728.728,0,0,0,245.55,87.386Z" transform="translate(-231.604 -81.239)" fill="#fff"/>
      <path id="Path_30" data-name="Path 30" d="M261.018,11.4A13.975,13.975,0,0,0,249.631.011a.735.735,0,1,0-.24,1.451,12.483,12.483,0,0,1,10.177,10.177.732.732,0,0,0,.725.611.974.974,0,0,0,.125-.011A.723.723,0,0,0,261.018,11.4Z" transform="translate(-235.227 0)" fill="#fff"/>
    </g>
  </g>
</svg>
