<svg xmlns="http://www.w3.org/2000/svg" width="16.594" height="16.593" viewBox="0 0 16.594 16.593">
  <g id="Page-1" transform="translate(0.003)">
    <g id="_003---Call" data-name="003---Call" transform="translate(-0.003)">
      <path id="Shape" d="M7.869,9.765a6.7,6.7,0,0,1-2.022-3.8.569.569,0,0,1,.163-.476L7.292,4.205A.572.572,0,0,0,7.372,3.5L5.332.328A.572.572,0,0,0,4.59.12L1.314,1.663A.569.569,0,0,0,1,2.231,15.835,15.835,0,0,0,5.822,11.81,15.831,15.831,0,0,0,15.4,16.632a.569.569,0,0,0,.568-.315l1.543-3.276a.572.572,0,0,0-.207-.74l-3.169-2.04a.572.572,0,0,0-.708.08l-1.281,1.282a.569.569,0,0,1-.476.163,6.7,6.7,0,0,1-3.8-2.022Z" transform="translate(-0.997 -0.042)" fill="#e8004f"/>
      <path id="Shape-2" data-name="Shape" d="M33.436,16.008a.572.572,0,0,1-.572-.572,4.3,4.3,0,0,0-4.291-4.291.572.572,0,1,1,0-1.144,5.442,5.442,0,0,1,5.436,5.436A.572.572,0,0,1,33.436,16.008Z" transform="translate(-20.275 -7.139)" fill="#e8004f"/>
      <path id="Shape-3" data-name="Shape" d="M36.3,8.869a.572.572,0,0,1-.572-.572,7.16,7.16,0,0,0-7.152-7.152.572.572,0,1,1,0-1.144,8.306,8.306,0,0,1,8.3,8.3.572.572,0,0,1-.572.572Z" transform="translate(-20.275)" fill="#e8004f"/>
    </g>
  </g>
</svg>
