<svg xmlns="http://www.w3.org/2000/svg" width="13.126" height="17.501" viewBox="0 0 13.126 17.501">
  <g id="shopping-list" transform="translate(-64)">
    <g id="Group_349" data-name="Group 349" transform="translate(67.282)">
      <g id="Group_348" data-name="Group 348">
        <path id="Path_4812" data-name="Path 4812" d="M166.016,1.094h-1.188a1.641,1.641,0,0,0-3.094,0h-1.187a.547.547,0,0,0-.547.547V3.828a.547.547,0,0,0,.547.547h5.469a.547.547,0,0,0,.547-.547V1.641A.547.547,0,0,0,166.016,1.094Z" transform="translate(-160)" fill="#e8004f"/>
      </g>
    </g>
    <g id="Group_351" data-name="Group 351" transform="translate(64 2.188)">
      <g id="Group_350" data-name="Group 350">
        <path id="Path_4813" data-name="Path 4813" d="M76.032,64H74.938v1.641A1.643,1.643,0,0,1,73.3,67.282H67.828a1.643,1.643,0,0,1-1.641-1.641V64H65.094A1.1,1.1,0,0,0,64,65.094V78.22a1.082,1.082,0,0,0,1.094,1.094H76.032a1.082,1.082,0,0,0,1.094-1.094V65.094A1.082,1.082,0,0,0,76.032,64ZM70.4,73.685l-2.188,2.188a.549.549,0,0,1-.774,0l-1.094-1.094a.547.547,0,0,1,.773-.773l.708.707,1.8-1.8a.547.547,0,0,1,.774.773Zm0-4.375L68.216,71.5a.549.549,0,0,1-.774,0L66.347,70.4a.547.547,0,0,1,.773-.773l.708.707,1.8-1.8a.547.547,0,0,1,.774.773Zm3.988,5.629H72.2a.547.547,0,0,1,0-1.094h2.188a.547.547,0,0,1,0,1.094Zm0-4.375H72.2a.547.547,0,0,1,0-1.094h2.188a.547.547,0,0,1,0,1.094Z" transform="translate(-64 -64)" fill="#e8004f"/>
      </g>
    </g>
  </g>
</svg>
