<svg xmlns="http://www.w3.org/2000/svg" width="32.744" height="25.104" viewBox="0 0 32.744 25.104">
  <g id="Tracking" transform="translate(-2 -9)">
    <path id="Path_24" data-name="Path 24" d="M34.584,28.254,27.809,21.48A1.625,1.625,0,0,0,26.651,21H17.28v1.091h2.729v8.186H21.1V22.091h5.551a.546.546,0,0,1,.386.16l.932.932h-2.5a1.091,1.091,0,0,0-1.091,1.091v4.912a1.091,1.091,0,0,0,1.091,1.091h8.186v4.366a.546.546,0,0,1-.546.546H31.971a3.815,3.815,0,0,0-7.553,0H16.691a3.815,3.815,0,0,0-7.553,0H8a.546.546,0,0,1-.546-.546V29.732H6.366v4.912A1.637,1.637,0,0,0,8,36.28H9.138a3.808,3.808,0,0,0,1.108,2.183H2v1.091H28.195a3.823,3.823,0,0,0,3.776-3.274h1.135a1.637,1.637,0,0,0,1.637-1.637v-6a.546.546,0,0,0-.16-.386Zm-24.4,7.48a2.729,2.729,0,1,1,2.729,2.729A2.729,2.729,0,0,1,10.186,35.735Zm5.4,2.729a3.808,3.808,0,0,0,1.108-2.183h7.728a3.808,3.808,0,0,0,1.108,2.183Zm12.612,0a2.729,2.729,0,1,1,2.729-2.729A2.729,2.729,0,0,1,28.195,38.463Zm-2.729-9.277V24.274H29.06l4.592,4.592v.32Z" transform="translate(0 -5.451)" fill="#fff"/>
    <rect id="Rectangle_1" data-name="Rectangle 1" width="1" height="1" transform="translate(12.372 29.552)" fill="#fff"/>
    <rect id="Rectangle_2" data-name="Rectangle 2" width="1" height="1" transform="translate(27.372 29.552)" fill="#fff"/>
    <rect id="Rectangle_3" data-name="Rectangle 3" width="2" height="1" transform="translate(2.372 28.552)" fill="#fff"/>
    <rect id="Rectangle_4" data-name="Rectangle 4" width="1" height="1" transform="translate(3.372 25.552)" fill="#fff"/>
    <rect id="Rectangle_5" data-name="Rectangle 5" width="1" height="1" transform="translate(3.372 23.552)" fill="#fff"/>
    <path id="Path_25" data-name="Path 25" d="M9.094,23.189A7.094,7.094,0,1,0,2,16.094a7.094,7.094,0,0,0,7.094,7.094Zm0-13.1a6,6,0,1,1-6,6,6,6,0,0,1,6-6Z" transform="translate(0)" fill="#fff"/>
    <path id="Path_26" data-name="Path 26" d="M11.82,22.823a.546.546,0,0,0,.386-.16c.352-.352,3.434-3.5,3.434-5.843a3.82,3.82,0,1,0-7.64,0c0,2.341,3.083,5.492,3.434,5.843A.546.546,0,0,0,11.82,22.823Zm0-8.732a2.732,2.732,0,0,1,2.729,2.729c0,1.4-1.717,3.564-2.729,4.667-1.011-1.1-2.729-3.266-2.729-4.667a2.732,2.732,0,0,1,2.729-2.729Z" transform="translate(-2.726 -1.817)" fill="#fff"/>
    <path id="Path_27" data-name="Path 27" d="M15.274,18.637a1.637,1.637,0,1,0-1.637,1.637A1.637,1.637,0,0,0,15.274,18.637Zm-2.183,0a.546.546,0,1,1,.546.546A.546.546,0,0,1,13.091,18.637Z" transform="translate(-4.543 -3.634)" fill="#fff"/>
    <rect id="Rectangle_6" data-name="Rectangle 6" width="3" height="1" transform="translate(22.372 25.552)" fill="#fff"/>
  </g>
</svg>
