<svg xmlns="http://www.w3.org/2000/svg" width="26.512" height="19" viewBox="0 0 26.512 19">
  <g id="truck" transform="translate(0 -72.533)">
    <g id="Group_216" data-name="Group 216" transform="translate(3.535 86.231)">
      <g id="Group_215" data-name="Group 215" transform="translate(0 0)">
        <path id="Path_4239" data-name="Path 4239" d="M70.918,337.067a2.651,2.651,0,1,0,2.651,2.651A2.654,2.654,0,0,0,70.918,337.067Zm0,4.419a1.767,1.767,0,1,1,1.767-1.767A1.769,1.769,0,0,1,70.918,341.486Z" transform="translate(-68.267 -337.067)" fill="#fff"/>
      </g>
    </g>
    <g id="Group_218" data-name="Group 218" transform="translate(18.558 86.231)">
      <g id="Group_217" data-name="Group 217" transform="translate(0 0)">
        <path id="Path_4240" data-name="Path 4240" d="M361.051,337.067a2.651,2.651,0,1,0,2.651,2.651A2.654,2.654,0,0,0,361.051,337.067Zm0,4.419a1.767,1.767,0,1,1,1.767-1.767A1.769,1.769,0,0,1,361.051,341.486Z" transform="translate(-358.4 -337.067)" fill="#fff"/>
      </g>
    </g>
    <g id="Group_220" data-name="Group 220" transform="translate(16.791 77.394)">
      <g id="Group_219" data-name="Group 219" transform="translate(0 0)">
        <path id="Path_4241" data-name="Path 4241" d="M333.918,172.789l-3.977-6.186a.442.442,0,0,0-.372-.2h-4.86a.442.442,0,0,0-.442.442v11.047a.441.441,0,0,0,.442.442h1.767v-.884h-1.326V167.284h4.177l3.776,5.874v4.289h-2.209v.884h2.651a.441.441,0,0,0,.442-.442v-4.861A.441.441,0,0,0,333.918,172.789Z" transform="translate(-324.267 -166.4)" fill="#fff"/>
      </g>
    </g>
    <g id="Group_222" data-name="Group 222" transform="translate(18.558 79.161)">
      <g id="Group_221" data-name="Group 221">
        <path id="Path_4242" data-name="Path 4242" d="M359.285,204.51v-3.093h3.535v-.884h-3.977a.442.442,0,0,0-.442.442v3.977a.441.441,0,0,0,.442.442h6.628v-.884h-6.186Z" transform="translate(-358.401 -200.533)" fill="#fff"/>
      </g>
    </g>
    <g id="Group_224" data-name="Group 224" transform="translate(0 74.3)">
      <g id="Group_223" data-name="Group 223" transform="translate(0 0)">
        <path id="Path_4243" data-name="Path 4243" d="M17.233,106.667H.442a.442.442,0,0,0-.442.442v14.14a.442.442,0,0,0,.442.442H3.977v-.884H.884V107.551H16.791v13.256H8.4v.884h8.837a.441.441,0,0,0,.442-.442v-14.14A.442.442,0,0,0,17.233,106.667Z" transform="translate(0 -106.667)" fill="#fff"/>
      </g>
    </g>
    <g id="Group_226" data-name="Group 226" transform="translate(0.442 86.673)">
      <g id="Group_225" data-name="Group 225">
        <rect id="Rectangle_171" data-name="Rectangle 171" width="2.651" height="0.884" fill="#fff"/>
      </g>
    </g>
    <g id="Group_228" data-name="Group 228" transform="translate(9.279 86.673)">
      <g id="Group_227" data-name="Group 227">
        <rect id="Rectangle_172" data-name="Rectangle 172" width="7.512" height="0.884" fill="#fff"/>
      </g>
    </g>
    <g id="Group_230" data-name="Group 230" transform="translate(24.302 86.673)">
      <g id="Group_229" data-name="Group 229">
        <rect id="Rectangle_173" data-name="Rectangle 173" width="1.767" height="0.884" fill="#fff"/>
      </g>
    </g>
    <g id="Group_232" data-name="Group 232" transform="translate(1.767 76.068)">
      <g id="Group_231" data-name="Group 231" transform="translate(0 0)">
        <rect id="Rectangle_174" data-name="Rectangle 174" width="15.465" height="0.884" fill="#fff"/>
      </g>
    </g>
    <g id="Group_234" data-name="Group 234" transform="translate(5.744 88.44)">
      <g id="Group_233" data-name="Group 233" transform="translate(0 0)">
        <rect id="Rectangle_175" data-name="Rectangle 175" width="0.884" height="0.884" fill="#fff"/>
      </g>
    </g>
    <g id="Group_236" data-name="Group 236" transform="translate(20.768 88.44)">
      <g id="Group_235" data-name="Group 235" transform="translate(0 0)">
        <rect id="Rectangle_176" data-name="Rectangle 176" width="0.884" height="0.884" fill="#fff"/>
      </g>
    </g>
    <g id="Group_238" data-name="Group 238" transform="translate(1.767 72.533)">
      <g id="Group_237" data-name="Group 237" transform="translate(0 0)">
        <rect id="Rectangle_177" data-name="Rectangle 177" width="6.186" height="0.884" fill="#fff"/>
      </g>
    </g>
    <g id="Group_240" data-name="Group 240" transform="translate(0 72.533)">
      <g id="Group_239" data-name="Group 239" transform="translate(0 0)">
        <rect id="Rectangle_178" data-name="Rectangle 178" width="0.884" height="0.884" fill="#fff"/>
      </g>
    </g>
  </g>
</svg>
