<svg xmlns="http://www.w3.org/2000/svg" width="59.253" height="59.253" viewBox="0 0 59.253 59.253">
  <g id="Group_7602" data-name="Group 7602" transform="translate(-780.374 -1854.626)">
    <path id="Path_18176" data-name="Path 18176" d="M57.517,20.453H51.748a22.189,22.189,0,0,0-44.243,0H1.736A1.736,1.736,0,0,0,0,22.189V40.783a1.736,1.736,0,0,0,1.736,1.736H9.173a1.736,1.736,0,0,0,1.736-1.736V22.189a18.717,18.717,0,1,1,37.434,0V40.783a11.293,11.293,0,0,1-11.28,11.28H34.8a5.455,5.455,0,1,0,0,3.472h2.268A14.773,14.773,0,0,0,51.713,42.519h5.8a1.736,1.736,0,0,0,1.736-1.736V22.189a1.736,1.736,0,0,0-1.736-1.736ZM7.438,39.047H3.472V23.925H7.438ZM29.627,55.781A1.983,1.983,0,1,1,31.609,53.8,1.985,1.985,0,0,1,29.627,55.781ZM55.781,39.047H51.815V23.925h3.966Z" transform="translate(780.374 1854.626)" fill="#c40e0e"/>
    <path id="Path_18177" data-name="Path 18177" d="M276.8,176.864a1.736,1.736,0,0,0-1.892.376l-7.99,7.986a6.282,6.282,0,0,0-1.816,4.4,1.736,1.736,0,0,0,1.736,1.736H274.4V195.2a1.736,1.736,0,0,0,3.472,0V191.36h.123a1.736,1.736,0,1,0,0-3.472h-.123v-9.42A1.736,1.736,0,0,0,276.8,176.864Zm-2.4,11.024h-5.211a2.733,2.733,0,0,1,.188-.21l5.023-5.02Z" transform="translate(545.953 1698.347)" fill="#c40e0e"/>
    <path id="Path_18178" data-name="Path 18178" d="M141.3,195.2a1.736,1.736,0,0,0-1.736-1.736H132.62a2.7,2.7,0,0,1,.188-.21l7.986-7.983a1.736,1.736,0,0,0,.509-1.228v-.93a6.384,6.384,0,0,0-12.769,0v0a1.736,1.736,0,0,0,3.472,0,2.912,2.912,0,0,1,5.825,0v.21l-7.481,7.478a6.282,6.282,0,0,0-1.816,4.4,1.736,1.736,0,0,0,1.736,1.736h9.3A1.736,1.736,0,0,0,141.3,195.2Z" transform="translate(666.715 1698.347)" fill="#c40e0e"/>
  </g>
</svg>
