<svg xmlns="http://www.w3.org/2000/svg" width="53.566" height="53.566" viewBox="0 0 53.566 53.566">
  <g id="Group_7601" data-name="Group 7601" transform="translate(-1083 -1857)">
    <path id="Path_18179" data-name="Path 18179" d="M53.566,26.783a9.954,9.954,0,0,0-2.54-6.645,7.4,7.4,0,0,1-1.645-5.909A10.055,10.055,0,0,0,39.337,4.185,7.377,7.377,0,0,1,33.428,2.54a9.964,9.964,0,0,0-13.291,0,7.385,7.385,0,0,1-5.909,1.645A10.054,10.054,0,0,0,4.222,15.1a6.723,6.723,0,0,1-1.682,5.04,9.964,9.964,0,0,0,0,13.291,7.4,7.4,0,0,1,1.645,5.909A10.054,10.054,0,0,0,15.1,49.344a6.69,6.69,0,0,1,5.04,1.682,9.964,9.964,0,0,0,13.291,0,7.381,7.381,0,0,1,5.909-1.645A10.054,10.054,0,0,0,49.344,38.468a6.723,6.723,0,0,1,1.682-5.04,9.953,9.953,0,0,0,2.54-6.645Zm-5.658,3.855a10.923,10.923,0,0,0-2.733,8.189,5.865,5.865,0,0,1-5.837,6.37,11.13,11.13,0,0,0-8.7,2.711,5.779,5.779,0,0,1-7.71,0,10.871,10.871,0,0,0-8.189-2.733,5.865,5.865,0,0,1-6.37-5.837,11.242,11.242,0,0,0-2.711-8.7,5.779,5.779,0,0,1,0-7.71,10.923,10.923,0,0,0,2.733-8.189,5.865,5.865,0,0,1,5.837-6.37,11.131,11.131,0,0,0,8.7-2.711,5.779,5.779,0,0,1,7.71,0,11.193,11.193,0,0,0,8.7,2.711A5.865,5.865,0,0,1,45.2,14.228a11.242,11.242,0,0,0,2.711,8.7,5.779,5.779,0,0,1,0,7.71Z" transform="translate(1083 1857)" fill="#c40e0e"/>
    <path id="Path_18180" data-name="Path 18180" d="M187.521,208.748l-2.705-2.705L181.857,209l5.664,5.664,9.849-9.849-2.959-2.959Z" transform="translate(920.169 1676.26)" fill="#c40e0e"/>
    <path id="Path_18181" data-name="Path 18181" d="M112.739,96a16.739,16.739,0,1,0,16.739,16.739A16.758,16.758,0,0,0,112.739,96Zm0,29.294a12.555,12.555,0,1,1,12.555-12.555A12.569,12.569,0,0,1,112.739,125.294Z" transform="translate(997.043 1771.043)" fill="#c40e0e"/>
  </g>
</svg>
