<svg xmlns="http://www.w3.org/2000/svg" width="47.112" height="47.121" viewBox="0 0 47.112 47.121">
  <g id="Group_7600" data-name="Group 7600" transform="translate(-1386 -1861)">
    <path id="Path_18182" data-name="Path 18182" d="M45.652,40.23,36.23,49.652a.785.785,0,1,0,1.11,1.11l9.422-9.422a.785.785,0,1,0-1.11-1.11Z" transform="translate(1376.697 1850.846)" fill="#c40e0e"/>
    <path id="Path_18183" data-name="Path 18183" d="M46.356,48a2.356,2.356,0,1,0,2.356,2.356A2.356,2.356,0,0,0,46.356,48Zm0,3.141a.785.785,0,1,1,.785-.785A.785.785,0,0,1,46.356,51.141Z" transform="translate(1374.979 1849.128)" fill="#c40e0e"/>
    <path id="Path_18184" data-name="Path 18184" d="M38.356,44.711A2.356,2.356,0,1,0,36,42.356,2.356,2.356,0,0,0,38.356,44.711Zm0-3.141a.785.785,0,1,1-.785.785A.785.785,0,0,1,38.356,41.57Z" transform="translate(1376.697 1850.846)" fill="#c40e0e"/>
    <path id="Path_18185" data-name="Path 18185" d="M8.785,40A.785.785,0,0,0,8,40.785v.785a.785.785,0,0,0,1.57,0v-.785A.785.785,0,0,0,8.785,40Z" transform="translate(1382.711 1850.846)" fill="#c40e0e"/>
    <path id="Path_18186" data-name="Path 18186" d="M8.785,45A.785.785,0,0,0,8,45.785v.785a.785.785,0,1,0,1.57,0v-.785A.785.785,0,0,0,8.785,45Z" transform="translate(1382.711 1849.772)" fill="#c40e0e"/>
    <path id="Path_18187" data-name="Path 18187" d="M8.785,50A.785.785,0,0,0,8,50.785v.785a.785.785,0,1,0,1.57,0v-.785A.785.785,0,0,0,8.785,50Z" transform="translate(1382.711 1848.698)" fill="#c40e0e"/>
    <path id="Path_18188" data-name="Path 18188" d="M48.327,9.85H39.266a4.706,4.706,0,1,0-7.428-5.74A4.707,4.707,0,1,0,24.41,9.85H15.348a.785.785,0,0,0-.785.785v7.852a.785.785,0,0,0,.785.785h.785v6.282h-5.5A3.926,3.926,0,0,0,7.5,27.124a3.926,3.926,0,0,0-3.141-1.57H2.785A.785.785,0,0,0,2,26.339V48.324a.785.785,0,0,0,.785.785h1.57A3.926,3.926,0,0,0,7.5,47.539a3.926,3.926,0,0,0,3.141,1.57H42.045a.785.785,0,0,0,.785-.785V45.969h3.926a.785.785,0,0,0,.785-.785V19.272h.785a.785.785,0,0,0,.785-.785V10.635A.785.785,0,0,0,48.327,9.85ZM35.764,3.568a3.141,3.141,0,1,1,0,6.282H32.623V6.709A3.141,3.141,0,0,1,35.764,3.568ZM33.408,25.554H30.267V11.42h3.141ZM24.771,6.709a3.141,3.141,0,0,1,6.282,0V9.85H27.912A3.141,3.141,0,0,1,24.771,6.709ZM16.134,11.42H28.7V17.7H16.134Zm1.57,7.852H28.7v6.282H17.7ZM41.26,47.539H10.637a2.356,2.356,0,0,1-2.356-2.356.785.785,0,1,0-1.57,0,2.356,2.356,0,0,1-2.356,2.356H3.57V27.124h.785A2.356,2.356,0,0,1,6.711,29.48a.785.785,0,0,0,1.57,0,2.356,2.356,0,0,1,2.356-2.356H41.26ZM45.971,44.4H42.83V26.339a.785.785,0,0,0-.785-.785H34.978V19.272H45.971Zm1.57-26.7H34.978V11.42H47.542Z" transform="translate(1384 1859.011)" fill="#c40e0e"/>
    <path id="Path_18189" data-name="Path 18189" d="M28.489,40.71H25.7a3.125,3.125,0,0,0-5.06-3.626,3.124,3.124,0,0,0-5.06,3.626H12.785a.785.785,0,0,0-.785.785v3.141a.785.785,0,0,0,.785.785h.785v7.067a.785.785,0,0,0,.785.785H26.919a.785.785,0,0,0,.785-.785V45.421h.785a.785.785,0,0,0,.785-.785V41.495A.785.785,0,0,0,28.489,40.71ZM18.282,51.7H15.141V45.421h3.141Zm0-7.852H13.57V42.28h4.711Zm-1.57-4.711a1.57,1.57,0,1,1,3.141,0v1.57h-1.57A1.57,1.57,0,0,1,16.711,39.139ZM21.422,51.7h-1.57V42.28h1.57Zm0-12.563a1.57,1.57,0,1,1,1.57,1.57h-1.57ZM26.134,51.7H22.993V45.421h3.141Zm1.57-7.852H22.993V42.28H27.7Z" transform="translate(1381.852 1851.707)" fill="#c40e0e"/>
  </g>
</svg>
