<svg id="backpack" xmlns="http://www.w3.org/2000/svg" width="76.001" height="76.001" viewBox="0 0 76.001 76.001">
  <g id="Group_63" data-name="Group 63" transform="translate(16.467 48.134)">
    <g id="Group_62" data-name="Group 62">
      <path id="Path_46" data-name="Path 46" d="M147.067,304h-41.8A1.267,1.267,0,0,0,104,305.267V323a1.267,1.267,0,0,0,1.267,1.267h41.8A1.267,1.267,0,0,0,148.334,323V305.267A1.267,1.267,0,0,0,147.067,304ZM145.8,321.734H106.533v-8.867h30.4V315.4a1.267,1.267,0,1,0,2.533,0v-2.533H142a1.267,1.267,0,0,0,0-2.533H106.533v-3.8H145.8Z" transform="translate(-104 -304)" fill="#0a0b2e"/>
    </g>
  </g>
  <g id="Group_65" data-name="Group 65" transform="translate(21.824 36.756)">
    <g id="Group_64" data-name="Group 64" transform="translate(0 0)">
      <rect id="Rectangle_28" data-name="Rectangle 28" width="2" height="2" transform="translate(0.176 0.245)" fill="#0a0b2e"/>
    </g>
  </g>
  <g id="Group_67" data-name="Group 67" transform="translate(51.688 36.756)">
    <g id="Group_66" data-name="Group 66" transform="translate(0 0)">
      <rect id="Rectangle_29" data-name="Rectangle 29" width="2" height="2" transform="translate(0.312 0.245)" fill="#0a0b2e"/>
    </g>
  </g>
  <g id="Group_69" data-name="Group 69">
    <g id="Group_68" data-name="Group 68">
      <path id="Path_47" data-name="Path 47" d="M74.734,32.934H69.667V16.467A16.458,16.458,0,0,0,64.6,4.641V1.267A1.267,1.267,0,0,0,63.334,0H12.667A1.267,1.267,0,0,0,11.4,1.267V4.641A16.458,16.458,0,0,0,6.333,16.467V32.934H1.267A1.267,1.267,0,0,0,0,34.2V59.534A1.267,1.267,0,0,0,1.267,60.8H6.4A16.478,16.478,0,0,0,22.8,76H53.2A16.478,16.478,0,0,0,69.6,60.8h5.131A1.267,1.267,0,0,0,76,59.534V34.2A1.267,1.267,0,0,0,74.734,32.934ZM6.333,58.267h-3.8V40.534h3.8ZM6.333,38h-3.8V35.467h3.8Zm7.6-35.467H62.067v24.7l-2.533,1.9v-11.4a1.267,1.267,0,0,0-1.267-1.267H48.134a1.267,1.267,0,0,0-1.267,1.267V35.867a22.053,22.053,0,0,1-17.734,0V17.734a1.267,1.267,0,0,0-1.267-1.267H17.734a1.267,1.267,0,0,0-1.267,1.267v11.4l-2.533-1.9ZM49.4,24.067V19H57v5.067ZM57,26.6V39.9l-3.8,2.85L49.4,39.9V26.6ZM19,24.067V19h7.6v5.067ZM26.6,26.6V39.9l-3.8,2.85L19,39.9V26.6ZM67.134,59.534A13.95,13.95,0,0,1,53.2,73.467H22.8A13.95,13.95,0,0,1,8.867,59.534V16.467A13.88,13.88,0,0,1,11.4,8.51V27.867a1.267,1.267,0,0,0,.507,1.013l4.56,3.42v8.233a1.267,1.267,0,0,0,.507,1.013l5.067,3.8a1.267,1.267,0,0,0,1.52,0l5.067-3.8a1.267,1.267,0,0,0,.507-1.013V38.6a24.329,24.329,0,0,0,17.734,0v1.93a1.267,1.267,0,0,0,.507,1.013l5.067,3.8a1.267,1.267,0,0,0,1.52,0l5.067-3.8a1.267,1.267,0,0,0,.507-1.013V32.3l4.56-3.42a1.267,1.267,0,0,0,.507-1.013V8.51a13.88,13.88,0,0,1,2.533,7.957V59.534Zm6.333-1.267h-3.8V40.534h3.8Zm0-20.267h-3.8V35.467h3.8Z" fill="#0a0b2e"/>
    </g>
  </g>
</svg>
