<svg xmlns="http://www.w3.org/2000/svg" width="17.274" height="17.666" viewBox="0 0 17.274 17.666">
  <g id="calendar" transform="translate(-5.411)">
    <g id="Group_7125" data-name="Group 7125" transform="translate(5.411)">
      <path id="Path_17636" data-name="Path 17636" d="M119.236,258.643a.4.4,0,0,0-.4-.4h-1.4a.4.4,0,0,0-.4.4v1.4a.4.4,0,0,0,.4.4h1.4a.4.4,0,0,0,.4-.4v-1.4Z" transform="translate(-112.995 -248.896)" fill="#e8004f"/>
      <path id="Path_17637" data-name="Path 17637" d="M215.871,258.643a.4.4,0,0,0-.4-.4h-1.4a.4.4,0,0,0-.4.4v1.4a.4.4,0,0,0,.4.4h1.4a.4.4,0,0,0,.4-.4Z" transform="translate(-206.133 -248.896)" fill="#e8004f"/>
      <path id="Path_17638" data-name="Path 17638" d="M312.5,258.643a.4.4,0,0,0-.4-.4h-1.4a.4.4,0,0,0-.4.4v1.4a.4.4,0,0,0,.4.4h1.4a.4.4,0,0,0,.4-.4Z" transform="translate(-299.264 -248.896)" fill="#e8004f"/>
      <path id="Path_17639" data-name="Path 17639" d="M119.236,355.276a.4.4,0,0,0-.4-.4h-1.4a.4.4,0,0,0-.4.4v1.4a.4.4,0,0,0,.4.4h1.4a.4.4,0,0,0,.4-.4v-1.4Z" transform="translate(-112.995 -342.032)" fill="#e8004f"/>
      <path id="Path_17640" data-name="Path 17640" d="M215.871,355.276a.4.4,0,0,0-.4-.4h-1.4a.4.4,0,0,0-.4.4v1.4a.4.4,0,0,0,.4.4h1.4a.4.4,0,0,0,.4-.4Z" transform="translate(-206.133 -342.032)" fill="#e8004f"/>
      <path id="Path_17641" data-name="Path 17641" d="M312.5,355.276a.4.4,0,0,0-.4-.4h-1.4a.4.4,0,0,0-.4.4v1.4a.4.4,0,0,0,.4.4h1.4a.4.4,0,0,0,.4-.4v-1.4Z" transform="translate(-299.264 -342.032)" fill="#e8004f"/>
      <path id="Path_17642" data-name="Path 17642" d="M21.148,54.15v2.137A1.745,1.745,0,0,1,19.4,58.031h-1.1a1.754,1.754,0,0,1-1.76-1.744V54.142H11.561v2.145A1.754,1.754,0,0,1,9.8,58.031H8.7a1.745,1.745,0,0,1-1.749-1.744V54.15a1.591,1.591,0,0,0-1.538,1.582V68.256a1.591,1.591,0,0,0,1.583,1.593H21.1a1.593,1.593,0,0,0,1.583-1.593V55.732A1.591,1.591,0,0,0,21.148,54.15Zm-.513,13.326a.685.685,0,0,1-.685.685H8.116a.685.685,0,0,1-.685-.685V61.007a.685.685,0,0,1,.685-.685H19.951a.685.685,0,0,1,.685.685v6.469Z" transform="translate(-5.411 -52.183)" fill="#e8004f"/>
      <path id="Path_17643" data-name="Path 17643" d="M80.15,4.7h1.092a.6.6,0,0,0,.6-.6V.6a.6.6,0,0,0-.6-.6H80.15a.6.6,0,0,0-.6.6V4.1A.6.6,0,0,0,80.15,4.7Z" transform="translate(-76.867)" fill="#e8004f"/>
      <path id="Path_17644" data-name="Path 17644" d="M345.058,4.7h1.092a.6.6,0,0,0,.6-.6V.6a.6.6,0,0,0-.6-.6h-1.092a.6.6,0,0,0-.6.6V4.1A.6.6,0,0,0,345.058,4.7Z" transform="translate(-332.188)" fill="#e8004f"/>
    </g>
  </g>
</svg>
