<svg xmlns="http://www.w3.org/2000/svg" width="47.958" height="38.368" viewBox="0 0 47.958 38.368">
  <g id="card" transform="translate(-16 -64.021)">
    <path id="Path_4244" data-name="Path 4244" d="M64.8,345.6H87.182a.8.8,0,1,0,0-1.6H64.8a.8.8,0,1,0,0,1.6Z" transform="translate(-43.204 -252.003)" fill="#0a0b2e"/>
    <path id="Path_4245" data-name="Path 4245" d="M64.8,385.6H87.182a.8.8,0,0,0,0-1.6H64.8a.8.8,0,0,0,0,1.6Z" transform="translate(-43.204 -288.006)" fill="#0a0b2e"/>
    <path id="Path_4246" data-name="Path 4246" d="M64.8,214.395H83.984a.8.8,0,0,0,.8-.8v-4.8a.8.8,0,0,0-.8-.8H64.8a.8.8,0,0,0-.8.8v4.8A.8.8,0,0,0,64.8,214.395Zm.8-4.8H83.185v3.2H65.6Z" transform="translate(-43.204 -129.592)" fill="#0a0b2e"/>
    <path id="Path_4247" data-name="Path 4247" d="M64.8,305.6h6.395a.8.8,0,1,0,0-1.6H64.8a.8.8,0,1,0,0,1.6Z" transform="translate(-43.204 -216)" fill="#0a0b2e"/>
    <path id="Path_4248" data-name="Path 4248" d="M160.8,304a.8.8,0,1,0,0,1.6h4.8a.8.8,0,1,0,0-1.6Z" transform="translate(-129.611 -216)" fill="#0a0b2e"/>
    <path id="Path_4249" data-name="Path 4249" d="M339.2,342.395a3.2,3.2,0,1,0-3.2-3.2A3.2,3.2,0,0,0,339.2,342.395Zm0-4.8a1.6,1.6,0,1,1-1.6,1.6,1.6,1.6,0,0,1,1.6-1.6Z" transform="translate(-288.025 -244.802)" fill="#0a0b2e"/>
    <path id="Path_4250" data-name="Path 4250" d="M308.921,115.846a13.813,13.813,0,0,0,3.4,2.4.8.8,0,0,0,.708,0,13.61,13.61,0,0,0,7.574-11.435.8.8,0,0,0-.377-.754c-1.722-1.061-4.6-2.826-7.12-4.375a.8.8,0,0,0-.837,0l-7.115,4.38a.8.8,0,0,0-.377.754A13.894,13.894,0,0,0,308.921,115.846Zm3.772-12.547c2.214,1.359,4.629,2.842,6.269,3.852a11.959,11.959,0,0,1-6.282,9.476,11.952,11.952,0,0,1-6.254-9.47Z" transform="translate(-259.923 -33.789)" fill="#0a0b2e"/>
    <path id="Path_4251" data-name="Path 4251" d="M354.4,165.6a.8.8,0,0,0,.565-.234l4-4a.8.8,0,1,0-1.131-1.131l-3.432,3.432-1.034-1.034a.8.8,0,0,0-1.13,1.131l1.6,1.6A.8.8,0,0,0,354.4,165.6Z" transform="translate(-302.426 -86.388)" fill="#0a0b2e"/>
    <path id="Path_4252" data-name="Path 4252" d="M20,102.389H55.169a4,4,0,0,0,4-4V83.951a17.689,17.689,0,0,0,4.792-12.738.8.8,0,0,0-.38-.681L53.19,64.138a.82.82,0,0,0-.842,0L41.96,70.533a.8.8,0,0,0-.38.681,22.474,22.474,0,0,0,.126,2.4H20a4,4,0,0,0-4,4V98.392a4,4,0,0,0,4,4ZM52.769,65.756l9.586,5.9A15.768,15.768,0,0,1,57.48,83.368a14.918,14.918,0,0,1-4.713,2.991,14.787,14.787,0,0,1-4.658-2.943,15.754,15.754,0,0,1-4.927-11.759ZM17.6,77.608a2.4,2.4,0,0,1,2.4-2.4H41.942a16.78,16.78,0,0,0,5.082,9.38,15.784,15.784,0,0,0,5.495,3.374.8.8,0,0,0,.236.036h.029a.8.8,0,0,0,.236-.036A15.282,15.282,0,0,0,57.567,85.4v12.99a2.4,2.4,0,0,1-2.4,2.4H20a2.4,2.4,0,0,1-2.4-2.4Z" fill="#0a0b2e"/>
  </g>
</svg>
