<svg xmlns="http://www.w3.org/2000/svg" width="76.539" height="82.006" viewBox="0 0 76.539 82.006">
  <g id="coat" transform="translate(-17.065 -1)">
    <g id="Group_57" data-name="Group 57" transform="translate(17.065 1)">
      <g id="Group_56" data-name="Group 56">
        <circle id="Ellipse_7" data-name="Ellipse 7" cx="1.367" cy="1.367" r="1.367" transform="translate(36.903 46.47)" fill="#0a0b2e"/>
        <path id="Path_38" data-name="Path 38" d="M93.576,74.53c-.825-4.015-4.911-25.5-5.381-27.912-.476-2.449-.924-4.722-1.355-6.87-3.409-17-5.6-25.807-7.332-27.44-1.327-1.253-4.962-3.131-8.324-4.275L65.97,1.514l0,0c-.028-.035-.058-.068-.09-.1l-.018-.019a1.326,1.326,0,0,0-.105-.093l-.009-.007a1.319,1.319,0,0,0-.5-.246l-.059-.013c-.033-.007-.065-.014-.1-.018A1.341,1.341,0,0,0,64.921,1L64.9,1H45.749a1.405,1.405,0,0,0-.166.012c-.034,0-.066.011-.1.018l-.059.013a1.322,1.322,0,0,0-.5.246l-.009.007a1.388,1.388,0,0,0-.105.093l-.018.019c-.031.032-.062.065-.09.1l0,0L39.485,8.032c-3.361,1.145-7,3.022-8.324,4.275-1.729,1.633-3.923,10.439-7.332,27.44-.431,2.148-.879,4.421-1.355,6.87-.47,2.417-4.556,23.9-5.381,27.912a1.367,1.367,0,0,0,1.146,1.628l9.567,1.367a1.367,1.367,0,0,0,1.538-1.11L29.42,76l.213-1.176c.23-1.267.487-2.679.764-4.2.793-4.344,1.595-8.689,2.353-12.743l.2-1.056c1.819-9.7,3.088-16.072,3.439-17.121.3-.907.841-2.317,1.551-4.08l.18-.446c.186-.46.378-.929.574-1.4a53.506,53.506,0,0,1,1.507,9.6h-.01l-.049.006-.066.009-.049.01-.063.014-.049.014-.06.019-.048.018-.057.023-.046.022-.054.028-.044.025-.052.032-.042.029-.049.036-.04.032-.045.04-.037.035-.042.044-.034.038-.039.048-.031.04c-.012.017-.024.035-.035.052l-.027.042c-.011.019-.021.038-.032.057s-.016.028-.023.042-.019.042-.028.063-.013.028-.018.042-.017.048-.025.073-.009.024-.012.037q-.017.056-.029.114c-.22,1.059-.406,2.144-.67,3.847.006-.04-.258,1.677-.336,2.171-.132.838-.248,1.542-.369,2.221a1.388,1.388,0,0,0-.017.141c0,.014,0,.028,0,.042,0,.034,0,.067,0,.1,0,.014,0,.029,0,.043q0,.058.012.115c0,.007,0,.014,0,.021.007.044.017.088.029.131,0,.012.007.024.011.035q.014.047.031.093l.016.04q.02.048.043.093l.013.027q.031.058.067.112l.018.025q.029.042.061.081l.027.032q.032.037.066.071l.025.026c.032.03.065.059.1.086l.018.013c.029.022.06.043.091.063l.036.022c.028.016.056.032.085.046l.035.018.018.009c-2.155,9.892-3.541,18.688-3.541,24.721a1.367,1.367,0,0,0,.756,1.222,29,29,0,0,0,10.042,2.529,89.876,89.876,0,0,0,9.7.349,89.832,89.832,0,0,0,9.7-.349A29,29,0,0,0,75.08,80.128a1.367,1.367,0,0,0,.756-1.222c0-6.033-1.386-14.829-3.541-24.721l.018-.009.035-.018c.029-.015.057-.03.085-.046l.036-.022q.047-.03.091-.063l.017-.012c.034-.027.067-.056.1-.086L72.7,53.9c.023-.023.045-.047.067-.071L72.8,53.8c.021-.026.042-.053.061-.081l.018-.025q.036-.055.067-.112l.013-.027c.016-.031.03-.062.043-.094l.016-.04c.012-.031.022-.062.031-.093,0-.012.008-.024.011-.035.012-.043.021-.086.029-.131,0-.007,0-.014,0-.021.006-.038.01-.076.012-.115,0-.014,0-.029,0-.043q0-.05,0-.1c0-.014,0-.028,0-.042,0-.047-.009-.094-.017-.141-.121-.679-.237-1.383-.369-2.221-.078-.494-.342-2.212-.336-2.171-.264-1.7-.449-2.788-.67-3.847-.008-.039-.018-.077-.029-.114,0-.012-.008-.024-.012-.037s-.016-.049-.025-.073-.012-.028-.018-.042-.018-.042-.028-.062-.015-.029-.023-.043-.021-.038-.032-.057l-.027-.042c-.012-.017-.023-.035-.035-.052l-.031-.04-.039-.048-.034-.038-.042-.044-.037-.035-.045-.04-.04-.032-.048-.036-.042-.029-.052-.032-.045-.025-.054-.028-.046-.022-.057-.023-.048-.018-.06-.019-.049-.014-.063-.014-.049-.01-.066-.009-.049-.006h-.01a53.506,53.506,0,0,1,1.507-9.6c.2.474.387.943.574,1.4l.18.446c.71,1.763,1.249,3.173,1.551,4.079.35,1.05,1.62,7.424,3.439,17.122l.2,1.056c.758,4.054,1.56,8.4,2.353,12.743.278,1.521.535,2.932.764,4.2L81.249,76l.075.416a1.367,1.367,0,0,0,1.538,1.11l9.567-1.367A1.367,1.367,0,0,0,93.576,74.53ZM68.648,9.463c-.423.575-1.02,1.308-1.653,2.024a13.884,13.884,0,0,1-3.314,3.028q-.111.036-.221.065h-.006a3.709,3.709,0,0,1-1.119.116,7.183,7.183,0,0,1-2.673-.8l-.007,0c-.381-.18-.745-.363-1.353-.678l-.267-.138-.483-.249,3.56-4.063L64.854,4.5l3.879,4.849Zm.39,36.64a9.684,9.684,0,0,1,.638,2.62c-.007-.045.258,1.678.337,2.178l.058.369.016.1c.011.067.021.135.032.2H60.63a5.458,5.458,0,0,0,.125-.656c0-.013,0-.026,0-.038q.017-.137.027-.276c0-.024,0-.047.005-.071.006-.108.011-.217.011-.326V47.47c0-.11,0-.218-.011-.326,0-.024,0-.047-.005-.071q-.01-.139-.027-.276l0-.038a5.456,5.456,0,0,0-.125-.656h8.408ZM51.218,13.8l-.1.049-.106.05h0l-.017.008a7.688,7.688,0,0,1-2.422.771c-.057.006-.112.009-.168.013l-.066,0a3.709,3.709,0,0,1-1.116-.115l-.01,0q-.111-.029-.221-.065a13.882,13.882,0,0,1-3.314-3.027c-.633-.715-1.23-1.448-1.653-2.024l-.086-.119L45.816,4.5,49.56,8.768l3.56,4.063-.066.034-.188.1-.01,0-.3.155c-.649.336-1.011.52-1.33.674ZM61.888,3.734,59.058,6.963l-3.723,4.249L51.612,6.963,48.782,3.734H61.888Zm-26.3,30.416L35.4,34.6c-.73,1.812-1.284,3.263-1.609,4.237-.413,1.239-1.65,7.45-3.532,17.482l-.2,1.057c-.759,4.059-1.561,8.406-2.355,12.755-.278,1.522-.535,2.935-.765,4.2l-.054.3-6.833-.976c1.227-6.206,4.675-24.327,5.1-26.517.475-2.444.922-4.712,1.352-6.854,3.089-15.4,5.48-25,6.529-25.99a25.012,25.012,0,0,1,6.567-3.4l.029.038.126.167.057.073.136.172L40,11.4q.093.116.195.239l.053.064.167.2.07.082.2.236.033.039.255.295.073.083.211.241.079.09.29.329c1.791,2.025,3.362,3.443,4.521,3.818a6.414,6.414,0,0,0,2.539.3,10.155,10.155,0,0,0,3.475-1.041l.009,0h0c.411-.193.8-.389,1.4-.7l.266-.138.3-.156.132-.068L54.3,15.3c.43-.221.748-.379,1.038-.515.29.136.609.295,1.04.516l.021.011.139.071.3.156.266.138c.592.307.982.5,1.39.694l.007,0h0a10.164,10.164,0,0,0,3.484,1.046c.04,0,.08,0,.12.006.081.005.162.011.242.013h.045a74.5,74.5,0,0,1,.018,25.931H58.949a5.462,5.462,0,0,0-7.229,0H42.936A53.942,53.942,0,0,0,40.2,29.283l0-.008q-.29-.821-.618-1.6a22.416,22.416,0,0,0-2.269-4.244,1.367,1.367,0,1,0-2.214,1.6c.107.148.314.463.588.932a23.924,23.924,0,0,1,1.375,2.769c.131.312.256.632.378.957-.132.311-.276.653-.432,1.023C36.52,31.868,36.037,33.035,35.585,34.149ZM53.407,52.141a1.417,1.417,0,0,0-.091-.118A2.744,2.744,0,0,1,52.65,50.7c0-.013,0-.026-.006-.039-.012-.067-.022-.134-.029-.2-.008-.086-.013-.172-.013-.26V47.47c0-.088,0-.174.013-.26.007-.068.017-.135.029-.2,0-.013,0-.026.006-.039a2.744,2.744,0,0,1,.666-1.318,1.417,1.417,0,0,0,.091-.118,2.733,2.733,0,0,1,3.857,0,1.417,1.417,0,0,0,.091.118,2.744,2.744,0,0,1,.666,1.318c0,.013,0,.026.006.039.012.067.022.134.029.2.008.086.013.172.013.26V50.2c0,.088,0,.174-.013.26-.007.068-.017.135-.029.2,0,.013,0,.026-.006.039a2.744,2.744,0,0,1-.666,1.318,1.417,1.417,0,0,0-.091.118,2.733,2.733,0,0,1-3.857,0Zm-12.856-.57.03-.188.019-.117c.019-.119.038-.24.058-.364.079-.5.343-2.222.337-2.178.168-1.081.3-1.9.433-2.62H50.04a5.454,5.454,0,0,0-.125.655l0,.039q-.017.137-.027.276c0,.024,0,.047-.005.071-.006.108-.011.217-.011.326V50.2c0,.11,0,.218.011.326,0,.024,0,.047.005.071q.01.139.027.276l0,.039a5.454,5.454,0,0,0,.125.655H40.551ZM45.9,79.937a28.419,28.419,0,0,1-8.327-1.9c.127-5.856,1.5-14.314,3.57-23.735H51.721a5.462,5.462,0,0,0,7.229,0h3.519c1.527,6.507,1.39,14.788-.133,25.827-1.888.111-3.929.141-7,.141A87.68,87.68,0,0,1,45.9,79.937Zm27.189-1.9a27.845,27.845,0,0,1-7.967,1.86c1.441-10.707,1.589-18.926.145-25.6h4.253C71.591,63.725,72.966,72.183,73.093,78.039ZM83.78,74.633l-.054-.3c-.23-1.268-.487-2.681-.765-4.2-.794-4.348-1.6-8.7-2.355-12.755l-.2-1.057c-1.882-10.032-3.119-16.243-3.532-17.483-.324-.973-.878-2.424-1.608-4.236l-.182-.452c-.452-1.114-.935-2.281-1.418-3.432-.155-.37-.3-.712-.432-1.023.122-.324.247-.644.378-.957a23.922,23.922,0,0,1,1.375-2.769c.274-.469.481-.785.588-.932a1.367,1.367,0,0,0-2.214-1.6,22.426,22.426,0,0,0-2.269,4.244q-.327.777-.618,1.6l0,.008A53.943,53.943,0,0,0,67.734,43.37H65.186a77.508,77.508,0,0,0-.119-26.493A16.724,16.724,0,0,0,69.043,13.3l.29-.329.079-.09.213-.243.07-.081.256-.3.033-.038.2-.238.068-.08.17-.2.05-.06q.1-.124.2-.242l.042-.052q.073-.092.141-.18l.052-.067q.07-.092.135-.179l.022-.029a25.017,25.017,0,0,1,6.567,3.4c1.049.991,3.44,10.589,6.529,25.99.43,2.143.877,4.41,1.352,6.854.426,2.19,3.874,20.311,5.1,26.517Z" transform="translate(-17.065 -1)" fill="#0a0b2e"/>
        <circle id="Ellipse_8" data-name="Ellipse 8" cx="1.367" cy="1.367" r="1.367" transform="translate(34.169 24.602)" fill="#0a0b2e"/>
        <circle id="Ellipse_9" data-name="Ellipse 9" cx="1.367" cy="1.367" r="1.367" transform="translate(41.003 24.602)" fill="#0a0b2e"/>
        <circle id="Ellipse_10" data-name="Ellipse 10" cx="1.367" cy="1.367" r="1.367" transform="translate(34.169 32.803)" fill="#0a0b2e"/>
        <circle id="Ellipse_11" data-name="Ellipse 11" cx="1.367" cy="1.367" r="1.367" transform="translate(41.003 32.803)" fill="#0a0b2e"/>
        <circle id="Ellipse_12" data-name="Ellipse 12" cx="1.367" cy="1.367" r="1.367" transform="translate(34.169 60.138)" fill="#0a0b2e"/>
        <circle id="Ellipse_13" data-name="Ellipse 13" cx="1.367" cy="1.367" r="1.367" transform="translate(34.169 68.338)" fill="#0a0b2e"/>
        <circle id="Ellipse_14" data-name="Ellipse 14" cx="1.367" cy="1.367" r="1.367" transform="translate(41.003 60.138)" fill="#0a0b2e"/>
        <circle id="Ellipse_15" data-name="Ellipse 15" cx="1.367" cy="1.367" r="1.367" transform="translate(41.003 68.338)" fill="#0a0b2e"/>
      </g>
    </g>
  </g>
</svg>
