<svg xmlns="http://www.w3.org/2000/svg" width="64" height="64" viewBox="0 0 64 64">
  <g id="running" transform="translate(-16 -16)">
    <path id="Path_42" data-name="Path 42" d="M74.89,62.933h-2.5L70.039,57.6h.584a1.067,1.067,0,1,0,0-2.133H69.1l-.939-2.133h.328a1.067,1.067,0,0,0,0-2.133H67.223l-.939-2.133h.072a1.067,1.067,0,0,0,0-2.133H65.346L64.4,44.784a1.067,1.067,0,0,0-.177-2.117h-.755l-2.445-5.558V33.067a3.2,3.2,0,0,0-.052-.573L75.644,17.821A1.067,1.067,0,0,0,74.89,16H45.023a1.067,1.067,0,0,0-.754.312l-2.452,2.452a3.2,3.2,0,0,0-4.389.123L22.936,33.379l-1.4,1.4a9.6,9.6,0,0,0,0,13.577L31.939,58.768a3.179,3.179,0,0,0,2.263.937h3.355a1.068,1.068,0,0,1,1.067,1.067v3.411a3.179,3.179,0,0,0,.937,2.263l8.868,8.868A15.9,15.9,0,0,0,59.742,80H77.023a5.339,5.339,0,0,0,5.333-5.333V70.4a7.475,7.475,0,0,0-7.467-7.467Zm0,2.133A5.339,5.339,0,0,1,80.223,70.4v1.067H67.392a11.657,11.657,0,0,1-8.3-3.437l-27.9-27.9a9.6,9.6,0,0,0,0-11.984l3.166-3.166v.657a13.776,13.776,0,0,0,4.061,9.8l5.3,5.3a13.776,13.776,0,0,0,9.8,4.061h3.219l.939,2.133H54.623a1.067,1.067,0,0,0,0,2.133h4l.939,2.133h-2.8a1.067,1.067,0,0,0,0,2.133H60.5l.939,2.133H58.89a1.067,1.067,0,0,0,0,2.133h3.485l1.884,4.281a5.335,5.335,0,0,0,4.882,3.185Zm-4.835-2.133h-.915a3.2,3.2,0,0,1-2.929-1.911L64.706,57.6h3ZM66.77,55.467h-3l-.939-2.133h3ZM64.893,51.2h-3l-.939-2.133h3Zm-4.88-4.267L59.074,44.8h3l.939,2.133Zm-1.877-4.267L56.258,38.4h3l1.877,4.267Zm.755-6.4h-5c-.112,0-.223,0-.335-.008V33.067A1.068,1.068,0,0,1,54.623,32h3.2a1.068,1.068,0,0,1,1.067,1.067ZM45.465,18.133h26.85L59.853,30.595a3.185,3.185,0,0,0-2.03-.728h-3.2a3.2,3.2,0,0,0-3.2,3.2V35.85a7.436,7.436,0,0,1-2.812-1.77l-3.535-3.535a7.418,7.418,0,0,1-2.187-5.28V21.15a3.236,3.236,0,0,0-.027-.414ZM38.936,20.4a1.067,1.067,0,0,1,1.821.754v4.115a9.537,9.537,0,0,0,2.812,6.788L47.1,35.588A9.537,9.537,0,0,0,53.891,38.4h.036L55.8,42.667h-2.28a11.656,11.656,0,0,1-8.3-3.436l-5.3-5.3a11.656,11.656,0,0,1-3.436-8.3v-2.79Zm-9.265,9.265a7.474,7.474,0,0,1,0,8.945L25.2,34.133ZM77.023,77.867h-3.2V76.8a1.067,1.067,0,0,0-2.133,0v1.067h-6.4V76.8a1.067,1.067,0,1,0-2.133,0v1.067H59.742a13.761,13.761,0,0,1-8.906-3.237l2.408-2.408a1.067,1.067,0,0,0-1.509-1.509L49.29,73.158,44.4,68.267l2.446-2.445a1.067,1.067,0,1,0-1.509-1.509L42.89,66.758l-1.821-1.82a1.06,1.06,0,0,1-.312-.754V60.772a3.2,3.2,0,0,0-3.2-3.2H34.2a1.06,1.06,0,0,1-.754-.312l-3.954-3.954,2.418-2.418A1.067,1.067,0,0,0,30.4,49.379L27.984,51.8l-4.891-4.891,2.418-2.418A1.067,1.067,0,0,0,24,42.979l-2.214,2.214a7.471,7.471,0,0,1,1.252-8.9l.65-.651,33.9,33.9A13.776,13.776,0,0,0,67.392,73.6H80.223v1.067A3.2,3.2,0,0,1,77.023,77.867Z" transform="translate(-2.357)" fill="#0a0b2e"/>
    <path id="Path_43" data-name="Path 43" d="M17.067,338.133h9.6a1.067,1.067,0,1,0,0-2.133h-9.6a1.067,1.067,0,1,0,0,2.133Z" transform="translate(0 -277.333)" fill="#0a0b2e"/>
    <path id="Path_44" data-name="Path 44" d="M39.467,432h-22.4a1.067,1.067,0,1,0,0,2.133h22.4a1.067,1.067,0,1,0,0-2.133Z" transform="translate(0 -360.533)" fill="#0a0b2e"/>
    <path id="Path_45" data-name="Path 45" d="M17.067,386.133h16a1.067,1.067,0,1,0,0-2.133h-16a1.067,1.067,0,1,0,0,2.133Z" transform="translate(0 -318.933)" fill="#0a0b2e"/>
  </g>
</svg>
