<svg xmlns="http://www.w3.org/2000/svg" width="111.739" height="70.94" viewBox="0 0 111.739 70.94">
  <g id="sunglasses" transform="translate(0 -93.474)">
    <path id="Path_48" data-name="Path 48" d="M87.125,287.611l6.394-11.627a6.72,6.72,0,0,0-1.587-8.391c-4.363-3.641-8.9-5.06-16.165-5.06a88.712,88.712,0,0,0-11.146.732,7.876,7.876,0,0,0-6.3,10.781l4.754,12a5.99,5.99,0,0,0,5.6,3.8H83.335A4.32,4.32,0,0,0,87.125,287.611Zm-21-2.765L61.4,272.913l-.033-.082a4.6,4.6,0,0,1,3.672-6.319,85.4,85.4,0,0,1,10.732-.706c6.583,0,10.264,1.125,14.067,4.3l0,0a3.441,3.441,0,0,1,.814,4.3l-6.4,11.63a1.049,1.049,0,0,1-.92.545H68.676A2.734,2.734,0,0,1,66.121,284.846Z" transform="translate(-45.141 -132.163)" fill="#0a0b2e"/>
    <path id="Path_49" data-name="Path 49" d="M297.548,289.856h14.658a5.99,5.99,0,0,0,5.6-3.8l4.723-11.928.028-.07a7.876,7.876,0,0,0-6.3-10.788,88.72,88.72,0,0,0-11.146-.732c-7.27,0-11.8,1.419-16.165,5.06a6.721,6.721,0,0,0-1.587,8.391l6.392,11.624A4.322,4.322,0,0,0,297.548,289.856Zm-6.5-19.748,0,0c3.8-3.174,7.485-4.3,14.068-4.3a85.411,85.411,0,0,1,10.732.706,4.6,4.6,0,0,1,3.673,6.316l-4.759,12.017a2.734,2.734,0,0,1-2.556,1.736H297.548a1.05,1.05,0,0,1-.922-.549l-6.394-11.627a3.442,3.442,0,0,1,.814-4.3Z" transform="translate(-224.002 -132.163)" fill="#0a0b2e"/>
    <path id="Path_50" data-name="Path 50" d="M108.539,127.574c-.417-.12-.907-.257-1.459-.4l-8.394-12.05A1.637,1.637,0,1,0,96,116.991l6.283,9.019c-1.907-.413-4.125-.839-6.564-1.212L85.04,106.269a9,9,0,0,0-10.471-4.06,2.8,2.8,0,1,1-.848-5.462,15.671,15.671,0,0,1,12.852,6.71l5.061,7.265a1.637,1.637,0,0,0,2.686-1.871l-5.061-7.265a18.947,18.947,0,0,0-15.538-8.112,6.07,6.07,0,1,0,1.841,11.855A5.712,5.712,0,0,1,82.2,107.9L91.63,124.26a93.979,93.979,0,0,0-10.516-.613c-8.906,0-14.837,1.918-20.472,6.621a7.266,7.266,0,0,1-9.544,0c-5.635-4.7-11.566-6.621-20.472-6.621a93.972,93.972,0,0,0-10.516.613L29.536,107.9a5.712,5.712,0,0,1,6.642-2.575,6.07,6.07,0,1,0,1.841-11.855,18.948,18.948,0,0,0-15.538,8.112L4.66,127.17c-.551.148-1.042.285-1.459.4A4.448,4.448,0,0,0,0,131.83v4.145a4.661,4.661,0,0,0,3.066,4.281,7.83,7.83,0,0,1,3.9,4.18l4.722,11.925a12.677,12.677,0,0,0,11.849,8.052h3.552a1.637,1.637,0,0,0,0-3.274H23.535a9.42,9.42,0,0,1-8.805-5.984l-4.722-11.925a11.1,11.1,0,0,0-5.5-5.913c-.927-.456-1.236-.714-1.236-1.343V131.83a1.159,1.159,0,0,1,.833-1.11,100.672,100.672,0,0,1,26.519-3.8c8.169,0,13.321,1.643,18.374,5.861a10.586,10.586,0,0,0,13.74,0c5.053-4.218,10.205-5.861,18.374-5.861a100.448,100.448,0,0,1,24.2,3.168l.014,0c.916.235,1.693.45,2.31.628a1.159,1.159,0,0,1,.833,1.11v4.145c0,.791-.552.988-1.474,1.462a11.1,11.1,0,0,0-5.26,5.794l-4.722,11.925a9.42,9.42,0,0,1-8.805,5.984H73.546a7.768,7.768,0,0,1-6.817-4.042l-5.665-10.356a5.839,5.839,0,0,0-5.192-3.075h0a5.843,5.843,0,0,0-5.2,3.075L45.01,157.1a7.768,7.768,0,0,1-6.817,4.042H34.725a1.637,1.637,0,1,0,0,3.274h3.468a11.04,11.04,0,0,0,9.689-5.744l5.665-10.356a2.65,2.65,0,0,1,4.644,0l5.665,10.356a11.041,11.041,0,0,0,9.689,5.744H88.2a12.676,12.676,0,0,0,11.849-8.052l4.722-11.925a7.833,7.833,0,0,1,3.9-4.18,4.66,4.66,0,0,0,3.066-4.281V131.83a4.446,4.446,0,0,0-3.2-4.256ZM25.167,103.458a15.672,15.672,0,0,1,12.852-6.71,2.8,2.8,0,0,1,2.741,3.351,2.8,2.8,0,0,1-3.589,2.111A9,9,0,0,0,26.7,106.27L16.021,124.8c-2.439.373-4.657.8-6.564,1.212Z" transform="translate(0)" fill="#0a0b2e"/>
  </g>
</svg>
