<svg xmlns="http://www.w3.org/2000/svg" width="35.157" height="39.131" viewBox="0 0 35.157 39.131">
  <g id="support" transform="translate(-26)">
    <g id="Group_242" data-name="Group 242" transform="translate(51.221 30.265)">
      <g id="Group_241" data-name="Group 241">
        <path id="Path_4253" data-name="Path 4253" d="M356.764,396a.764.764,0,1,0,.764.764A.765.765,0,0,0,356.764,396Z" transform="translate(-356 -396)" fill="#0a0b2e"/>
      </g>
    </g>
    <g id="Group_244" data-name="Group 244" transform="translate(26)">
      <g id="Group_243" data-name="Group 243">
        <path id="Path_4254" data-name="Path 4254" d="M53.867,27.794l-3.633-1.211-1.3-2.608A8.371,8.371,0,0,0,51.2,19.547l.163-.975H52.75a2.3,2.3,0,0,0,2.293-2.293V11.464a11.464,11.464,0,0,0-22.928,0v4.815a2.3,2.3,0,0,0,1.529,2.161v.9a2.3,2.3,0,0,0,2.293,2.293h.671a8.291,8.291,0,0,0,1.282,1.985c.108.124.221.245.337.362l-1.3,2.607-3.633,1.211A11.265,11.265,0,0,0,26,38.367a.764.764,0,0,0,.764.764H60.392a.764.764,0,0,0,.764-.764A11.265,11.265,0,0,0,53.867,27.794Zm-.353-11.515a.765.765,0,0,1-.764.764H51.583c.194-1.5.324-3.106.376-4.683,0-.044,0-.088,0-.131h1.551Zm-19.107.764a.765.765,0,0,1-.764-.764V12.228h1.551q0,.12.008.24v.008h0c.054,1.534.181,3.094.371,4.566H34.407ZM35.936,20.1a.765.765,0,0,1-.764-.764v-.764H35.8l.163.975c.031.185.069.37.113.553Zm-.763-9.4h-1.5a9.936,9.936,0,0,1,19.813,0h-1.5a7.741,7.741,0,0,0-7.722-7.643H42.894A7.741,7.741,0,0,0,35.173,10.7Zm7.722-6.114h1.368a6.215,6.215,0,0,1,6.194,6.222c0,.241,0,.45-.006.64,0,0,0,0,0,.007l-.956-.137a12.281,12.281,0,0,1-6.9-3.452.764.764,0,0,0-.54-.224,6.914,6.914,0,0,0-5.316,2.515A6.213,6.213,0,0,1,42.894,4.586ZM37.658,20.1a43.685,43.685,0,0,1-.917-7.418l1.029-1.372A5.38,5.38,0,0,1,41.748,9.18a13.824,13.824,0,0,0,7.531,3.652l1.125.161c-.075,1.6-.229,3.2-.449,4.671v0c-.07.474-.125.778-.266,1.63a6.492,6.492,0,0,1-4.608,5.221,6.013,6.013,0,0,1-6.75-2.887h1.558a2.3,2.3,0,0,0,2.161,1.529h1.529a2.293,2.293,0,0,0,0-4.586H42.05A2.294,2.294,0,0,0,39.887,20.1Zm4.327,5.963a7.666,7.666,0,0,0,2.843.064l-1.35,1.428Zm.441,2.6L40,31.23a29.12,29.12,0,0,1-1.711-3.968l.91-1.821Zm5.4-3.484,1.04,2.08a29.112,29.112,0,0,1-1.711,3.969l-2.595-2.595Zm-6.54-4.318a.764.764,0,0,1,.764-.764h1.529a.764.764,0,0,1,0,1.529H42.05A.765.765,0,0,1,41.285,20.865ZM27.559,37.6a9.659,9.659,0,0,1,6.214-8.358l3.217-1.072a30.637,30.637,0,0,0,2.175,4.719l0,.008h0a30.645,30.645,0,0,0,2.092,3.195L42.2,37.6Zm16.019-.681-1.037-1.664q-.017-.028-.037-.054a29.141,29.141,0,0,1-1.722-2.573l2.726-2.882L46.38,32.62A29.107,29.107,0,0,1,44.652,35.2C44.615,35.252,44.668,35.174,43.578,36.921Zm1.376.681.94-1.509A30.635,30.635,0,0,0,48,32.873l.011-.02v0a30.613,30.613,0,0,0,2.153-4.678l3.217,1.072A9.659,9.659,0,0,1,59.6,37.6H44.955Z" transform="translate(-26)" fill="#0a0b2e"/>
      </g>
    </g>
    <g id="Group_246" data-name="Group 246" transform="translate(53.907 31.724)">
      <g id="Group_245" data-name="Group 245">
        <path id="Path_4255" data-name="Path 4255" d="M394.533,417.874a7.641,7.641,0,0,0-2.164-2.627.764.764,0,0,0-.932,1.212,6.1,6.1,0,0,1,1.728,2.1.764.764,0,0,0,1.368-.683Z" transform="translate(-391.139 -415.089)" fill="#0a0b2e"/>
      </g>
    </g>
  </g>
</svg>
