<svg xmlns="http://www.w3.org/2000/svg" width="48.758" height="34.943" viewBox="0 0 48.758 34.943">
  <g id="truck" transform="translate(0 -72.533)">
    <g id="Group_216" data-name="Group 216" transform="translate(6.501 97.724)">
      <g id="Group_215" data-name="Group 215" transform="translate(0 0)">
        <path id="Path_4239" data-name="Path 4239" d="M73.143,337.067a4.876,4.876,0,1,0,4.876,4.876A4.881,4.881,0,0,0,73.143,337.067Zm0,8.126a3.25,3.25,0,1,1,3.25-3.25A3.254,3.254,0,0,1,73.143,345.193Z" transform="translate(-68.267 -337.067)" fill="#0a0b2e"/>
      </g>
    </g>
    <g id="Group_218" data-name="Group 218" transform="translate(34.13 97.724)">
      <g id="Group_217" data-name="Group 217" transform="translate(0 0)">
        <path id="Path_4240" data-name="Path 4240" d="M363.276,337.067a4.876,4.876,0,1,0,4.876,4.876A4.881,4.881,0,0,0,363.276,337.067Zm0,8.126a3.25,3.25,0,1,1,3.25-3.25A3.254,3.254,0,0,1,363.276,345.193Z" transform="translate(-358.4 -337.067)" fill="#0a0b2e"/>
      </g>
    </g>
    <g id="Group_220" data-name="Group 220" transform="translate(30.88 81.472)">
      <g id="Group_219" data-name="Group 219" transform="translate(0 0)">
        <path id="Path_4241" data-name="Path 4241" d="M342.016,178.15,334.7,166.773a.813.813,0,0,0-.683-.373H325.08a.812.812,0,0,0-.813.813v20.316a.812.812,0,0,0,.813.813h3.25v-1.625h-2.438v-18.69h7.683l6.945,10.8v7.887h-4.063v1.625h4.876a.812.812,0,0,0,.813-.813v-8.939A.811.811,0,0,0,342.016,178.15Z" transform="translate(-324.267 -166.4)" fill="#0a0b2e"/>
      </g>
    </g>
    <g id="Group_222" data-name="Group 222" transform="translate(34.13 84.722)">
      <g id="Group_221" data-name="Group 221">
        <path id="Path_4242" data-name="Path 4242" d="M360.026,207.847v-5.688h6.5v-1.625h-7.314a.812.812,0,0,0-.813.813v7.314a.812.812,0,0,0,.813.813H371.4v-1.625H360.026Z" transform="translate(-358.401 -200.533)" fill="#0a0b2e"/>
      </g>
    </g>
    <g id="Group_224" data-name="Group 224" transform="translate(0 75.784)">
      <g id="Group_223" data-name="Group 223" transform="translate(0 0)">
        <path id="Path_4243" data-name="Path 4243" d="M31.692,106.667H.813A.813.813,0,0,0,0,107.48v26a.812.812,0,0,0,.813.813h6.5v-1.625H1.625V108.292H30.88v24.379H15.44V134.3H31.692a.812.812,0,0,0,.813-.813v-26A.812.812,0,0,0,31.692,106.667Z" transform="translate(0 -106.667)" fill="#0a0b2e"/>
      </g>
    </g>
    <g id="Group_226" data-name="Group 226" transform="translate(0.813 98.537)">
      <g id="Group_225" data-name="Group 225">
        <rect id="Rectangle_171" data-name="Rectangle 171" width="4.876" height="1.625" fill="#0a0b2e"/>
      </g>
    </g>
    <g id="Group_228" data-name="Group 228" transform="translate(17.065 98.537)">
      <g id="Group_227" data-name="Group 227">
        <rect id="Rectangle_172" data-name="Rectangle 172" width="13.815" height="1.625" fill="#0a0b2e"/>
      </g>
    </g>
    <g id="Group_230" data-name="Group 230" transform="translate(44.694 98.537)">
      <g id="Group_229" data-name="Group 229">
        <rect id="Rectangle_173" data-name="Rectangle 173" width="3.25" height="1.625" fill="#0a0b2e"/>
      </g>
    </g>
    <g id="Group_232" data-name="Group 232" transform="translate(3.25 79.034)">
      <g id="Group_231" data-name="Group 231" transform="translate(0 0)">
        <rect id="Rectangle_174" data-name="Rectangle 174" width="28.442" height="1.625" fill="#0a0b2e"/>
      </g>
    </g>
    <g id="Group_234" data-name="Group 234" transform="translate(10.564 101.788)">
      <g id="Group_233" data-name="Group 233" transform="translate(0 0)">
        <rect id="Rectangle_175" data-name="Rectangle 175" width="1.625" height="1.625" fill="#0a0b2e"/>
      </g>
    </g>
    <g id="Group_236" data-name="Group 236" transform="translate(38.193 101.788)">
      <g id="Group_235" data-name="Group 235" transform="translate(0 0)">
        <rect id="Rectangle_176" data-name="Rectangle 176" width="1.625" height="1.625" fill="#0a0b2e"/>
      </g>
    </g>
    <g id="Group_238" data-name="Group 238" transform="translate(3.25 72.533)">
      <g id="Group_237" data-name="Group 237" transform="translate(0 0)">
        <rect id="Rectangle_177" data-name="Rectangle 177" width="11.377" height="1.625" fill="#0a0b2e"/>
      </g>
    </g>
    <g id="Group_240" data-name="Group 240" transform="translate(0 72.533)">
      <g id="Group_239" data-name="Group 239" transform="translate(0 0)">
        <rect id="Rectangle_178" data-name="Rectangle 178" width="1.625" height="1.625" fill="#0a0b2e"/>
      </g>
    </g>
  </g>
</svg>
