<svg xmlns="http://www.w3.org/2000/svg" width="16.735" height="18.696" viewBox="0 0 16.735 18.696">
  <g id="user_1_" data-name="user (1)" transform="translate(-24.165)">
    <g id="Group_302" data-name="Group 302" transform="translate(27.679)">
      <g id="Group_301" data-name="Group 301" transform="translate(0)">
        <path id="Path_4275" data-name="Path 4275" d="M115.645,0A4.854,4.854,0,1,0,120.5,4.854,4.867,4.867,0,0,0,115.645,0Z" transform="translate(-110.791)" fill="#545454"/>
      </g>
    </g>
    <g id="Group_304" data-name="Group 304" transform="translate(24.165 10.056)">
      <g id="Group_303" data-name="Group 303" transform="translate(0)">
        <path id="Path_4276" data-name="Path 4276" d="M40.864,251.372a4.526,4.526,0,0,0-.488-.89,6.034,6.034,0,0,0-4.176-2.628.893.893,0,0,0-.615.148,5.174,5.174,0,0,1-6.1,0,.8.8,0,0,0-.615-.148,5.99,5.99,0,0,0-4.176,2.628,5.218,5.218,0,0,0-.488.89.451.451,0,0,0,.021.4,8.457,8.457,0,0,0,.572.848,8.057,8.057,0,0,0,.975,1.1,12.708,12.708,0,0,0,.975.848,9.666,9.666,0,0,0,11.531,0,9.319,9.319,0,0,0,.975-.848,9.789,9.789,0,0,0,.975-1.1,7.433,7.433,0,0,0,.572-.848A.362.362,0,0,0,40.864,251.372Z" transform="translate(-24.165 -247.841)" fill="#545454"/>
      </g>
    </g>
  </g>
</svg>
