<svg xmlns="http://www.w3.org/2000/svg" width="13.545" height="15.132" viewBox="0 0 13.545 15.132">
  <g id="user_2_" data-name="user (2)" transform="translate(-24.165)">
    <g id="Group_345" data-name="Group 345" transform="translate(27.009)">
      <g id="Group_344" data-name="Group 344" transform="translate(0)">
        <path id="Path_4809" data-name="Path 4809" d="M114.72,0a3.929,3.929,0,1,0,3.929,3.929A3.939,3.939,0,0,0,114.72,0Z" transform="translate(-110.791)" fill="#e8004f"/>
      </g>
    </g>
    <g id="Group_347" data-name="Group 347" transform="translate(24.165 8.138)">
      <g id="Group_346" data-name="Group 346">
        <path id="Path_4810" data-name="Path 4810" d="M37.68,250.7a3.662,3.662,0,0,0-.395-.721,4.883,4.883,0,0,0-3.38-2.127.723.723,0,0,0-.5.12,4.188,4.188,0,0,1-4.941,0,.644.644,0,0,0-.5-.12,4.848,4.848,0,0,0-3.38,2.127,4.223,4.223,0,0,0-.395.721.365.365,0,0,0,.017.326,6.842,6.842,0,0,0,.463.686,6.52,6.52,0,0,0,.789.892,10.281,10.281,0,0,0,.789.686,7.823,7.823,0,0,0,9.333,0,7.541,7.541,0,0,0,.789-.686,7.922,7.922,0,0,0,.789-.892,6.014,6.014,0,0,0,.463-.686A.293.293,0,0,0,37.68,250.7Z" transform="translate(-24.165 -247.841)" fill="#e8004f"/>
      </g>
    </g>
  </g>
</svg>
