<svg width="48" height="48" viewBox="0 0 48 48" fill="none" xmlns="http://www.w3.org/2000/svg">
<path d="M33.8846 27.3849C34.4851 28.3539 35.0491 29.2461 35.5912 30.1513C35.7352 30.3913 35.9092 30.2927 36.0776 30.2606C38.5299 29.7921 40.8849 31.128 41.7056 33.4581C42.4934 35.694 41.5278 38.2277 39.4505 39.3741C37.3526 40.5321 34.7512 40.0277 33.2371 38.1686C31.7366 36.3266 31.7876 33.6296 33.3571 31.8441C33.4282 31.7636 33.4985 31.6826 33.5868 31.5819C32.7541 30.2366 31.9244 28.9024 31.1045 27.5623C31.0046 27.399 30.8804 27.3827 30.7166 27.3831C26.2338 27.3857 21.7509 27.3874 17.2676 27.3793C17.0379 27.3789 16.9436 27.4873 16.8386 27.6549C16.0278 28.9496 15.2096 30.2391 14.3739 31.5621C14.9979 32.2414 15.4655 33.0124 15.6922 33.9274C16.3556 36.6051 14.6426 39.3099 11.8904 39.9026C9.26622 40.4678 6.57436 38.6627 6.08965 36.0124C5.45493 32.5436 8.41764 29.5976 11.8771 30.2661C12.1436 30.3176 12.2962 30.2679 12.4424 30.0266C12.9656 29.1621 13.5134 28.3131 14.0979 27.3853C13.9021 27.3853 13.7722 27.3853 13.6419 27.3853C10.6899 27.3853 7.7375 27.3861 4.7855 27.3849C3.72822 27.3844 3.28765 26.94 3.28765 25.8759C3.28722 20.4557 3.28636 15.0356 3.2885 9.61543C3.28893 8.76514 3.78093 8.21828 4.52579 8.22471C5.17207 8.22985 5.68379 8.70771 5.73093 9.35614C5.74336 9.52714 5.73865 9.69943 5.73865 9.87128C5.73907 14.6979 5.73907 19.5244 5.73907 24.351C5.73907 24.522 5.73907 24.6926 5.73907 24.8987C17.9118 24.8987 30.0674 24.8987 42.2666 24.8987C42.2666 24.7243 42.2666 24.5567 42.2666 24.3891C42.2666 19.4687 42.2658 14.5487 42.2675 9.62828C42.2679 8.76428 42.7424 8.226 43.4885 8.22471C44.1116 8.22343 44.6319 8.67685 44.7069 9.29657C44.7258 9.45085 44.7176 9.60857 44.7176 9.76457C44.7181 15.1221 44.7181 20.4797 44.7176 25.8377C44.7176 26.9619 44.2925 27.3849 43.1641 27.3853C40.1024 27.3853 37.0411 27.3849 33.8846 27.3849ZM10.9102 37.5291C12.2748 37.53 13.3844 36.4213 13.3754 35.0661C13.3668 33.7234 12.2769 32.631 10.9381 32.6224C9.57093 32.6139 8.45707 33.7063 8.45022 35.0623C8.44336 36.42 9.54864 37.5283 10.9102 37.5291ZM37.0775 32.6224C35.7112 32.6164 34.6008 33.7114 34.5969 35.0683C34.5935 36.4264 35.7009 37.5317 37.0621 37.5291C38.4275 37.5261 39.5324 36.4161 39.5195 35.0601C39.5071 33.7149 38.4185 32.6284 37.0775 32.6224Z" fill="#FFCE2B"/>
<path d="M10.8752 47.9966C9.31389 47.9966 7.75218 48 6.19089 47.9957C4.49503 47.991 3.28775 46.8099 3.2946 45.1174C3.30018 43.7177 3.1536 42.3043 3.5616 40.929C3.62332 40.7203 3.67903 40.5081 3.7596 40.3067C4.02017 39.6536 4.6356 39.342 5.26175 39.5366C5.90803 39.7371 6.3096 40.338 6.08932 40.9967C5.65603 42.2923 5.75675 43.6166 5.74475 44.9379C5.7396 45.4783 5.81589 45.5426 6.37775 45.5426C9.40689 45.5434 12.436 45.5434 15.4652 45.5426C16.0236 45.5426 16.1067 45.4641 16.1003 44.8851C16.0862 43.6097 16.1873 42.3313 15.7802 41.0794C15.583 40.473 16.024 39.8263 16.6206 39.6579C17.2467 39.4809 17.8622 39.7736 18.1069 40.3924C18.3842 41.0944 18.5192 41.8329 18.5423 42.5833C18.5702 43.4726 18.5753 44.3636 18.5522 45.2529C18.5119 46.8043 17.3012 47.9833 15.7467 47.994C14.1233 48.0051 12.499 47.9966 10.8752 47.9966Z" fill="#FFCE2B"/>
<path d="M37.0628 47.9966C35.4857 47.9966 33.9085 48.0004 32.3318 47.9957C30.6381 47.991 29.4334 46.8039 29.4432 45.1114C29.4514 43.6959 29.3022 42.267 29.7197 40.8771C29.787 40.6539 29.8487 40.4259 29.9442 40.2146C30.2091 39.6287 30.8254 39.3527 31.4147 39.5383C32.028 39.7311 32.373 40.269 32.2598 40.9149C32.1878 41.3271 32.0374 41.7261 31.9705 42.1393C31.812 43.1156 31.9131 44.103 31.8917 45.0853C31.8844 45.4166 32.0558 45.5481 32.3905 45.5473C35.4977 45.5404 38.6053 45.5396 41.7124 45.5481C42.0981 45.5494 42.2575 45.3866 42.2485 45.0193C42.2173 43.7143 42.3574 42.4011 41.934 41.1193C41.733 40.5107 42.1427 39.8537 42.729 39.666C43.3581 39.4646 44.007 39.7663 44.2568 40.3989C44.4874 40.9817 44.622 41.5933 44.6593 42.2177C44.7287 43.3856 44.8123 44.5624 44.6297 45.7209C44.4184 47.0606 43.2878 47.982 41.9353 47.9931C40.311 48.0064 38.6867 47.9961 37.0628 47.9966Z" fill="#FFCE2B"/>
<path d="M32.8332 15.6214C34.3482 15.6219 35.8632 15.6244 37.3786 15.6201C37.8604 15.6189 38.2696 15.7491 38.5486 16.1709C38.9939 16.8441 38.6841 17.7591 37.9165 18.003C37.7412 18.0587 37.5488 18.0836 37.3645 18.084C34.3345 18.0887 31.3041 18.09 28.2741 18.0857C27.5399 18.0849 27.0248 17.7103 26.9061 17.1206C26.7428 16.311 27.2811 15.6454 28.1481 15.627C29.0849 15.6073 30.0222 15.6214 30.9595 15.6214C31.5835 15.621 32.2084 15.6214 32.8332 15.6214Z" fill="#FFCE2B"/>
<path d="M32.811 9.36043C34.3573 9.36086 35.904 9.35186 37.4503 9.36429C38.2963 9.37115 38.8217 9.94757 38.7365 10.7331C38.6666 11.3786 38.16 11.811 37.4327 11.8144C35.6987 11.8217 33.9652 11.817 32.2312 11.817C30.8722 11.817 29.5132 11.8234 28.1542 11.8136C27.522 11.8089 27.03 11.4244 26.9083 10.8793C26.787 10.3354 27.0249 9.78343 27.495 9.51343C27.7505 9.36686 28.0299 9.35957 28.3123 9.36C29.8119 9.36043 31.3115 9.36 32.811 9.36043Z" fill="#FFCE2B"/>
<path d="M3.18362 5.33271C3.18747 4.58486 3.77419 4.01314 4.52719 4.023C5.25405 4.03243 5.82233 4.60371 5.82705 5.33014C5.83219 6.07371 5.24633 6.66686 4.50619 6.66771C3.76519 6.66857 3.17933 6.07757 3.18362 5.33271Z" fill="#FFCE2B"/>
<path d="M44.7992 5.35672C44.7897 6.09 44.1807 6.67843 43.4432 6.66857C42.7069 6.65872 42.1202 6.04543 42.1412 5.307C42.1617 4.57972 42.7386 4.02172 43.4685 4.02257C44.2073 4.02343 44.8086 4.626 44.7992 5.35672Z" fill="#FFCE2B"/>
<path d="M47.3634 2.46643H0.638002C0.289145 2.46643 0.00585938 2.18357 0.00585938 1.83429V0.631714C0.00585937 0.282857 0.289145 0 0.638002 0H47.3634C47.7123 0 47.9956 0.282857 47.9956 0.632143V1.83429C47.9956 2.18357 47.7123 2.46643 47.3634 2.46643Z" fill="#FFCE2B"/>
<path d="M23.1787 9.29743C23.0365 9.23957 22.9023 9.24043 22.7682 9.23957H12.7259L12.6007 8.71629C12.4987 8.28943 12.3963 7.86257 12.2922 7.43615C12.2043 7.07572 11.9305 6.84986 11.5786 6.84729C10.9837 6.84215 10.3893 6.84386 9.79445 6.84686C9.50816 6.84857 9.28059 6.993 9.13617 7.26429C9.13317 7.26986 9.13059 7.27543 9.12802 7.281L9.05859 7.30886V7.929L9.14645 7.94357C9.29388 8.217 9.54759 8.35543 9.87545 8.35029C9.98774 8.34814 10.1 8.34857 10.2127 8.349L10.964 8.34943L12.6059 15.2327C12.7297 15.7526 12.974 15.9459 13.5067 15.9459H21.4867C21.9993 15.9459 22.247 15.7504 22.3709 15.2486C22.5196 14.6434 22.6692 14.0383 22.8192 13.4331L23.2092 11.8564C23.3489 11.2937 23.4882 10.731 23.6236 10.167C23.7102 9.80314 23.5237 9.43757 23.1787 9.29743ZM21.9264 10.7584L21.581 12.1521C21.3929 12.9099 21.2047 13.6676 21.0149 14.4429C19.0692 14.4407 17.1235 14.4407 15.1777 14.4407L13.9687 14.4399L13.0889 10.7589H21.9264V10.7584Z" fill="#FFCE2B"/>
<path d="M20.4778 16.7087C20.4769 16.7087 20.4765 16.7087 20.4756 16.7087C19.9429 16.7091 19.4424 16.9174 19.0674 17.295C18.6936 17.6713 18.4892 18.1701 18.4922 18.6999C18.4952 19.2326 18.7035 19.7314 19.0794 20.1043C19.4526 20.4746 19.9481 20.6781 20.4756 20.6781C20.4795 20.6781 20.4834 20.6781 20.4872 20.6781C21.0195 20.6751 21.5175 20.466 21.8899 20.0893C22.2624 19.7126 22.4655 19.212 22.4625 18.6801C22.4556 17.5929 21.5655 16.7087 20.4778 16.7087ZM20.4769 19.6239C19.9682 19.6239 19.5525 19.2103 19.5495 18.7003C19.5465 18.1903 19.9575 17.7707 20.4662 17.7651C20.7114 17.7639 20.9526 17.8594 21.1322 18.0377C21.3109 18.2151 21.4091 18.4491 21.4082 18.696C21.4061 19.197 20.9809 19.6217 20.4799 19.6234C20.4791 19.6239 20.4778 19.6239 20.4769 19.6239Z" fill="#FFCE2B"/>
<path d="M14.0963 16.7091C13.5683 16.7066 13.0656 16.9041 12.6863 17.2761C12.3061 17.649 12.0953 18.1474 12.0918 18.6793C12.085 19.7747 12.9708 20.6713 14.0663 20.6782C14.0701 20.6782 14.0744 20.6782 14.0783 20.6782C15.1656 20.6782 16.0553 19.7936 16.0638 18.7011C16.0724 17.6164 15.19 16.7229 14.0963 16.7091ZM14.0911 19.6234C14.086 19.6234 14.0813 19.6234 14.0761 19.6234C13.8344 19.6234 13.6043 19.5283 13.4273 19.3539C13.249 19.1786 13.1466 18.9377 13.1466 18.6934C13.1466 18.192 13.5704 17.7669 14.0727 17.7643C14.074 17.7643 14.0753 17.7643 14.0766 17.7643C14.5848 17.7643 15.001 18.1766 15.0044 18.6844C15.0083 19.1944 14.5986 19.6153 14.0911 19.6234Z" fill="#FFCE2B"/>
</svg>
