<svg width="49" height="47" viewBox="0 0 49 47" fill="none" xmlns="http://www.w3.org/2000/svg">
<path d="M43.4721 27.3019C43.1378 27.2118 42.9899 27.0534 42.9252 26.7156L42.7379 25.7269C42.4422 24.165 42.1368 22.5489 41.7816 20.973C41.0396 17.6804 39.0314 16.0835 35.8211 16.2244C34.9522 16.262 34.1008 16.2533 33.2005 16.2419C32.7936 16.2375 32.3849 16.2331 31.972 16.2331H31.8556L31.8564 13.6108C31.8564 11.9404 31.8573 10.2691 31.8538 8.59875C31.8521 7.43675 31.1031 6.68338 29.9454 6.67988C28.6251 6.67463 27.3047 6.67638 25.9843 6.67988C24.8844 6.6825 24.0794 7.42713 24.0689 8.45175C24.0646 8.94175 24.2334 9.37575 24.5589 9.7065C24.9116 10.0635 25.4191 10.263 25.9878 10.2656C26.4594 10.2674 26.9319 10.2665 27.4088 10.2665L28.2488 10.2656V27.1181H13.7116C12.8786 27.1181 12.0456 27.1138 11.2143 27.1138C10.6946 27.1138 10.1748 27.1155 9.65508 27.1208C9.09858 27.1251 8.58145 27.3684 8.23495 27.7866C7.90508 28.1865 7.7677 28.7036 7.8587 29.2068C8.02758 30.1404 8.75908 30.6969 9.8152 30.6969L41.5593 30.6978C43.3189 30.6978 44.8493 31.9595 45.1976 33.6999C45.2754 34.0945 45.2702 34.4918 45.2641 34.875C45.2623 34.9984 45.2606 35.1209 45.2614 35.2434C45.2667 36.2155 45.2658 37.1876 45.2649 38.1711L45.2641 39.4346H45.1477C44.4223 39.4346 43.7109 39.4311 43.0206 39.4311C42.4737 39.4311 41.9356 39.4329 41.3913 39.4416C41.3834 39.4416 41.3738 39.4416 41.3659 39.4416C41.0124 39.4416 40.8663 39.2806 40.7368 39.0041C39.6807 36.7703 37.9552 35.6371 35.6093 35.6371C35.5988 35.6371 35.5883 35.6371 35.5778 35.6371C33.2232 35.6468 31.5047 36.7808 30.4669 39.005C30.2963 39.369 30.0898 39.4399 29.7696 39.4399C29.7678 39.4399 29.7652 39.4399 29.7634 39.4399C26.1366 39.4311 22.459 39.4311 18.833 39.4399C18.4978 39.4399 18.2817 39.3673 18.0979 38.9814C17.0453 36.7624 15.3224 35.6363 12.9792 35.6363C12.9766 35.6363 12.974 35.6363 12.9713 35.6363C10.6193 35.6389 8.8947 36.7659 7.84645 38.9866C7.66883 39.3629 7.47982 39.4635 7.08432 39.3874C5.08582 38.9936 3.79257 37.4283 3.78907 35.3983L3.78645 33.1311C3.7847 30.9296 3.7847 28.729 3.78558 26.5275L3.7882 22.0003C3.78995 21.1839 3.7917 20.3675 3.78645 19.552V18.8835C3.78645 18.775 3.7777 18.67 3.75845 18.5711C3.6762 18.0523 3.38045 17.62 2.92545 17.3514L2.82483 17.2954C2.72945 17.2446 2.63758 17.2061 2.5422 17.1773C2.51508 17.1685 2.4897 17.1606 2.46433 17.1536L2.39258 17.1344C2.3742 17.13 2.36458 17.1283 2.35408 17.1265C2.29283 17.1151 2.25258 17.1081 2.21233 17.1038C1.94545 17.067 1.66808 17.0968 1.41083 17.1878L1.38633 17.1965C1.35395 17.2079 1.32158 17.221 1.2892 17.235C1.21045 17.2691 1.1352 17.3076 1.06258 17.3505L0.91995 17.4485C0.898075 17.4625 0.875325 17.48 0.854325 17.4984L0.789575 17.5544C0.7677 17.5745 0.7467 17.5946 0.7257 17.6156L0.663575 17.6804C0.611075 17.739 0.558575 17.8055 0.51045 17.8755C0.47545 17.9254 0.4422 17.9744 0.41245 18.026C0.40195 18.0444 0.394075 18.0636 0.387075 18.0838C0.355575 18.1503 0.331075 18.2071 0.3092 18.2658C0.238325 18.4618 0.201575 18.67 0.201575 18.8818V36.2636C0.201575 36.3879 0.2147 36.513 0.240075 36.6338C0.261075 36.7379 0.294325 36.8446 0.3372 36.9488L0.338075 36.9636L0.345075 36.9785C1.1422 40.4628 3.74445 42.7124 7.30833 42.9985C7.61545 43.0248 7.71345 43.1866 7.8027 43.3791C8.8527 45.6541 10.5887 46.81 12.9626 46.8153C12.9661 46.8153 12.9696 46.8153 12.9731 46.8153C15.3539 46.8153 17.0891 45.6655 18.1312 43.3975C18.2607 43.1158 18.4234 43.0116 18.7288 43.0116C22.6339 43.0221 26.2722 43.0221 29.8518 43.0116C29.8527 43.0116 29.8544 43.0116 29.8553 43.0116C30.1546 43.0116 30.3147 43.1175 30.4451 43.4019C31.4916 45.6664 33.2267 46.8153 35.6049 46.8153C35.6093 46.8153 35.6137 46.8153 35.6189 46.8153C37.9849 46.81 39.7122 45.6655 40.7508 43.415C40.8864 43.1228 41.0571 43.0125 41.3791 43.0125C41.3808 43.0125 41.3826 43.0125 41.3834 43.0125C43.5517 43.0239 45.3411 43.0256 47.0158 43.0143C48.0929 43.0073 48.8463 42.2478 48.8498 41.1671L48.8533 40.1075C48.8586 38.1703 48.8647 36.1683 48.8463 34.1995C48.8131 31.0311 46.5529 28.1296 43.4721 27.3019ZM31.8836 27.1015V19.8198H33.6432C33.9179 19.8198 34.1936 19.8215 34.4683 19.8241C35.1036 19.8294 35.7624 19.8329 36.4056 19.8128C37.1432 19.7926 37.6769 20.1304 37.9937 20.8549C38.2728 21.4945 38.3988 22.1761 38.5204 22.8359C38.5598 23.0441 38.5974 23.2515 38.6403 23.458C38.8039 24.2403 38.951 25.0103 39.1058 25.824C39.1776 26.2003 39.2502 26.5783 39.3246 26.9624L39.3508 27.1006H31.8836V27.1015ZM12.9687 43.247C12.9652 43.247 12.9608 43.247 12.9564 43.247C12.9564 43.247 12.9564 43.247 12.9556 43.247C12.9556 43.247 12.9556 43.247 12.9564 43.247C12.4174 43.2444 11.9117 43.0318 11.5328 42.6485C11.1531 42.2635 10.9457 41.7525 10.9492 41.2091C10.9527 40.6719 11.1688 40.1661 11.5564 39.7838C11.9441 39.4023 12.4472 39.1966 12.9897 39.2001C14.1045 39.2106 15.0048 40.1285 14.9969 41.2441C14.9899 42.351 14.0808 43.247 12.9687 43.247ZM35.5979 43.247C35.5971 43.247 35.5971 43.247 35.5962 43.247C35.0546 43.2461 34.5462 43.0361 34.1647 42.6538C33.7832 42.2714 33.5732 41.7639 33.5741 41.2223C33.5767 40.1066 34.4849 39.1993 35.5988 39.1993C35.6006 39.1993 35.6014 39.1993 35.6023 39.1993C36.7188 39.2019 37.6253 40.1136 37.6236 41.2301C37.6236 42.344 36.7144 43.247 35.5979 43.247ZM0.196325 10.0521C0.0974505 9.717 0.110575 9.37488 0.2357 9.0065C0.423825 8.45438 0.84295 8.0405 1.38808 7.87163C1.94458 7.70013 2.5352 7.80688 3.01558 8.1665C3.13895 8.24963 3.25795 8.345 3.3682 8.45088C4.93883 9.95413 6.50595 11.4609 8.07307 12.9676L9.0802 13.9363C9.5247 14.3641 9.90095 14.5514 10.2728 14.5138C10.6386 14.4805 10.9737 14.2346 11.3263 13.7411L17.0585 5.72963C18.1609 4.18875 19.2634 2.64788 20.3633 1.10525C20.8909 0.365876 21.5236 0.0780012 22.2822 0.221501H22.2831C22.8816 0.334376 23.3602 0.713251 23.5956 1.26188C23.8353 1.82188 23.7767 2.44663 23.4337 2.97425C23.1423 3.42313 22.8203 3.86325 22.5088 4.29025C22.3767 4.47138 22.2437 4.6525 22.1142 4.8345L19.8453 8.00375C17.9571 10.6419 16.0697 13.2791 14.1806 15.9164C13.2749 17.1808 12.0036 17.9499 10.6027 18.0803C9.21233 18.2098 7.8237 17.6935 6.7072 16.6251C6.12445 16.0678 5.54257 15.5086 4.9607 14.9495L4.87407 14.8734C3.53008 13.5915 2.18695 12.3096 0.8412 11.0304C0.527075 10.732 0.3162 10.4188 0.2007 10.0775L0.196325 10.0521Z" fill="#0500FF"/>
</svg>
