<svg width="19" height="25" viewBox="0 0 19 25" fill="none" xmlns="http://www.w3.org/2000/svg">
<path opacity="0.5" d="M14.2301 14.1609C13.9842 14.05 13.7259 14.0194 13.4824 13.998C12.9301 13.9511 12.385 14.0299 11.8281 14.1212C11.7152 14.1397 11.652 14.1252 11.5772 14.0659C11.0933 13.6768 10.5969 13.2138 10.0156 12.6089C9.75558 12.3379 9.64263 12.1165 9.83393 11.7873C9.88281 11.7034 9.90603 11.6067 9.92857 11.5132C9.93705 11.4781 9.94554 11.4429 9.95558 11.4078C9.98036 11.3176 10.0067 11.2277 10.0333 11.1371C10.1632 10.694 10.2975 10.2355 10.2882 9.66139C10.2949 9.52456 10.2583 9.2625 10.1973 9.0096C10.0661 8.46049 9.74844 8.14799 9.22634 8.05469C8.41674 7.91183 7.79978 8.26027 7.57612 8.98616C7.37634 9.63996 7.39107 10.2741 7.61987 10.8708C7.8317 11.4201 8.14955 11.8944 8.46205 12.3261L8.47299 12.3404C8.52545 12.4098 8.55179 12.4491 8.52567 12.5217C8.41272 12.8393 8.30647 13.1647 8.2038 13.4795C8.02411 14.0299 7.83817 14.5991 7.61138 15.142C7.57366 15.2344 7.52254 15.2882 7.42924 15.3337C6.76473 15.6511 6.0567 15.99 5.34821 16.3384C5.025 16.4973 4.6067 16.7214 4.2375 17.0455C3.88259 17.3618 3.71987 17.7634 3.79107 18.1478C3.86228 18.5321 4.15848 18.8489 4.60313 19.017C4.79978 19.0906 4.98482 19.1219 5.15893 19.1219C5.66518 19.1219 6.07701 18.8569 6.39888 18.5998C7.10134 18.0377 7.68705 17.2766 8.24174 16.2045C8.29286 16.1045 8.3538 16.0489 8.45201 16.0129C9.25982 15.7217 10.1694 15.4784 11.315 15.2471C11.3866 15.2324 11.431 15.252 11.5036 15.3027C11.808 15.5188 12.1366 15.7493 12.4739 15.9734C12.8799 16.2415 13.4313 16.5192 14.0949 16.283C14.5661 16.1154 14.8411 15.7435 14.8685 15.2359C14.8989 14.6955 14.708 14.3741 14.2301 14.1609ZM13.8417 15.196C13.8344 15.283 13.7917 15.3199 13.673 15.3424C13.5393 15.3656 13.4098 15.3368 13.2641 15.2504C13.1435 15.1819 13.0263 15.1087 12.8906 15.0237L12.8855 15.0205C13.1728 15.0051 13.4382 15.006 13.6993 15.0652C13.8123 15.0915 13.8507 15.1152 13.8417 15.196ZM9.0038 14.3286C9.11049 14.0089 9.21607 13.6924 9.32455 13.3661C9.7058 13.7748 10.0359 14.0971 10.3759 14.3926C9.83125 14.5205 9.3404 14.6498 8.84799 14.7955L9.0038 14.3286ZM8.98415 11.0556L8.94174 11.2018C8.50402 10.5297 8.37746 9.9846 8.51853 9.39688C8.57701 9.15469 8.66585 9.06585 8.85692 9.05804C9.12701 9.04777 9.19844 9.10871 9.23482 9.38259C9.2875 9.76741 9.27098 10.0835 9.18304 10.3768C9.11629 10.5989 9.05156 10.8223 8.98415 11.0556ZM5.42746 18.023C5.32299 18.083 5.21451 18.1065 5.10446 18.094C5.02321 18.0846 4.96205 18.0304 4.94107 17.9493C4.92388 17.8826 4.93549 17.7904 5.02098 17.7286C5.54018 17.3612 6.11451 17.0893 6.62009 16.8705C6.27969 17.3743 5.88862 17.752 5.42746 18.023ZM18.6049 20.1138V13.2076V11.7098V6.79241V6.74107C18.6049 6.5692 18.6071 6.39509 18.6094 6.22322C18.6205 5.26786 18.2969 4.49331 17.6116 3.83036C16.6406 2.89286 15.6875 1.93527 14.7455 0.966521C14.0937 0.296878 13.3259 -0.00446121 12.3906 3.0784e-06C9.28125 0.0178602 6.17411 0.00446736 3.06696 0.00669951C1.16964 0.00669951 0.0491072 1.1384 0.0491072 3.04911V5.35045C0.0491072 7.29911 0.0491071 9.25 0.046875 11.1987C0.046875 11.221 0.0468751 11.2433 0.0491072 11.2656V11.5938V13.2076V20.1138V21.7946C0.0491072 21.9308 0.0468751 22.0804 0.0491072 22.2321C0.078125 23.7879 1.2567 24.9888 2.80804 24.9911C7.15179 25.0022 11.4978 25.0022 15.8415 24.9933C17.0692 24.9888 18.0915 24.2254 18.4576 23.1071C18.4951 22.9949 18.5228 22.877 18.546 22.7569L18.5482 22.7587C18.552 22.7386 18.5551 22.7145 18.5585 22.6911C18.5623 22.6681 18.5681 22.646 18.5714 22.6228C18.5859 22.5185 18.5902 22.4125 18.5911 22.3051C18.6212 21.708 18.6049 20.8755 18.6049 20.8755V20.1138ZM14.2031 2.60045C14.8571 3.24777 15.5179 3.90179 16.1987 4.5759H14.2031V2.60045ZM17.1272 21.8036V22.3304C17.029 23.0871 16.4487 23.5625 15.4286 23.5491C11.3616 23.5022 7.29241 23.5022 3.22545 23.5491C2.20313 23.5625 1.62277 23.0938 1.52455 22.3326C1.51116 22.2522 1.5067 22.1696 1.5067 22.0826C1.5067 21.9911 1.51116 21.8951 1.52455 21.7946H1.52679V21.7813V20.1183V13.2031V11.6317V5.35045H1.51339C1.51563 4.57813 1.51563 3.80804 1.51563 3.03795C1.51563 1.94643 1.9933 1.47099 3.09152 1.47099H12.6964C12.6964 2.375 12.6942 3.24777 12.6964 4.11831C12.7009 5.44866 13.3103 6.05804 14.6317 6.05804C15.4442 6.06027 16.2567 6.05804 17.1027 6.05804V6.74107H17.1049V13.2009H17.1078L17.1272 15.2538V20.1183V21.8036Z" fill="#0C1928"/>
</svg>
