<svg width="37" height="48" viewBox="0 0 37 48" fill="none" xmlns="http://www.w3.org/2000/svg">
<path d="M26.1167 11.6366H9.87811C9.2224 11.6366 8.91383 11.9511 8.90783 12.6137V15.7886C8.90783 16.5403 9.05525 16.7786 9.70497 16.8943V24.3291C9.70497 25.0877 9.97497 25.3577 10.7395 25.3577H25.263C26.0275 25.3577 26.3044 25.0877 26.3044 24.3231V16.9011C26.973 16.7469 27.0947 16.5283 27.0947 15.7251V12.6146C27.093 11.9451 26.7784 11.6366 26.1167 11.6366ZM24.639 23.6983H11.3558V16.938H24.639V23.6983ZM25.4353 15.2477H10.5655V13.2943H25.4353V15.2477ZM27.4273 33.8674C29.6147 31.2797 32.3704 27.798 34.2767 23.8054C35.7861 20.6451 36.3458 17.718 35.9884 14.8577C35.1124 7.85314 29.577 2.07 22.2141 0.468857C21.5387 0.321429 20.8495 0.227143 20.1835 0.137143C19.8793 0.096 19.5758 0.054 19.2733 0.00771429L19.2261 0L16.9281 0.00514286L16.401 0.0694286C16.0178 0.114 15.6355 0.159429 15.2558 0.221143C10.1695 1.04143 6.14097 3.40886 3.28068 7.25743C0.43411 11.0914 -0.520747 15.276 0.444396 19.6963C1.15497 22.9474 2.8024 25.7331 4.3204 28.0294C6.62354 31.5111 9.3604 34.662 11.7904 37.32C11.0875 37.4863 10.4207 37.6449 9.74868 37.8411C8.59668 38.178 6.91925 38.7771 5.65325 40.0791C4.3084 41.4591 4.27925 43.1666 5.57697 44.5337C6.0484 45.0309 6.63897 45.4877 7.33325 45.8914C8.73125 46.7057 10.2741 47.0949 11.463 47.3443C13.5621 47.7831 15.7161 48 17.9884 48C18.9038 48 19.8373 47.9649 20.7947 47.8946C23.5384 47.6923 25.7104 47.2423 27.6287 46.4803C28.9873 45.942 29.9524 45.3103 30.6664 44.4926C31.869 43.1126 31.8398 41.4523 30.5884 40.158C30.1718 39.7277 29.6361 39.312 29.0001 38.9237C27.7255 38.1446 26.2804 37.7451 25.0341 37.4571C24.8198 37.4074 24.6047 37.3611 24.3861 37.3157C24.6201 37.0526 24.8558 36.7894 25.0907 36.5271C25.8793 35.6477 26.667 34.7674 27.4273 33.8674ZM18.087 39.4311L17.6533 38.9743C17.1193 38.412 16.5981 37.8634 16.0795 37.3131C12.6124 33.6334 9.80868 30.462 7.39411 26.9426C6.04068 24.9711 4.55954 22.6029 3.8284 19.9894C2.42782 14.9751 3.77697 10.5891 7.8364 6.95314C10.7395 4.35343 14.1115 3.03343 17.7647 3.03343C19.2964 3.03343 20.877 3.26571 22.4927 3.73286C27.9458 5.31171 31.3555 8.826 32.6284 14.1797C33.2421 16.7597 32.8358 19.4837 31.3847 22.5077C29.9807 25.4331 28.0555 28.2917 25.4987 31.2463C23.7741 33.24 21.951 35.2217 20.1895 37.1383C19.4875 37.9011 18.7855 38.664 18.087 39.4311ZM12.9467 40.2814C13.3958 40.1974 13.8441 40.1126 14.2873 39.9986C14.2898 40.0003 14.3121 40.014 14.3653 40.0723C15.0424 40.7983 15.7281 41.5174 16.4147 42.2374L16.7421 42.5811C17.1724 43.032 17.6267 43.26 18.0947 43.2609C18.0947 43.2609 18.0947 43.2609 18.0955 43.2609C18.5584 43.2609 19.0075 43.0363 19.4293 42.5949L19.8407 42.1654C20.4801 41.4969 21.1195 40.8283 21.7435 40.1477C21.8584 40.0226 21.8824 40.008 22.065 40.0329C23.6438 40.26 25.3195 40.5711 26.8795 41.3023C27.273 41.4874 27.6535 41.7214 27.9767 41.9803C28.2673 42.2109 28.329 42.3566 28.329 42.39C28.329 42.3909 28.3118 42.516 27.9904 42.7449C27.483 43.1083 26.8864 43.4306 26.265 43.6791C24.7521 44.2834 23.0378 44.6374 20.709 44.8286C20.085 44.8791 19.4584 44.9031 18.969 44.922L18.4701 44.9426C15.699 44.9169 12.747 44.7463 9.92954 43.6817C9.34325 43.4597 8.75868 43.1503 8.23925 42.7869C7.93411 42.5743 7.86211 42.432 7.86125 42.3977C7.86125 42.3969 7.8664 42.2529 8.23325 41.9503C8.90782 41.3957 9.75811 41.0006 10.9084 40.7074C11.5718 40.5394 12.2704 40.4074 12.9467 40.2814Z" fill="#F4A203"/>
</svg>
