<svg width="48" height="48" viewBox="0 0 48 48" fill="none" xmlns="http://www.w3.org/2000/svg">
<path d="M24.8508 10.638C24.4758 10.509 24.0647 10.539 23.7017 10.719C23.3417 10.899 23.0747 11.208 22.9487 11.589L16.3483 31.392C16.0872 32.178 16.5133 33.03 17.2993 33.294C17.4553 33.348 17.6143 33.372 17.7764 33.372C18.4244 33.372 18.9974 32.958 19.2044 32.343L25.8049 12.54C26.0629 11.754 25.6338 10.899 24.8508 10.638Z" fill="#03A9F4"/>
<path d="M24.6875 21.966C24.6875 24.342 26.6196 26.274 28.9928 26.274C31.3659 26.274 33.298 24.342 33.298 21.966C33.298 19.593 31.3659 17.661 28.9928 17.661C26.6196 17.661 24.6875 19.59 24.6875 21.966ZM27.6997 21.966C27.6997 21.252 28.2787 20.67 28.9958 20.67C29.7128 20.67 30.2918 21.249 30.2918 21.966C30.2918 22.683 29.7098 23.262 28.9958 23.262C28.2817 23.262 27.6997 22.68 27.6997 21.966Z" fill="#03A9F4"/>
<path d="M13.1549 17.661C10.7817 17.661 8.84961 19.593 8.84961 21.966C8.84961 24.342 10.7817 26.274 13.1549 26.274C15.528 26.274 17.4601 24.342 17.4601 21.966C17.4601 19.59 15.528 17.661 13.1549 17.661ZM14.448 21.966C14.448 22.68 13.8689 23.262 13.1519 23.262C12.4378 23.262 11.8558 22.683 11.8558 21.966C11.8558 21.249 12.4378 20.67 13.1549 20.67C13.8689 20.67 14.448 21.252 14.448 21.966Z" fill="#03A9F4"/>
<path d="M47.7 17.403L42.8427 10.929L43.0257 9.636C43.0917 9.168 42.9327 8.691 42.5997 8.361L39.7045 5.466L42.5997 2.571C43.1847 1.983 43.1847 1.029 42.5997 0.441C42.3176 0.156 41.9396 0 41.5346 0C41.1296 0 40.7545 0.156 40.4725 0.441L37.5774 3.339L34.6822 0.441C34.3461 0.108 33.8571 -0.051 33.4041 0.018L19.5432 1.998C19.2162 2.043 18.9222 2.19 18.6912 2.421L1.5301 19.581C-0.510032 21.624 -0.510032 24.948 1.5301 26.991L16.051 41.511C16.33 41.79 16.645 42.042 16.9871 42.255V42.762C16.9871 45.648 19.3362 48 22.2254 48H42.7617C45.6479 48 48 45.648 48 42.762V18.306C48 17.979 47.892 17.658 47.7 17.403ZM23.4615 41.511L40.6225 24.351C40.8536 24.117 40.9976 23.823 41.0456 23.499L42.2396 15.141L44.9908 18.807V42.759C44.9908 43.986 43.9917 44.988 42.7617 44.988H22.2254C21.1003 44.988 20.1493 44.136 20.0143 43.032C21.3163 42.972 22.5344 42.432 23.4615 41.511ZM33.6171 7.299L32.699 6.381C32.417 6.096 32.039 5.94 31.634 5.94C31.232 5.94 30.8539 6.096 30.5719 6.381C30.2869 6.666 30.1279 7.044 30.1279 7.446C30.1279 7.848 30.2869 8.226 30.5719 8.511L34.5322 12.468C34.8112 12.753 35.1892 12.909 35.5942 12.909C35.9992 12.909 36.3773 12.75 36.6563 12.468C36.9413 12.183 37.1003 11.805 37.1003 11.403C37.1003 11.001 36.9413 10.623 36.6563 10.341L35.7442 9.426L37.5774 7.593L39.9415 9.957L38.1384 22.578L21.3313 39.384C20.9113 39.804 20.3503 40.035 19.7562 40.035C19.1592 40.035 18.5982 39.804 18.1781 39.384L3.65723 24.864C2.78717 23.994 2.78717 22.581 3.65723 21.711L20.4643 4.905L33.0831 3.102L35.4502 5.466L33.6171 7.299Z" fill="#03A9F4"/>
</svg>
