<svg width="46" height="48" viewBox="0 0 46 48" fill="none" xmlns="http://www.w3.org/2000/svg">
<path d="M13.5603 12.8503C13.3636 13.2561 12.9081 13.4957 12.3136 13.509C11.9348 13.5184 11.5611 13.5159 11.1646 13.5129H10.9529V20.2114H8.44492C8.44235 18.2884 8.44235 16.3667 8.44235 14.445V12.8246C8.44235 11.5363 8.86535 11.2633 10.0452 11.2389L6.95735 7.15586L3.87335 11.2337C3.98049 11.2337 4.08377 11.235 4.18792 11.2389C4.96192 11.2671 5.42949 11.6927 5.46935 12.408C5.47192 12.4629 5.47192 12.5177 5.47063 12.5726V32.1146H2.99992V13.5133H2.79378C2.40292 13.5159 2.03306 13.5171 1.65806 13.5107C1.06492 13.4987 0.589633 13.2441 0.386061 12.8293C0.205204 12.4581 0.26949 12.0206 0.562633 11.6293C2.18949 9.46114 3.92263 7.17257 5.8602 4.63371C6.15763 4.24414 6.5472 4.02986 6.95949 4.02986C7.36792 4.02986 7.75363 4.24157 8.04677 4.62557C9.97235 7.14729 11.7145 9.45043 13.3739 11.664C13.6692 12.0561 13.7361 12.4886 13.5603 12.8503Z" fill="#17DA94"/>
<path d="M32.4418 12.8503C32.6386 13.2561 33.0941 13.4957 33.6886 13.509C34.0674 13.5184 34.4411 13.5159 34.8376 13.5129H35.0493V20.2114H37.5573C37.5598 18.2884 37.5598 16.3667 37.5598 14.445V12.8246C37.5598 11.5363 37.1368 11.2633 35.957 11.2389L39.0448 7.15586L42.1288 11.2337C42.0217 11.2337 41.9184 11.235 41.8143 11.2389C41.0403 11.2671 40.5727 11.6927 40.5328 12.408C40.5303 12.4629 40.5303 12.5177 40.5316 12.5726V32.1146H43.0023V13.5133H43.2084C43.5993 13.5159 43.9691 13.5171 44.3441 13.5107C44.9373 13.4987 45.4126 13.2441 45.6161 12.8293C45.797 12.4581 45.7327 12.0206 45.4396 11.6293C43.8127 9.46114 42.0796 7.17257 40.142 4.63371C39.8446 4.24414 39.455 4.02986 39.0427 4.02986C38.6343 4.02986 38.2486 4.24157 37.9554 4.62557C36.0298 7.14729 34.2877 9.45043 32.6283 11.664C32.333 12.0561 32.2661 12.4886 32.4418 12.8503Z" fill="#17DA94"/>
<path d="M31.2161 9.59614C30.9054 10.326 30.2077 10.3127 29.9103 10.3071C29.4255 10.2977 28.9447 10.299 28.4373 10.302C28.3301 10.302 28.223 10.302 28.1145 10.3033V16.6749H25.8298C25.8272 14.2697 25.8273 11.8646 25.8285 9.45943C25.8285 8.41757 26.2181 8.03057 27.2681 8.028H27.6161L22.9575 2.84314L18.2908 8.03229C18.3388 8.03229 18.3885 8.031 18.4383 8.02971C18.5763 8.02586 18.7194 8.02157 18.8642 8.02714C19.6224 8.05929 20.0763 8.50371 20.0788 9.21643C20.084 11.3713 20.084 13.5711 20.0827 15.699V16.6753H17.825V10.3033C17.7097 10.3033 17.5948 10.302 17.4808 10.302C16.9507 10.3007 16.4497 10.2981 15.9422 10.3071C15.7104 10.3097 15.0007 10.3234 14.6917 9.58928C14.4144 8.93186 14.8485 8.451 15.0332 8.24486C16.4231 6.70371 17.8121 5.15957 19.202 3.61671C20.1152 2.60314 21.0285 1.58786 21.9418 0.573C22.0528 0.45 22.1951 0.306429 22.3648 0.194143C22.5345 0.0818571 22.7325 0 22.9563 0C23.405 0 23.753 0.329571 23.9754 0.577286L26.3737 3.24343C27.8643 4.89986 29.3561 6.558 30.8475 8.21314C31.0755 8.466 31.4985 8.93486 31.2161 9.59614Z" fill="#17DA94"/>
<path d="M21.8706 30.9609C21.8706 31.5339 21.8706 32.0554 21.8706 32.6109C22.72 32.6109 23.56 32.6104 24.4 32.6109C24.9773 32.6113 25.1445 32.7819 25.1449 33.369C25.1453 34.1674 25.147 34.9659 25.1445 35.7643C25.1427 36.2524 24.9503 36.4406 24.4579 36.444C24.1519 36.4461 23.8455 36.4444 23.512 36.4444C23.512 36.8079 23.512 37.1559 23.512 37.5214C23.1379 37.5214 22.7907 37.5214 22.4157 37.5214C22.4157 37.1756 22.4157 36.8276 22.4157 36.4444C22.12 36.4444 21.85 36.4444 21.5804 36.4444C21.3203 36.4444 21.0597 36.4444 20.782 36.4444C20.782 36.0784 20.782 35.7313 20.782 35.3563C21.8603 35.3563 22.9373 35.3563 24.0319 35.3563C24.0319 34.7996 24.0319 34.2699 24.0319 33.7067C23.2004 33.7067 22.3716 33.7071 21.5432 33.7067C20.9204 33.7063 20.7649 33.5477 20.7644 32.9139C20.764 32.127 20.7627 31.3397 20.7649 30.5529C20.7666 30.0639 20.9573 29.877 21.4506 29.874C21.7566 29.8719 22.063 29.8736 22.3964 29.8736C22.3964 29.5106 22.3964 29.1626 22.3964 28.797C22.7706 28.797 23.1177 28.797 23.4927 28.797C23.4927 29.1424 23.4927 29.49 23.4927 29.865C24.0494 29.865 24.5792 29.865 25.1265 29.865C25.1265 30.2391 25.1265 30.5863 25.1265 30.9613C24.0499 30.9609 22.9729 30.9609 21.8706 30.9609Z" fill="#17DA94"/>
<path d="M33.4412 22.662C30.6401 19.8634 26.9064 18.321 22.9275 18.318C22.9241 18.318 22.9211 18.318 22.9172 18.318C18.9804 18.318 15.2711 19.8591 12.4725 22.6577C9.65981 25.4704 8.11267 29.2041 8.11524 33.1719C8.12038 41.3481 14.7774 48 22.9541 48C26.9171 47.9991 30.6474 46.449 33.4571 43.635C36.2587 40.8291 37.7981 37.1126 37.793 33.1701C37.7878 29.1921 36.242 25.4606 33.4412 22.662ZM32.6218 25.3526C34.1467 27.2151 35.0617 29.4253 35.3475 31.9346H31.0181C30.8218 30.6039 30.3024 29.3769 29.543 28.3359L31.727 26.1784L32.6218 25.3526ZM24.1712 20.8204C26.1332 20.8616 29.264 22.1619 30.8137 23.5826C30.6298 23.7754 30.4417 23.9721 30.248 24.1749L27.8077 26.5851C26.7628 25.8081 25.5268 25.2741 24.1832 25.0701L24.1708 22.2124V20.8204H24.1712ZM22.9545 27.2087C26.2194 27.2087 28.8757 29.865 28.8757 33.1299C28.8757 36.3947 26.2194 39.051 22.9545 39.051C19.6897 39.051 17.0334 36.3947 17.0334 33.1299C17.0334 29.865 19.6892 27.2087 22.9545 27.2087ZM21.7301 20.7639V21.6047V22.212V25.0693C20.4264 25.2664 19.2238 25.7751 18.1987 26.5144L15.719 24.1191L15.4451 23.8539C15.3337 23.7459 15.2218 23.6374 15.1078 23.5269C17.033 21.9467 19.2071 21.0394 21.7301 20.7639ZM13.373 25.3003C13.5607 25.4777 13.7467 25.653 13.9352 25.8304L16.4578 28.2111C15.65 29.2757 15.0984 30.5439 14.8922 31.9234H12.0367H10.6078C10.8667 29.4514 11.7954 27.2267 13.373 25.3003ZM21.7498 45.5541C19.2277 45.2786 17.0291 44.3563 15.0542 42.7449C15.1498 42.6617 15.2424 42.5786 15.3337 42.492C15.4747 42.357 15.6075 42.2173 15.7481 42.0694L15.8205 41.9936C15.9684 41.8384 15.9564 41.5911 15.7944 41.451C15.3705 41.0846 14.9741 40.6869 14.609 40.2617C14.4671 40.0967 14.2155 40.0864 14.0608 40.2394L14.0407 40.2596C13.7964 40.5013 13.5572 40.7391 13.3078 40.9881C11.7611 39.0973 10.8397 36.8807 10.5641 34.3886H14.9004C15.4464 37.8964 18.2364 40.6697 21.7515 41.1926V44.0511V44.658V45.0934C21.7507 45.2477 21.7502 45.4011 21.7498 45.5541ZM32.5597 41.034C32.4761 40.9389 32.3938 40.845 32.3111 40.7511L31.8932 40.275C31.7321 40.0911 31.445 40.0929 31.286 40.2784C30.932 40.6916 30.542 41.0833 30.1267 41.4429C29.954 41.5924 29.9407 41.8556 30.0971 42.0219L30.8115 42.7826C28.88 44.3623 26.708 45.2713 24.1952 45.552V45.0939V44.0481V41.187C27.695 40.65 30.4687 37.881 31.0104 34.383H35.3445C35.0732 36.8833 34.1587 39.0673 32.5597 41.034Z" fill="#17DA94"/>
</svg>
