<svg width="26" height="25" viewBox="0 0 26 25" fill="none" xmlns="http://www.w3.org/2000/svg">
<path opacity="0.5" d="M25.0331 9.88573C25.0146 7.92835 23.4052 6.30859 21.4455 6.27541C21.2709 6.2727 21.096 6.27316 20.914 6.27383L20.7145 6.27451L20.7141 5.62408C20.7136 5.01991 20.7129 4.42162 20.7161 3.82332C20.7175 3.51278 20.6911 3.22638 20.6351 2.94743C20.3159 1.36175 18.635 0.0162042 16.9643 0.00965923C13.6146 -0.00365632 10.6737 -0.00320495 7.9737 0.0110133C6.0176 0.021395 4.40309 1.61971 4.37466 3.57439C4.36564 4.20338 4.36789 4.84523 4.36992 5.4661C4.37105 5.73151 4.37195 5.99759 4.37195 6.26481C4.20906 6.27902 4.04436 6.27835 3.88552 6.27812C3.67931 6.27767 3.46678 6.27677 3.25695 6.30791C1.68282 6.54037 0.482541 7.65391 0.124713 9.21363C0.119298 9.23665 0.117944 9.26216 0.116816 9.28788C0.115914 9.30729 0.115463 9.32738 0.11095 9.34589L0.0980901 9.39915C0.0730466 9.50274 0.046875 9.60994 0.046875 9.72211V15.9355C0.046875 16.151 0.0897422 16.3618 0.131933 16.5394C0.140732 16.5765 0.146823 16.6146 0.152915 16.6525C0.161488 16.7044 0.170062 16.7563 0.184276 16.8062C0.640248 18.4063 2.06051 19.4921 3.71879 19.5086C3.87582 19.5104 4.03285 19.5095 4.18808 19.5095L4.36428 19.509C4.37872 19.5352 4.37692 19.5646 4.37286 19.6083C4.37105 19.6273 4.36947 19.6456 4.36947 19.6639C4.37105 20.359 4.37105 21.0541 4.37105 21.7492L4.37128 22.5989C4.37173 23.803 4.95788 24.5911 6.11349 24.942C6.12319 24.9449 6.13335 24.947 6.1426 24.9485C6.27526 24.974 6.43274 25 6.5927 25H18.4367C18.6458 25 18.8029 24.9808 18.9457 24.9379C18.9816 24.9271 19.0192 24.9203 19.0565 24.9138C19.1052 24.9052 19.1555 24.896 19.2051 24.8786C20.0966 24.5626 20.7017 23.7246 20.7114 22.7937C20.7188 22.0719 20.7172 21.338 20.7159 20.6282C20.7152 20.3215 20.7147 20.015 20.7147 19.7083V19.5156C20.8734 19.5052 21.0315 19.5045 21.1852 19.5041C21.4074 19.5032 21.6371 19.5023 21.8627 19.4711C23.6239 19.2265 25.0161 17.6663 25.0326 15.9195C25.0516 13.9136 25.0516 11.8837 25.0331 9.88573ZM19.1404 15.634V22.6298C19.1402 23.1652 18.8832 23.4254 18.355 23.4254C14.4785 23.4258 10.6019 23.4258 6.72514 23.4254C6.2078 23.4254 5.94541 23.1643 5.94541 22.649L5.94495 15.634H19.1404ZM5.94608 6.05018C5.94428 5.28781 5.94225 4.52521 5.94563 3.76261C5.95105 2.49989 6.86728 1.58225 8.12396 1.58067C11.0556 1.57706 14.0284 1.57706 16.96 1.58067C18.2167 1.58225 19.1334 2.49944 19.1397 3.76171C19.1424 4.34353 19.1417 4.92513 19.1411 5.51372L19.1404 6.26932H5.94789C5.93886 6.25149 5.93954 6.22937 5.94315 6.19168C5.94473 6.17453 5.94631 6.15783 5.94631 6.14158L5.94608 6.05018ZM20.7263 15.6225L20.8034 15.6229C20.904 15.6241 21.0029 15.625 21.1024 15.6211C21.5405 15.6046 21.8821 15.2575 21.8798 14.8308C21.8776 14.3997 21.5401 14.0634 21.0945 14.0483C21.0541 14.0472 21.0141 14.047 20.9735 14.0476L20.9223 14.0479C15.336 14.0479 9.74999 14.0479 4.16371 14.0485L4.10595 14.0481C4.01751 14.0467 3.92681 14.0463 3.83769 14.0646C3.44625 14.1451 3.16941 14.5159 3.20754 14.9086C3.24635 15.3063 3.57192 15.606 3.98186 15.6213C4.07594 15.6247 4.17025 15.6238 4.272 15.6231L4.3627 15.6225V17.9112C3.36074 18.0642 2.7245 17.7322 2.36554 17.4246C1.88182 17.01 1.6086 16.3839 1.61582 15.7071C1.62913 14.4543 1.62619 13.181 1.62349 11.9494C1.62191 11.3234 1.62055 10.6971 1.62123 10.0712C1.62258 8.76294 2.53272 7.84913 3.83431 7.84868C6.73664 7.84777 9.63898 7.84755 12.5415 7.84755C15.4439 7.84755 18.3462 7.848 21.2486 7.84868C22.5513 7.84913 23.4619 8.76226 23.4634 10.0697C23.4657 11.9562 23.4664 13.8427 23.4632 15.7294C23.4612 17.0231 22.554 17.9301 21.2569 17.9355C21.129 17.9358 21.0015 17.9358 20.8709 17.9358L20.7258 17.9355V15.6225H20.7263ZM5.16274 9.44158C5.53478 9.44158 5.9066 9.4391 6.27842 9.44226C6.72649 9.44587 7.05138 9.75348 7.05183 10.1692C7.05228 10.5854 6.7283 10.8964 6.28067 10.8984C5.52869 10.9018 4.77671 10.9022 4.02495 10.8982C3.58274 10.8957 3.25763 10.5745 3.26372 10.1593C3.26959 9.75461 3.59177 9.44699 4.0227 9.44248C4.40264 9.43819 4.7828 9.44158 5.16274 9.44158ZM12.5373 17.2158C13.16 17.2158 13.7829 17.2147 14.4056 17.2163C14.8796 17.2174 15.2074 17.5097 15.2142 17.9331C15.221 18.3671 14.8891 18.6726 14.4045 18.6731C13.1588 18.6744 11.9132 18.6747 10.6676 18.6729C10.1999 18.6722 9.87114 18.368 9.87137 17.9437C9.87159 17.5201 10.2012 17.2174 10.6689 17.216C11.2916 17.2145 11.9143 17.2158 12.5373 17.2158ZM12.544 21.7835C11.9213 21.7835 11.2984 21.7849 10.6757 21.7831C10.2046 21.7817 9.87565 21.4851 9.87114 21.062C9.86663 20.6296 10.1996 20.3265 10.6849 20.3262C11.9225 20.3251 13.16 20.3253 14.3975 20.3262C14.8857 20.3267 15.2171 20.626 15.2142 21.0593C15.2113 21.4921 14.8812 21.7826 14.3882 21.7835C13.7734 21.7842 13.1588 21.7835 12.544 21.7835Z" fill="#0C1928"/>
</svg>
