<svg width="14" height="17" viewBox="0 0 14 17" fill="none" xmlns="http://www.w3.org/2000/svg">
<path fill-rule="evenodd" clip-rule="evenodd" d="M6.76496 10.6975L6.86725 10.6975L7.09395 10.6982C9.01938 10.7085 13.5299 10.8835 13.5299 13.8588C13.5299 16.6175 9.82546 16.9861 6.94394 17L6.43597 16.9998C4.51053 16.9895 0 16.8145 0 13.84C0 11.023 3.86041 10.6975 6.76496 10.6975ZM6.76496 11.9858C3.13127 11.9858 1.28824 12.6101 1.28824 13.84C1.28824 15.0818 3.13127 15.7122 6.76496 15.7122C10.3986 15.7122 12.2417 15.0878 12.2417 13.8588C12.2417 12.6153 10.3986 11.9858 6.76496 11.9858ZM6.76496 0C9.28389 0 11.3322 2.04915 11.3322 4.56723C11.3322 7.0853 9.28389 9.13445 6.76496 9.13445H6.73834C5.51966 9.13016 4.37743 8.6518 3.52118 7.78954C2.66407 6.92642 2.1943 5.78075 2.19856 4.56465C2.19856 2.04915 4.24689 0 6.76496 0ZM6.76496 1.28824C4.95799 1.28824 3.4868 2.7594 3.4868 4.56723C3.48339 5.44237 3.82005 6.26255 4.43411 6.88176C5.04903 7.50011 5.86835 7.84278 6.74091 7.84622H6.76496C8.57278 7.84622 10.0439 6.37505 10.0439 4.56723C10.0439 2.7594 8.57278 1.28824 6.76496 1.28824Z" fill="black"/>
</svg>
