<svg width="13" height="64" viewBox="0 0 13 64" fill="none" xmlns="http://www.w3.org/2000/svg">
<path d="M11.6833 3.92948L7.99265 3.41307L6.33898 0.180756C6.30299 0.12543 6.25301 0.0798197 6.19371 0.048203C6.13442 0.0165863 6.06777 0 6 0C5.93223 0 5.86558 0.0165863 5.80629 0.048203C5.74699 0.0798197 5.69701 0.12543 5.66102 0.180756L4.00735 3.41749L0.318275 3.92948C0.251444 3.9358 0.187875 3.96037 0.135037 4.0003C0.0821998 4.04023 0.0422905 4.09386 0.0199999 4.1549C-0.0022907 4.21593 -0.00603622 4.28182 0.00920356 4.34484C0.0244433 4.40785 0.0580351 4.46537 0.106031 4.51062L2.7858 7.0338L2.15212 10.5971C2.14401 10.6628 2.1549 10.7294 2.18357 10.7895C2.21225 10.8496 2.25761 10.9009 2.31463 10.9377C2.37166 10.9746 2.43813 10.9955 2.50673 10.9982C2.57532 11.001 2.64337 10.9854 2.70335 10.9532L6 9.28185L9.29513 10.9547C9.35511 10.9868 9.42315 11.0024 9.49174 10.9997C9.56034 10.997 9.62682 10.976 9.68384 10.9392C9.74087 10.9024 9.78622 10.8511 9.8149 10.791C9.84357 10.7309 9.85446 10.6643 9.84635 10.5986L9.2142 7.0338L11.894 4.51062C11.942 4.46537 11.9756 4.40785 11.9908 4.34484C12.006 4.28182 12.0023 4.21593 11.98 4.1549C11.9577 4.09386 11.9178 4.04023 11.865 4.0003C11.8121 3.96037 11.7486 3.9358 11.6817 3.92948H11.6833Z" fill="#DBD9E1"/>
<path d="M11.6833 21.9295L7.99265 21.4131L6.33898 18.1808C6.30299 18.1254 6.25301 18.0798 6.19371 18.0482C6.13442 18.0166 6.06777 18 6 18C5.93223 18 5.86558 18.0166 5.80629 18.0482C5.74699 18.0798 5.69701 18.1254 5.66102 18.1808L4.00735 21.4175L0.318275 21.9295C0.251444 21.9358 0.187875 21.9604 0.135037 22.0003C0.0821998 22.0402 0.0422905 22.0939 0.0199999 22.1549C-0.0022907 22.2159 -0.00603622 22.2818 0.00920356 22.3448C0.0244433 22.4079 0.0580351 22.4654 0.106031 22.5106L2.7858 25.0338L2.15212 28.5971C2.14401 28.6628 2.1549 28.7294 2.18357 28.7895C2.21225 28.8496 2.25761 28.9009 2.31463 28.9377C2.37166 28.9746 2.43813 28.9955 2.50673 28.9982C2.57532 29.001 2.64337 28.9854 2.70335 28.9532L6 27.2819L9.29513 28.9547C9.35511 28.9868 9.42315 29.0024 9.49174 28.9997C9.56034 28.997 9.62682 28.976 9.68384 28.9392C9.74087 28.9024 9.78622 28.8511 9.8149 28.791C9.84357 28.7309 9.85446 28.6643 9.84635 28.5986L9.2142 25.0338L11.894 22.5106C11.942 22.4654 11.9756 22.4079 11.9908 22.3448C12.006 22.2818 12.0023 22.2159 11.98 22.1549C11.9577 22.0939 11.9178 22.0402 11.865 22.0003C11.8121 21.9604 11.7486 21.9358 11.6817 21.9295H11.6833Z" fill="#FF0000"/>
<path d="M11.6833 38.9295L7.99265 38.4131L6.33898 35.1808C6.30299 35.1254 6.25301 35.0798 6.19371 35.0482C6.13442 35.0166 6.06777 35 6 35C5.93223 35 5.86558 35.0166 5.80629 35.0482C5.74699 35.0798 5.69701 35.1254 5.66102 35.1808L4.00735 38.4175L0.318275 38.9295C0.251444 38.9358 0.187875 38.9604 0.135037 39.0003C0.0821998 39.0402 0.0422905 39.0939 0.0199999 39.1549C-0.0022907 39.2159 -0.00603622 39.2818 0.00920356 39.3448C0.0244433 39.4079 0.0580351 39.4654 0.106031 39.5106L2.7858 42.0338L2.15212 45.5971C2.14401 45.6628 2.1549 45.7294 2.18357 45.7895C2.21225 45.8496 2.25761 45.9009 2.31463 45.9377C2.37166 45.9746 2.43813 45.9955 2.50673 45.9982C2.57532 46.001 2.64337 45.9854 2.70335 45.9532L6 44.2819L9.29513 45.9547C9.35511 45.9868 9.42315 46.0024 9.49174 45.9997C9.56034 45.997 9.62682 45.976 9.68384 45.9392C9.74087 45.9024 9.78622 45.8511 9.8149 45.791C9.84357 45.7309 9.85446 45.6643 9.84635 45.5986L9.2142 42.0338L11.894 39.5106C11.942 39.4654 11.9756 39.4079 11.9908 39.3448C12.006 39.2818 12.0023 39.2159 11.98 39.1549C11.9577 39.0939 11.9178 39.0402 11.865 39.0003C11.8121 38.9604 11.7486 38.9358 11.6817 38.9295H11.6833Z" fill="#FACA51"/>
<path d="M12.6833 56.9295L8.99265 56.4131L7.33898 53.1808C7.30299 53.1254 7.25301 53.0798 7.19371 53.0482C7.13442 53.0166 7.06777 53 7 53C6.93223 53 6.86558 53.0166 6.80629 53.0482C6.74699 53.0798 6.69701 53.1254 6.66102 53.1808L5.00735 56.4175L1.31827 56.9295C1.25144 56.9358 1.18787 56.9604 1.13504 57.0003C1.0822 57.0402 1.04229 57.0939 1.02 57.1549C0.997709 57.2159 0.993964 57.2818 1.0092 57.3448C1.02444 57.4079 1.05804 57.4654 1.10603 57.5106L3.7858 60.0338L3.15212 63.5971C3.14401 63.6628 3.1549 63.7294 3.18357 63.7895C3.21225 63.8496 3.25761 63.9009 3.31463 63.9377C3.37166 63.9746 3.43813 63.9955 3.50673 63.9982C3.57532 64.001 3.64337 63.9854 3.70335 63.9532L7 62.2819L10.2951 63.9547C10.3551 63.9868 10.4231 64.0024 10.4917 63.9997C10.5603 63.997 10.6268 63.976 10.6838 63.9392C10.7409 63.9024 10.7862 63.8511 10.8149 63.791C10.8436 63.7309 10.8545 63.6643 10.8463 63.5986L10.2142 60.0338L12.894 57.5106C12.942 57.4654 12.9756 57.4079 12.9908 57.3448C13.006 57.2818 13.0023 57.2159 12.98 57.1549C12.9577 57.0939 12.9178 57.0402 12.865 57.0003C12.8121 56.9604 12.7486 56.9358 12.6817 56.9295H12.6833Z" fill="#FF8400"/>
</svg>
