<svg width="16" height="64" viewBox="0 0 16 64" fill="none" xmlns="http://www.w3.org/2000/svg">
<path d="M15.5777 5.35838L10.6569 4.65419L8.45197 0.246486C8.40399 0.171041 8.33734 0.108845 8.25829 0.0657314C8.17923 0.0226177 8.09036 0 8 0C7.90965 0 7.82077 0.0226177 7.74171 0.0657314C7.66266 0.108845 7.59601 0.171041 7.54803 0.246486L5.34313 4.66021L0.424366 5.35838C0.335259 5.367 0.250499 5.4005 0.18005 5.45495C0.1096 5.5094 0.0563873 5.58254 0.0266665 5.66577C-0.00305427 5.74899 -0.0080483 5.83885 0.0122714 5.92478C0.0325911 6.01071 0.0773801 6.08913 0.141374 6.15084L3.7144 9.59154L2.8695 14.4506C2.85869 14.5402 2.8732 14.631 2.91143 14.7129C2.94967 14.7949 3.01014 14.8649 3.08617 14.9151C3.16221 14.9653 3.25085 14.9939 3.34231 14.9976C3.43377 15.0013 3.52449 14.98 3.60446 14.9362L8 12.6571L12.3935 14.9382C12.4735 14.982 12.5642 15.0033 12.6557 14.9996C12.7471 14.9959 12.8358 14.9673 12.9118 14.9171C12.9878 14.8669 13.0483 14.7969 13.0865 14.715C13.1248 14.633 13.1393 14.5422 13.1285 14.4527L12.2856 9.59154L15.8586 6.15084C15.9226 6.08913 15.9674 6.01071 15.9877 5.92478C16.008 5.83885 16.0031 5.74899 15.9733 5.66577C15.9436 5.58254 15.8904 5.5094 15.82 5.45495C15.7495 5.4005 15.6647 5.367 15.5756 5.35838H15.5777Z" fill="#DBD9E1"/>
<path d="M15.5777 21.3584L10.6569 20.6542L8.45197 16.2465C8.40399 16.171 8.33734 16.1088 8.25829 16.0657C8.17923 16.0226 8.09036 16 8 16C7.90965 16 7.82077 16.0226 7.74171 16.0657C7.66266 16.1088 7.59601 16.171 7.54803 16.2465L5.34313 20.6602L0.424366 21.3584C0.335259 21.367 0.250499 21.4005 0.18005 21.4549C0.1096 21.5094 0.0563873 21.5825 0.0266665 21.6658C-0.00305427 21.749 -0.0080483 21.8389 0.0122714 21.9248C0.0325911 22.0107 0.0773801 22.0891 0.141374 22.1508L3.7144 25.5915L2.8695 30.4506C2.85869 30.5402 2.8732 30.631 2.91143 30.7129C2.94967 30.7949 3.01014 30.8649 3.08617 30.9151C3.16221 30.9653 3.25085 30.9939 3.34231 30.9976C3.43377 31.0013 3.52449 30.98 3.60446 30.9362L8 28.6571L12.3935 30.9382C12.4735 30.982 12.5642 31.0033 12.6557 30.9996C12.7471 30.9959 12.8358 30.9673 12.9118 30.9171C12.9878 30.8669 13.0483 30.7969 13.0865 30.715C13.1248 30.633 13.1393 30.5422 13.1285 30.4527L12.2856 25.5915L15.8586 22.1508C15.9226 22.0891 15.9674 22.0107 15.9877 21.9248C16.008 21.8389 16.0031 21.749 15.9733 21.6658C15.9436 21.5825 15.8904 21.5094 15.82 21.4549C15.7495 21.4005 15.6647 21.367 15.5756 21.3584H15.5777Z" fill="#FF5107"/>
<path d="M15.5777 38.3584L10.6569 37.6542L8.45197 33.2465C8.40399 33.171 8.33734 33.1088 8.25829 33.0657C8.17923 33.0226 8.09036 33 8 33C7.90965 33 7.82077 33.0226 7.74171 33.0657C7.66266 33.1088 7.59601 33.171 7.54803 33.2465L5.34313 37.6602L0.424366 38.3584C0.335259 38.367 0.250499 38.4005 0.18005 38.4549C0.1096 38.5094 0.0563873 38.5825 0.0266665 38.6658C-0.00305427 38.749 -0.0080483 38.8389 0.0122714 38.9248C0.0325911 39.0107 0.0773801 39.0891 0.141374 39.1508L3.7144 42.5915L2.8695 47.4506C2.85869 47.5402 2.8732 47.631 2.91143 47.7129C2.94967 47.7949 3.01014 47.8649 3.08617 47.9151C3.16221 47.9653 3.25085 47.9939 3.34231 47.9976C3.43377 48.0013 3.52449 47.98 3.60446 47.9362L8 45.6571L12.3935 47.9382C12.4735 47.982 12.5642 48.0033 12.6557 47.9996C12.7471 47.9959 12.8358 47.9673 12.9118 47.9171C12.9878 47.8669 13.0483 47.7969 13.0865 47.715C13.1248 47.633 13.1393 47.5422 13.1285 47.4527L12.2856 42.5915L15.8586 39.1508C15.9226 39.0891 15.9674 39.0107 15.9877 38.9248C16.008 38.8389 16.0031 38.749 15.9733 38.6658C15.9436 38.5825 15.8904 38.5094 15.82 38.4549C15.7495 38.4005 15.6647 38.367 15.5756 38.3584H15.5777Z" fill="#FF8400"/>
<path d="M15.5777 54.3584L10.6569 53.6542L8.45197 49.2465C8.40399 49.171 8.33734 49.1088 8.25829 49.0657C8.17923 49.0226 8.09036 49 8 49C7.90965 49 7.82077 49.0226 7.74171 49.0657C7.66266 49.1088 7.59601 49.171 7.54803 49.2465L5.34313 53.6602L0.424366 54.3584C0.335259 54.367 0.250499 54.4005 0.18005 54.4549C0.1096 54.5094 0.0563873 54.5825 0.0266665 54.6658C-0.00305427 54.749 -0.0080483 54.8389 0.0122714 54.9248C0.0325911 55.0107 0.0773801 55.0891 0.141374 55.1508L3.7144 58.5915L2.8695 63.4506C2.85869 63.5402 2.8732 63.631 2.91143 63.7129C2.94967 63.7949 3.01014 63.8649 3.08617 63.9151C3.16221 63.9653 3.25085 63.9939 3.34231 63.9976C3.43377 64.0013 3.52449 63.98 3.60446 63.9362L8 61.6571L12.3935 63.9382C12.4735 63.982 12.5642 64.0033 12.6557 63.9996C12.7471 63.9959 12.8358 63.9673 12.9118 63.9171C12.9878 63.8669 13.0483 63.7969 13.0865 63.715C13.1248 63.633 13.1393 63.5422 13.1285 63.4527L12.2856 58.5915L15.8586 55.1508C15.9226 55.0891 15.9674 55.0107 15.9877 54.9248C16.008 54.8389 16.0031 54.749 15.9733 54.6658C15.9436 54.5825 15.8904 54.5094 15.82 54.4549C15.7495 54.4005 15.6647 54.367 15.5756 54.3584H15.5777Z" fill="#FFC107"/>
</svg>
